<?xml version="1.0" encoding="utf-8"?>
<!-- Generator: Adobe Illustrator 26.0.1, SVG Export Plug-In . SVG Version: 6.00 Build 0)  -->
<svg version="1.1" id="Layer_1" xmlns="http://www.w3.org/2000/svg" xmlns:xlink="http://www.w3.org/1999/xlink" x="0px" y="0px"
	 viewBox="0 0 595.3 841.9" style="enable-background:new 0 0 595.3 841.9;" xml:space="preserve">
<style type="text/css">
	.st0{enable-background:new    ;}
	.st1{fill:#004BEE;}
	.st2{fill:#7F7F7F;}
	.st3{clip-path:url(#SVGID_00000047037809520721934380000013254367727673760181_);}
	.st4{fill:none;stroke:#7F7F7F;stroke-width:0.5;stroke-miterlimit:10;}
	.st5{fill:none;stroke:#002BFF;stroke-width:0.65;stroke-miterlimit:10;}
	.st6{clip-path:url(#SVGID_00000182507526944808885930000001107679892213953417_);}
	.st7{clip-path:url(#SVGID_00000143583968247229393730000000786640839418414774_);}
	.st8{fill:#29426A;}
	.st9{fill:#020309;}
	.st10{fill:#314A70;}
	.st11{fill:#425A7A;}
	.st12{fill:#010309;}
	.st13{fill:#395175;}
	.st14{fill:#000109;}
	.st15{fill:#395275;}
	.st16{fill:#42597A;}
	.st17{fill:#344D73;}
	.st18{fill:#282828;}
	.st19{fill:#252626;}
	.st20{fill:#242424;}
	.st21{fill:#272727;}
	.st22{fill:#292929;}
	.st23{fill:#010208;}
	.st24{fill:#3A5275;}
	.st25{fill:#324A70;}
	.st26{fill:#131616;}
	.st27{fill:#151717;}
	.st28{fill:#171818;}
	.st29{fill:#1C1D1D;}
	.st30{fill:#111314;}
	.st31{fill:#1B1C1C;}
	.st32{fill:#424A57;}
	.st33{fill:#526B8D;}
	.st34{fill:#0D1314;}
	.st35{fill:#020C31;}
	.st36{fill:#000217;}
	.st37{fill:#061013;}
	.st38{fill:#041031;}
	.st39{fill:#010217;}
	.st40{fill:#091213;}
	.st41{fill:#010B31;}
	.st42{fill:#000116;}
	.st43{fill:#536C8E;}
	.st44{fill:#0B1213;}
	.st45{fill:#000117;}
	.st46{fill:#091113;}
	.st47{fill:#040C14;}
	.st48{fill:#0E1F2D;}
	.st49{fill:#0E2130;}
	.st50{fill:#020D31;}
	.st51{fill:#030F31;}
	.st52{fill:#050F13;}
	.st53{fill:#667899;}
	.st54{fill:#597095;}
	.st55{fill:#21292D;}
	.st56{fill:#102533;}
	.st57{fill:#112431;}
	.st58{fill:#778CAB;}
	.st59{fill:#143155;}
	.st60{fill:#6A81A4;}
	.st61{fill:#152D52;}
	.st62{fill:#1E282F;}
	.st63{fill:#1C282E;}
	.st64{fill:#19232D;}
	.st65{fill:#788DAB;}
	.st66{fill:#667898;}
	.st67{fill:#647698;}
	.st68{fill:#132A50;}
	.st69{fill:#20272E;}
	.st70{fill:#64779A;}
	.st71{fill:#030D31;}
	.st72{fill:#24364D;}
	.st73{fill:#122E51;}
	.st74{fill:#324B6E;}
	.st75{fill:#142B52;}
	.st76{fill:#162D58;}
	.st77{fill:#182C4C;}
	.st78{fill:#3B454A;}
	.st79{fill:#45515B;}
	.st80{fill:#333E42;}
	.st81{fill:#122D4F;}
	.st82{fill:#364E6C;}
	.st83{fill:#869CBD;}
	.st84{fill:#98ADCA;}
	.st85{fill:#3C5065;}
	.st86{fill:#8096B7;}
	.st87{fill:#47545E;}
	.st88{fill:#374D6A;}
	.st89{fill:#4E606E;}
	.st90{fill:#505D65;}
	.st91{fill:#2D383C;}
	.st92{fill:#364046;}
	.st93{fill:#879DBC;}
	.st94{fill:#879CBA;}
	.st95{fill:#6C83A7;}
	.st96{fill:#7D92B0;}
	.st97{fill:#444F56;}
	.st98{fill:#2D373D;}
	.st99{fill:#394F66;}
	.st100{fill:#5E6E7E;}
	.st101{fill:#6E84A6;}
	.st102{fill:#7A8FB0;}
	.st103{fill:#758CAD;}
	.st104{fill:#849AB8;}
	.st105{fill:#889AB9;}
	.st106{fill:#7A8EAE;}
	.st107{fill:#9BAECB;}
	.st108{fill:#606A6F;}
	.st109{fill:#97ADCB;}
	.st110{fill:#A5B5D6;}
	.st111{fill:#9BACCA;}
	.st112{fill:#8AA0BD;}
	.st113{fill:#7488A7;}
	.st114{fill:#354E6E;}
	.st115{fill:#7C90AD;}
	.st116{fill:#6A7376;}
	.st117{fill:#7F93B3;}
	.st118{fill:#99ADCA;}
	.st119{fill:#A4B4D5;}
	.st120{fill:#61696F;}
	.st121{fill:#95ABCB;}
	.st122{fill:#AAC0E3;}
	.st123{fill:#98ACC9;}
	.st124{fill:#A6B7D7;}
	.st125{fill:#ACC3E7;}
	.st126{fill:#AEC6E8;}
	.st127{fill:#C6DEEF;}
	.st128{fill:#ABC3E8;}
	.st129{fill:#B0C9EC;}
	.st130{fill:#C2DBEF;}
	.st131{fill:#ABC4EB;}
	.st132{fill:#ACC2E6;}
	.st133{fill:#DAEEF0;}
	.st134{fill:#B7CDE8;}
	.st135{fill:#D9EEF0;}
	.st136{fill:#002BFF;}
</style>
<g class="st0">
	<path class="st1" d="M286,245.8l-1.4-4.1h1.1l0.8,2.8h0l0.8-2.8h1.1l-1.4,4.1v3h-1V245.8z"/>
</g>
<g class="st0">
	<path class="st1" d="M289.4,241.7h0.9l1.6,7.1h-1l-0.3-1.5h-1.4l-0.3,1.5h-1L289.4,241.7z M289.8,243.7L289.8,243.7l-0.5,2.6h1
		L289.8,243.7z"/>
</g>
<g class="st0">
	<path class="st1" d="M293.4,241.7h0.9l1.6,7.1h-1l-0.3-1.5h-1.4l-0.3,1.5h-1L293.4,241.7z M293.9,243.7L293.9,243.7l-0.5,2.6h1
		L293.9,243.7z"/>
	<path class="st1" d="M297.5,248.8h-0.9l-1.5-7.1h1.1l0.8,5h0l0.8-5h1.1L297.5,248.8z"/>
</g>
<g class="st0">
	<path class="st1" d="M300.5,241.7h0.8l1.6,7.1h-1l-0.3-1.5h-1.4l-0.3,1.5h-1L300.5,241.7z M300.9,243.7L300.9,243.7l-0.5,2.6h1
		L300.9,243.7z"/>
</g>
<g class="st0">
	<path class="st1" d="M304.5,241.7h0.8l1.6,7.1h-1l-0.3-1.5h-1.4l-0.3,1.5h-1L304.5,241.7z M305,243.7L305,243.7l-0.5,2.6h1
		L305,243.7z"/>
</g>
<g class="st0">
	<path class="st1" d="M307.7,245.8l-1.4-4.1h1.1l0.8,2.8h0l0.8-2.8h1.1l-1.4,4.1v3h-1V245.8z"/>
</g>
<g class="st0">
	<path class="st2" d="M210.6,559.9h1.5c0.3,0,0.6,0,0.8,0.2c0.2,0.1,0.4,0.2,0.6,0.4c0.1,0.2,0.3,0.4,0.3,0.6
		c0.1,0.2,0.1,0.4,0.1,0.7v0.3c0,0.2,0,0.4,0,0.5c0,0.1-0.1,0.2-0.1,0.4c-0.1,0.1-0.1,0.2-0.2,0.3c-0.1,0.1-0.2,0.1-0.3,0.2
		c0.2,0.1,0.4,0.3,0.5,0.5c0.1,0.2,0.2,0.5,0.2,0.9v0.4c0,0.6-0.2,1.1-0.5,1.4c-0.3,0.3-0.8,0.5-1.5,0.5h-1.4V559.9z M211.6,562.8
		h0.5c0.3,0,0.6-0.1,0.7-0.3s0.2-0.4,0.2-0.7c0-0.3-0.1-0.6-0.2-0.7s-0.4-0.2-0.7-0.2h-0.4V562.8z M211.6,566h0.4
		c0.2,0,0.4,0,0.5-0.1c0.1-0.1,0.2-0.1,0.3-0.2c0.1-0.1,0.1-0.2,0.1-0.4c0-0.1,0-0.3,0-0.5c0-0.2,0-0.3,0-0.5c0-0.1-0.1-0.2-0.1-0.3
		c-0.1-0.1-0.2-0.2-0.3-0.2c-0.1,0-0.3-0.1-0.4-0.1h-0.5V566z"/>
	<path class="st2" d="M217.8,567h-1v-0.5h0c-0.1,0.2-0.2,0.3-0.4,0.4c-0.1,0.1-0.3,0.2-0.6,0.2c-0.1,0-0.3,0-0.4-0.1
		c-0.1,0-0.2-0.1-0.3-0.2c-0.1-0.1-0.2-0.2-0.2-0.4c-0.1-0.2-0.1-0.3-0.1-0.6v-3.9h1v3.5c0,0.2,0,0.3,0.1,0.4
		c0.1,0.1,0.2,0.2,0.4,0.2c0.2,0,0.3-0.1,0.4-0.2s0.1-0.3,0.1-0.5v-3.4h1V567z"/>
	<path class="st2" d="M218.7,559.9h1v1h-1V559.9z M218.7,561.9h1v5.1h-1V561.9z"/>
	<path class="st2" d="M220.5,559.9h1v5.7c0,0.2,0,0.3,0.1,0.4c0.1,0.1,0.2,0.1,0.4,0.1v1c-0.2,0-0.4,0-0.6-0.1
		c-0.2,0-0.4-0.1-0.5-0.2c-0.1-0.1-0.2-0.2-0.3-0.4c-0.1-0.2-0.1-0.4-0.1-0.7V559.9z"/>
	<path class="st2" d="M224.4,566.5c-0.1,0.1-0.1,0.1-0.2,0.2c-0.1,0.1-0.1,0.1-0.2,0.2c-0.1,0-0.2,0.1-0.2,0.1c-0.1,0-0.2,0-0.3,0
		c-0.4,0-0.7-0.2-0.9-0.5c-0.1-0.1-0.1-0.3-0.1-0.4c0-0.2,0-0.4,0-0.7v-1.9c0-0.4,0-0.6,0-0.8c0-0.2,0.1-0.3,0.1-0.4
		c0.1-0.1,0.2-0.2,0.3-0.3s0.3-0.1,0.6-0.1c0.2,0,0.4,0,0.5,0.1s0.3,0.2,0.4,0.4h0v-2.5h1v7.1h-1V566.5z M223.4,565.4
		c0,0.2,0,0.4,0.1,0.5c0.1,0.1,0.2,0.2,0.4,0.2c0.2,0,0.3-0.1,0.4-0.2c0.1-0.1,0.1-0.3,0.1-0.5v-2c0-0.2,0-0.3-0.1-0.4
		c-0.1-0.1-0.2-0.2-0.4-0.2c-0.2,0-0.3,0.1-0.4,0.2c-0.1,0.1-0.1,0.3-0.1,0.4V565.4z"/>
	<path class="st2" d="M226.3,559.9h1v1h-1V559.9z M226.3,561.9h1v5.1h-1V561.9z"/>
	<path class="st2" d="M228.1,561.9h1v0.5h0c0.1-0.2,0.2-0.3,0.4-0.4c0.1-0.1,0.3-0.2,0.6-0.2c0.1,0,0.3,0,0.4,0.1
		c0.1,0,0.2,0.1,0.3,0.2c0.1,0.1,0.2,0.2,0.2,0.4s0.1,0.3,0.1,0.6v3.9h-1v-3.5c0-0.2,0-0.3-0.1-0.4c-0.1-0.1-0.2-0.2-0.4-0.2
		c-0.2,0-0.3,0.1-0.4,0.2s-0.1,0.3-0.1,0.5v3.4h-1V561.9z"/>
	<path class="st2" d="M233.1,567.6c0,0.1,0.1,0.2,0.1,0.3s0.2,0.2,0.4,0.2c0.2,0,0.3-0.1,0.4-0.2c0.1-0.1,0.1-0.2,0.1-0.4v-1h0
		c-0.1,0.2-0.2,0.3-0.4,0.4s-0.3,0.1-0.5,0.1c-0.4,0-0.7-0.2-0.9-0.5c-0.1-0.1-0.1-0.3-0.1-0.4c0-0.2,0-0.4,0-0.7v-1.9
		c0-0.4,0-0.6,0-0.8c0-0.2,0.1-0.3,0.1-0.4c0.1-0.1,0.2-0.2,0.3-0.3s0.3-0.1,0.6-0.1c0.1,0,0.2,0,0.3,0s0.2,0.1,0.2,0.1
		c0.1,0,0.1,0.1,0.2,0.2c0.1,0.1,0.1,0.1,0.2,0.2v-0.5h1v5.7c0,0.2,0,0.3-0.1,0.5c-0.1,0.2-0.1,0.3-0.3,0.5s-0.3,0.3-0.5,0.3
		c-0.2,0.1-0.4,0.1-0.7,0.1c-0.2,0-0.3,0-0.5-0.1s-0.3-0.1-0.5-0.2c-0.1-0.1-0.3-0.3-0.4-0.5s-0.2-0.4-0.2-0.7H233.1z M233.1,565.5
		c0,0.2,0,0.3,0.1,0.4c0.1,0.1,0.2,0.2,0.4,0.2c0.1,0,0.3-0.1,0.4-0.2c0.1-0.1,0.1-0.2,0.1-0.4v-2c0-0.2,0-0.3-0.1-0.5
		c-0.1-0.1-0.2-0.2-0.4-0.2c-0.2,0-0.3,0.1-0.4,0.2s-0.1,0.3-0.1,0.5V565.5z"/>
	<path class="st2" d="M237.8,560.4h1v1.5h0.6v0.8h-0.6v2.8c0,0.1,0,0.2,0,0.3c0,0.1,0.1,0.1,0.1,0.1c0,0,0.1,0.1,0.2,0.1
		c0.1,0,0.2,0,0.3,0v1H239c-0.2,0-0.4,0-0.6-0.1c-0.2-0.1-0.3-0.2-0.4-0.3s-0.2-0.2-0.2-0.4c0-0.1-0.1-0.3-0.1-0.4v-3.1h-0.5v-0.8
		h0.5V560.4z"/>
	<path class="st2" d="M239.8,559.9h1v2.5h0c0.1-0.2,0.2-0.3,0.4-0.4c0.1-0.1,0.3-0.2,0.6-0.2c0.1,0,0.3,0,0.4,0.1
		c0.1,0,0.2,0.1,0.3,0.2c0.1,0.1,0.2,0.2,0.2,0.4s0.1,0.3,0.1,0.6v3.9h-1v-3.5c0-0.2,0-0.3-0.1-0.4c-0.1-0.1-0.2-0.2-0.4-0.2
		c-0.2,0-0.3,0.1-0.4,0.2s-0.1,0.3-0.1,0.5v3.4h-1V559.9z"/>
	<path class="st2" d="M244.6,564.9v0.7c0,0.2,0,0.3,0.1,0.4c0.1,0.1,0.2,0.1,0.4,0.1c0.2,0,0.3-0.1,0.4-0.2s0.1-0.2,0.1-0.3h1
		c0,0.2,0,0.4-0.1,0.6c-0.1,0.2-0.2,0.3-0.3,0.5c-0.1,0.1-0.3,0.2-0.5,0.3c-0.2,0.1-0.4,0.1-0.6,0.1c-0.3,0-0.6-0.1-0.8-0.2
		c-0.2-0.1-0.4-0.3-0.5-0.5c-0.1-0.1-0.1-0.3-0.1-0.5c0-0.2,0-0.4,0-0.6v-1.7c0-0.2,0-0.4,0-0.6c0-0.2,0.1-0.3,0.1-0.5
		c0.1-0.2,0.3-0.4,0.5-0.5c0.2-0.1,0.5-0.2,0.8-0.2c0.2,0,0.4,0,0.6,0.1s0.4,0.2,0.5,0.3c0.1,0.1,0.2,0.3,0.3,0.5
		c0.1,0.2,0.1,0.4,0.1,0.6v1.4H244.6z M244.6,564.1h1v-0.6c0-0.2,0-0.3-0.1-0.4c-0.1-0.1-0.2-0.1-0.4-0.1s-0.3,0-0.4,0.1
		c-0.1,0.1-0.1,0.2-0.1,0.4V564.1z"/>
	<path class="st2" d="M249.4,562.7h-0.5v-0.8h0.5v-0.7c0-0.2,0-0.5,0.1-0.6c0.1-0.2,0.2-0.3,0.3-0.4c0.1-0.1,0.3-0.2,0.4-0.2
		s0.3-0.1,0.5-0.1h0.5v1h-0.5c-0.2,0-0.3,0.1-0.3,0.4v0.7h0.8v0.8h-0.8v4.3h-1V562.7z"/>
	<path class="st2" d="M251.5,559.9h1v1h-1V559.9z M251.5,561.9h1v5.1h-1V561.9z"/>
	<path class="st2" d="M253.4,561.9h1v0.5c0.2-0.2,0.4-0.3,0.6-0.4c0.2-0.1,0.4-0.2,0.7-0.2v1.1c-0.1,0-0.2-0.1-0.3-0.1
		c-0.1,0-0.2,0-0.3,0.1c-0.1,0-0.2,0.1-0.3,0.2s-0.2,0.2-0.3,0.3c-0.1,0.1-0.1,0.3-0.1,0.5v3h-1V561.9z"/>
	<path class="st2" d="M258,563.4c0-0.2-0.1-0.3-0.2-0.4s-0.2-0.1-0.4-0.1c-0.2,0-0.3,0.1-0.4,0.2c-0.1,0.1-0.1,0.2-0.1,0.4
		c0,0.1,0,0.2,0.1,0.3c0,0.1,0.2,0.2,0.4,0.2l0.6,0.2c0.4,0.1,0.6,0.3,0.8,0.6c0.1,0.3,0.2,0.5,0.2,0.8c0,0.2,0,0.4-0.1,0.6
		s-0.2,0.3-0.3,0.5c-0.1,0.1-0.3,0.2-0.5,0.3c-0.2,0.1-0.4,0.1-0.6,0.1c-0.2,0-0.4,0-0.6-0.1s-0.3-0.2-0.5-0.3s-0.2-0.3-0.3-0.5
		c-0.1-0.2-0.1-0.4-0.1-0.7h1c0,0.1,0.1,0.3,0.1,0.4c0.1,0.1,0.2,0.2,0.4,0.2c0.1,0,0.3,0,0.4-0.1s0.2-0.2,0.2-0.4
		c0-0.1,0-0.3-0.1-0.4c-0.1-0.1-0.2-0.2-0.4-0.3l-0.5-0.2c-0.3-0.1-0.6-0.3-0.8-0.5c-0.2-0.2-0.3-0.5-0.3-0.9c0-0.2,0-0.4,0.1-0.6
		s0.2-0.3,0.3-0.5s0.3-0.2,0.5-0.3c0.2-0.1,0.4-0.1,0.6-0.1s0.4,0,0.6,0.1c0.2,0.1,0.3,0.2,0.5,0.3c0.1,0.1,0.2,0.3,0.3,0.5
		c0.1,0.2,0.1,0.4,0.1,0.6H258z"/>
	<path class="st2" d="M259.7,560.4h1v1.5h0.6v0.8h-0.6v2.8c0,0.1,0,0.2,0,0.3c0,0.1,0.1,0.1,0.1,0.1c0,0,0.1,0.1,0.2,0.1
		c0.1,0,0.2,0,0.3,0v1h-0.4c-0.2,0-0.4,0-0.6-0.1c-0.2-0.1-0.3-0.2-0.4-0.3s-0.2-0.2-0.2-0.4c0-0.1-0.1-0.3-0.1-0.4v-3.1h-0.5v-0.8
		h0.5V560.4z"/>
	<path class="st2" d="M263.6,561.6c0-0.3,0.1-0.5,0.1-0.8c0.1-0.2,0.2-0.4,0.4-0.5c0.2-0.1,0.3-0.3,0.6-0.3c0.2-0.1,0.4-0.1,0.6-0.1
		s0.4,0,0.6,0.1c0.2,0.1,0.4,0.2,0.5,0.3s0.3,0.3,0.4,0.5s0.1,0.5,0.1,0.8v0.4h-1v-0.4c0-0.2-0.1-0.4-0.2-0.5
		c-0.1-0.1-0.3-0.2-0.5-0.2s-0.3,0.1-0.5,0.2c-0.1,0.1-0.2,0.3-0.2,0.5v3.8c0,0.2,0.1,0.4,0.2,0.5c0.1,0.1,0.3,0.2,0.5,0.2
		s0.3-0.1,0.5-0.2c0.1-0.1,0.2-0.3,0.2-0.5V564h-0.8v-0.9h1.8v2.2c0,0.3,0,0.5-0.1,0.8s-0.2,0.4-0.4,0.5s-0.3,0.3-0.5,0.3
		c-0.2,0.1-0.4,0.1-0.6,0.1s-0.4,0-0.6-0.1c-0.2-0.1-0.4-0.2-0.6-0.3c-0.2-0.1-0.3-0.3-0.4-0.5c-0.1-0.2-0.1-0.5-0.1-0.8V561.6z"/>
	<path class="st2" d="M267.8,559.9h1v5.7c0,0.2,0,0.3,0.1,0.4c0.1,0.1,0.2,0.1,0.4,0.1v1c-0.2,0-0.4,0-0.6-0.1
		c-0.2,0-0.4-0.1-0.5-0.2c-0.1-0.1-0.2-0.2-0.3-0.4c-0.1-0.2-0.1-0.4-0.1-0.7V559.9z"/>
	<path class="st2" d="M269.6,563.6c0-0.2,0-0.4,0-0.6c0-0.2,0.1-0.3,0.1-0.5c0.1-0.2,0.3-0.4,0.5-0.5c0.2-0.1,0.5-0.2,0.8-0.2
		c0.3,0,0.6,0.1,0.8,0.2c0.2,0.1,0.4,0.3,0.5,0.5c0.1,0.1,0.1,0.3,0.1,0.5c0,0.2,0,0.4,0,0.6v1.7c0,0.2,0,0.4,0,0.6
		c0,0.2-0.1,0.3-0.1,0.5c-0.1,0.2-0.3,0.4-0.5,0.5c-0.2,0.1-0.5,0.2-0.8,0.2c-0.3,0-0.6-0.1-0.8-0.2c-0.2-0.1-0.4-0.3-0.5-0.5
		c-0.1-0.1-0.1-0.3-0.1-0.5c0-0.2,0-0.4,0-0.6V563.6z M270.6,565.5c0,0.2,0,0.3,0.1,0.4c0.1,0.1,0.2,0.1,0.4,0.1s0.3,0,0.4-0.1
		c0.1-0.1,0.1-0.2,0.1-0.4v-2c0-0.2,0-0.3-0.1-0.4c-0.1-0.1-0.2-0.1-0.4-0.1s-0.3,0-0.4,0.1c-0.1,0.1-0.1,0.2-0.1,0.4V565.5z"/>
	<path class="st2" d="M273.4,559.9h1v2.5h0c0.1-0.2,0.2-0.3,0.4-0.4c0.2-0.1,0.3-0.1,0.5-0.1c0.2,0,0.4,0,0.6,0.1
		c0.1,0.1,0.2,0.2,0.3,0.3c0.1,0.1,0.1,0.2,0.1,0.4c0,0.2,0,0.4,0,0.8v1.9c0,0.3,0,0.5,0,0.7c0,0.2-0.1,0.3-0.1,0.4
		c-0.2,0.3-0.5,0.5-0.9,0.5c-0.3,0-0.4,0-0.6-0.1c-0.1-0.1-0.3-0.2-0.4-0.4v0.5h-1V559.9z M275.4,563.5c0-0.2,0-0.3-0.1-0.4
		c-0.1-0.1-0.2-0.2-0.4-0.2c-0.1,0-0.3,0.1-0.4,0.2s-0.1,0.2-0.1,0.4v2c0,0.2,0,0.3,0.1,0.5c0.1,0.1,0.2,0.2,0.4,0.2
		c0.2,0,0.3-0.1,0.4-0.2c0.1-0.1,0.1-0.3,0.1-0.5V563.5z"/>
	<path class="st2" d="M279.2,566.5L279.2,566.5c-0.2,0.2-0.3,0.3-0.4,0.4c-0.1,0.1-0.3,0.1-0.6,0.1c-0.1,0-0.2,0-0.4-0.1
		c-0.1,0-0.2-0.1-0.4-0.2s-0.2-0.2-0.3-0.4c-0.1-0.2-0.1-0.4-0.1-0.7c0-0.3,0-0.5,0.1-0.8c0-0.2,0.1-0.4,0.3-0.5
		c0.1-0.1,0.3-0.2,0.5-0.3c0.2-0.1,0.5-0.1,0.8-0.1c0.1,0,0.1,0,0.2,0c0.1,0,0.2,0,0.3,0v-0.5c0-0.2,0-0.3-0.1-0.4
		c-0.1-0.1-0.2-0.2-0.4-0.2c-0.1,0-0.3,0-0.4,0.1c-0.1,0.1-0.2,0.2-0.2,0.4h-1c0-0.5,0.2-0.8,0.5-1.1c0.1-0.1,0.3-0.2,0.5-0.3
		c0.2-0.1,0.4-0.1,0.6-0.1c0.2,0,0.4,0,0.6,0.1c0.2,0.1,0.3,0.2,0.5,0.3c0.1,0.1,0.2,0.3,0.3,0.5c0.1,0.2,0.1,0.4,0.1,0.7v3.5h-1
		V566.5z M279.2,564.8c-0.1,0-0.2,0-0.3,0c-0.2,0-0.4,0.1-0.6,0.2s-0.2,0.3-0.2,0.6c0,0.2,0,0.4,0.1,0.5c0.1,0.1,0.2,0.2,0.4,0.2
		c0.2,0,0.3-0.1,0.4-0.2s0.1-0.3,0.1-0.5V564.8z"/>
	<path class="st2" d="M280.9,559.9h1v5.7c0,0.2,0,0.3,0.1,0.4c0.1,0.1,0.2,0.1,0.4,0.1v1c-0.2,0-0.4,0-0.6-0.1
		c-0.2,0-0.4-0.1-0.5-0.2c-0.1-0.1-0.2-0.2-0.3-0.4c-0.1-0.2-0.1-0.4-0.1-0.7V559.9z"/>
	<path class="st2" d="M284.8,559.9h1v7.1h-1V559.9z"/>
	<path class="st2" d="M286.7,561.9h1v0.5h0c0.1-0.2,0.2-0.3,0.4-0.4c0.1-0.1,0.3-0.2,0.6-0.2c0.1,0,0.3,0,0.4,0.1
		c0.1,0,0.2,0.1,0.3,0.2c0.1,0.1,0.2,0.2,0.2,0.4s0.1,0.3,0.1,0.6v3.9h-1v-3.5c0-0.2,0-0.3-0.1-0.4c-0.1-0.1-0.2-0.2-0.4-0.2
		c-0.2,0-0.3,0.1-0.4,0.2s-0.1,0.3-0.1,0.5v3.4h-1V561.9z"/>
	<path class="st2" d="M290.6,560.4h1v1.5h0.6v0.8h-0.6v2.8c0,0.1,0,0.2,0,0.3c0,0.1,0.1,0.1,0.1,0.1c0,0,0.1,0.1,0.2,0.1
		c0.1,0,0.2,0,0.3,0v1h-0.4c-0.2,0-0.4,0-0.6-0.1c-0.2-0.1-0.3-0.2-0.4-0.3s-0.2-0.2-0.2-0.4c0-0.1-0.1-0.3-0.1-0.4v-3.1h-0.5v-0.8
		h0.5V560.4z"/>
	<path class="st2" d="M293.6,564.9v0.7c0,0.2,0,0.3,0.1,0.4c0.1,0.1,0.2,0.1,0.4,0.1c0.2,0,0.3-0.1,0.4-0.2s0.1-0.2,0.1-0.3h1
		c0,0.2,0,0.4-0.1,0.6c-0.1,0.2-0.2,0.3-0.3,0.5c-0.1,0.1-0.3,0.2-0.5,0.3c-0.2,0.1-0.4,0.1-0.6,0.1c-0.3,0-0.6-0.1-0.8-0.2
		c-0.2-0.1-0.4-0.3-0.5-0.5c-0.1-0.1-0.1-0.3-0.1-0.5c0-0.2,0-0.4,0-0.6v-1.7c0-0.2,0-0.4,0-0.6c0-0.2,0.1-0.3,0.1-0.5
		c0.1-0.2,0.3-0.4,0.5-0.5c0.2-0.1,0.5-0.2,0.8-0.2c0.2,0,0.4,0,0.6,0.1s0.4,0.2,0.5,0.3c0.1,0.1,0.2,0.3,0.3,0.5
		c0.1,0.2,0.1,0.4,0.1,0.6v1.4H293.6z M293.6,564.1h1v-0.6c0-0.2,0-0.3-0.1-0.4c-0.1-0.1-0.2-0.1-0.4-0.1s-0.3,0-0.4,0.1
		c-0.1,0.1-0.1,0.2-0.1,0.4V564.1z"/>
	<path class="st2" d="M296.4,561.9h1v0.5c0.2-0.2,0.4-0.3,0.6-0.4c0.2-0.1,0.4-0.2,0.7-0.2v1.1c-0.1,0-0.2-0.1-0.3-0.1
		c-0.1,0-0.2,0-0.3,0.1c-0.1,0-0.2,0.1-0.3,0.2s-0.2,0.2-0.3,0.3c-0.1,0.1-0.1,0.3-0.1,0.5v3h-1V561.9z"/>
	<path class="st2" d="M300.2,567.6c0,0.1,0.1,0.2,0.1,0.3s0.2,0.2,0.4,0.2c0.2,0,0.3-0.1,0.4-0.2c0.1-0.1,0.1-0.2,0.1-0.4v-1h0
		c-0.1,0.2-0.2,0.3-0.4,0.4c-0.2,0.1-0.3,0.1-0.5,0.1c-0.4,0-0.7-0.2-0.9-0.5c-0.1-0.1-0.1-0.3-0.1-0.4c0-0.2,0-0.4,0-0.7v-1.9
		c0-0.4,0-0.6,0-0.8c0-0.2,0.1-0.3,0.1-0.4c0.1-0.1,0.2-0.2,0.3-0.3s0.3-0.1,0.6-0.1c0.1,0,0.2,0,0.3,0s0.2,0.1,0.2,0.1
		c0.1,0,0.1,0.1,0.2,0.2c0.1,0.1,0.1,0.1,0.2,0.2v-0.5h1v5.7c0,0.2,0,0.3-0.1,0.5c-0.1,0.2-0.1,0.3-0.3,0.5
		c-0.1,0.1-0.3,0.3-0.5,0.3c-0.2,0.1-0.4,0.1-0.7,0.1c-0.2,0-0.3,0-0.5-0.1c-0.2,0-0.3-0.1-0.5-0.2c-0.1-0.1-0.3-0.3-0.4-0.5
		s-0.2-0.4-0.2-0.7H300.2z M300.2,565.5c0,0.2,0,0.3,0.1,0.4s0.2,0.2,0.4,0.2c0.1,0,0.3-0.1,0.4-0.2s0.1-0.2,0.1-0.4v-2
		c0-0.2,0-0.3-0.1-0.5c-0.1-0.1-0.2-0.2-0.4-0.2c-0.2,0-0.3,0.1-0.4,0.2s-0.1,0.3-0.1,0.5V565.5z"/>
	<path class="st2" d="M305,566.5L305,566.5c-0.2,0.2-0.3,0.3-0.4,0.4c-0.1,0.1-0.3,0.1-0.6,0.1c-0.1,0-0.2,0-0.4-0.1
		c-0.1,0-0.2-0.1-0.4-0.2c-0.1-0.1-0.2-0.2-0.3-0.4c-0.1-0.2-0.1-0.4-0.1-0.7c0-0.3,0-0.5,0.1-0.8s0.1-0.4,0.3-0.5s0.3-0.2,0.5-0.3
		c0.2-0.1,0.5-0.1,0.8-0.1c0.1,0,0.1,0,0.2,0s0.2,0,0.3,0v-0.5c0-0.2,0-0.3-0.1-0.4c-0.1-0.1-0.2-0.2-0.4-0.2c-0.1,0-0.3,0-0.4,0.1
		c-0.1,0.1-0.2,0.2-0.2,0.4h-1c0-0.5,0.2-0.8,0.5-1.1c0.1-0.1,0.3-0.2,0.5-0.3c0.2-0.1,0.4-0.1,0.6-0.1c0.2,0,0.4,0,0.6,0.1
		c0.2,0.1,0.3,0.2,0.5,0.3c0.1,0.1,0.2,0.3,0.3,0.5c0.1,0.2,0.1,0.4,0.1,0.7v3.5h-1V566.5z M305,564.8c-0.1,0-0.2,0-0.3,0
		c-0.2,0-0.4,0.1-0.6,0.2c-0.2,0.1-0.2,0.3-0.2,0.6c0,0.2,0,0.4,0.1,0.5c0.1,0.1,0.2,0.2,0.4,0.2c0.2,0,0.3-0.1,0.4-0.2
		s0.1-0.3,0.1-0.5V564.8z"/>
	<path class="st2" d="M306.7,559.9h1v5.7c0,0.2,0,0.3,0.1,0.4c0.1,0.1,0.2,0.1,0.4,0.1v1c-0.2,0-0.4,0-0.6-0.1
		c-0.2,0-0.4-0.1-0.5-0.2s-0.2-0.2-0.3-0.4s-0.1-0.4-0.1-0.7V559.9z"/>
	<path class="st2" d="M310.5,566.5L310.5,566.5c-0.2,0.2-0.3,0.3-0.4,0.4c-0.1,0.1-0.3,0.1-0.6,0.1c-0.1,0-0.2,0-0.4-0.1
		c-0.1,0-0.2-0.1-0.4-0.2c-0.1-0.1-0.2-0.2-0.3-0.4c-0.1-0.2-0.1-0.4-0.1-0.7c0-0.3,0-0.5,0.1-0.8c0-0.2,0.1-0.4,0.3-0.5
		c0.1-0.1,0.3-0.2,0.5-0.3c0.2-0.1,0.5-0.1,0.8-0.1c0.1,0,0.1,0,0.2,0c0.1,0,0.2,0,0.3,0v-0.5c0-0.2,0-0.3-0.1-0.4
		c-0.1-0.1-0.2-0.2-0.4-0.2c-0.1,0-0.3,0-0.4,0.1c-0.1,0.1-0.2,0.2-0.2,0.4h-1c0-0.5,0.2-0.8,0.5-1.1c0.1-0.1,0.3-0.2,0.5-0.3
		c0.2-0.1,0.4-0.1,0.6-0.1c0.2,0,0.4,0,0.6,0.1c0.2,0.1,0.3,0.2,0.5,0.3c0.1,0.1,0.2,0.3,0.3,0.5c0.1,0.2,0.1,0.4,0.1,0.7v3.5h-1
		V566.5z M310.5,564.8c-0.1,0-0.2,0-0.3,0c-0.2,0-0.4,0.1-0.6,0.2c-0.2,0.1-0.2,0.3-0.2,0.6c0,0.2,0,0.4,0.1,0.5
		c0.1,0.1,0.2,0.2,0.4,0.2c0.2,0,0.3-0.1,0.4-0.2s0.1-0.3,0.1-0.5V564.8z"/>
	<path class="st2" d="M313.4,565.5c0,0.2,0,0.3,0.1,0.4c0.1,0.1,0.2,0.1,0.4,0.1c0.2,0,0.3-0.1,0.4-0.2c0.1-0.1,0.1-0.2,0.1-0.3h1
		c0,0.2,0,0.4-0.1,0.6c-0.1,0.2-0.2,0.3-0.3,0.5c-0.1,0.1-0.3,0.2-0.5,0.3c-0.2,0.1-0.4,0.1-0.6,0.1c-0.3,0-0.6-0.1-0.8-0.2
		c-0.2-0.1-0.4-0.3-0.5-0.5c-0.1-0.1-0.1-0.3-0.1-0.5c0-0.2,0-0.4,0-0.6v-1.7c0-0.2,0-0.4,0-0.6c0-0.2,0.1-0.3,0.1-0.5
		c0.1-0.2,0.3-0.4,0.5-0.5c0.2-0.1,0.5-0.2,0.8-0.2c0.2,0,0.4,0,0.6,0.1c0.2,0.1,0.4,0.2,0.5,0.3s0.2,0.3,0.3,0.5
		c0.1,0.2,0.1,0.4,0.1,0.7h-1c0-0.2,0-0.4-0.1-0.5s-0.2-0.1-0.4-0.1s-0.3,0-0.4,0.1c-0.1,0.1-0.1,0.2-0.1,0.4V565.5z"/>
	<path class="st2" d="M316,560.4h1v1.5h0.6v0.8H317v2.8c0,0.1,0,0.2,0,0.3c0,0.1,0.1,0.1,0.1,0.1c0,0,0.1,0.1,0.2,0.1s0.2,0,0.3,0v1
		h-0.4c-0.2,0-0.4,0-0.6-0.1c-0.2-0.1-0.3-0.2-0.4-0.3c-0.1-0.1-0.2-0.2-0.2-0.4c0-0.1-0.1-0.3-0.1-0.4v-3.1h-0.5v-0.8h0.5V560.4z"
		/>
	<path class="st2" d="M318,559.9h1v1h-1V559.9z M318,561.9h1v5.1h-1V561.9z"/>
	<path class="st2" d="M321,565.5c0,0.2,0,0.3,0.1,0.4c0.1,0.1,0.2,0.1,0.4,0.1c0.2,0,0.3-0.1,0.4-0.2c0.1-0.1,0.1-0.2,0.1-0.3h1
		c0,0.2,0,0.4-0.1,0.6c-0.1,0.2-0.2,0.3-0.3,0.5c-0.1,0.1-0.3,0.2-0.5,0.3c-0.2,0.1-0.4,0.1-0.6,0.1c-0.3,0-0.6-0.1-0.8-0.2
		c-0.2-0.1-0.4-0.3-0.5-0.5c-0.1-0.1-0.1-0.3-0.1-0.5c0-0.2,0-0.4,0-0.6v-1.7c0-0.2,0-0.4,0-0.6c0-0.2,0.1-0.3,0.1-0.5
		c0.1-0.2,0.3-0.4,0.5-0.5c0.2-0.1,0.5-0.2,0.8-0.2c0.2,0,0.4,0,0.6,0.1c0.2,0.1,0.4,0.2,0.5,0.3s0.2,0.3,0.3,0.5
		c0.1,0.2,0.1,0.4,0.1,0.7h-1c0-0.2,0-0.4-0.1-0.5s-0.2-0.1-0.4-0.1s-0.3,0-0.4,0.1c-0.1,0.1-0.1,0.2-0.1,0.4V565.5z"/>
	<path class="st2" d="M325.5,559.9h1v3h1.3v-3h1v7.1h-1v-3.2h-1.3v3.2h-1V559.9z"/>
	<path class="st2" d="M331.6,566.5L331.6,566.5c-0.2,0.2-0.3,0.3-0.4,0.4c-0.1,0.1-0.3,0.1-0.6,0.1c-0.1,0-0.2,0-0.4-0.1
		c-0.1,0-0.2-0.1-0.4-0.2c-0.1-0.1-0.2-0.2-0.3-0.4c-0.1-0.2-0.1-0.4-0.1-0.7c0-0.3,0-0.5,0.1-0.8c0-0.2,0.1-0.4,0.3-0.5
		c0.1-0.1,0.3-0.2,0.5-0.3c0.2-0.1,0.5-0.1,0.8-0.1c0.1,0,0.1,0,0.2,0c0.1,0,0.2,0,0.3,0v-0.5c0-0.2,0-0.3-0.1-0.4
		c-0.1-0.1-0.2-0.2-0.4-0.2c-0.1,0-0.3,0-0.4,0.1c-0.1,0.1-0.2,0.2-0.2,0.4h-1c0-0.5,0.2-0.8,0.5-1.1c0.1-0.1,0.3-0.2,0.5-0.3
		c0.2-0.1,0.4-0.1,0.6-0.1c0.2,0,0.4,0,0.6,0.1c0.2,0.1,0.3,0.2,0.5,0.3c0.1,0.1,0.2,0.3,0.3,0.5c0.1,0.2,0.1,0.4,0.1,0.7v3.5h-1
		V566.5z M331.6,564.8c-0.1,0-0.2,0-0.3,0c-0.2,0-0.4,0.1-0.6,0.2c-0.2,0.1-0.2,0.3-0.2,0.6c0,0.2,0,0.4,0.1,0.5
		c0.1,0.1,0.2,0.2,0.4,0.2c0.2,0,0.3-0.1,0.4-0.2s0.1-0.3,0.1-0.5V564.8z"/>
	<path class="st2" d="M333.4,561.9h1v0.5h0c0.1-0.2,0.2-0.3,0.4-0.4s0.3-0.2,0.6-0.2c0.1,0,0.3,0,0.4,0.1c0.1,0,0.2,0.1,0.3,0.2
		c0.1,0.1,0.2,0.2,0.2,0.4c0.1,0.2,0.1,0.3,0.1,0.6v3.9h-1v-3.5c0-0.2,0-0.3-0.1-0.4c-0.1-0.1-0.2-0.2-0.4-0.2
		c-0.2,0-0.3,0.1-0.4,0.2s-0.1,0.3-0.1,0.5v3.4h-1V561.9z"/>
	<path class="st2" d="M339.3,566.5c-0.1,0.1-0.1,0.1-0.2,0.2s-0.1,0.1-0.2,0.2s-0.2,0.1-0.2,0.1c-0.1,0-0.2,0-0.3,0
		c-0.4,0-0.7-0.2-0.9-0.5c-0.1-0.1-0.1-0.3-0.1-0.4c0-0.2,0-0.4,0-0.7v-1.9c0-0.4,0-0.6,0-0.8c0-0.2,0.1-0.3,0.1-0.4
		c0.1-0.1,0.2-0.2,0.3-0.3s0.3-0.1,0.6-0.1c0.2,0,0.4,0,0.5,0.1c0.2,0.1,0.3,0.2,0.4,0.4h0v-2.5h1v7.1h-1V566.5z M338.3,565.4
		c0,0.2,0,0.4,0.1,0.5c0.1,0.1,0.2,0.2,0.4,0.2c0.2,0,0.3-0.1,0.4-0.2c0.1-0.1,0.1-0.3,0.1-0.5v-2c0-0.2,0-0.3-0.1-0.4
		s-0.2-0.2-0.4-0.2c-0.2,0-0.3,0.1-0.4,0.2s-0.1,0.3-0.1,0.4V565.4z"/>
	<path class="st2" d="M344.5,561.9h-1v-0.2c0-0.2-0.1-0.4-0.2-0.6c-0.1-0.2-0.3-0.3-0.6-0.3c-0.1,0-0.3,0-0.3,0.1
		c-0.1,0.1-0.2,0.1-0.2,0.2s-0.1,0.2-0.1,0.3c0,0.1,0,0.2,0,0.3c0,0.1,0,0.3,0,0.4s0,0.2,0.1,0.2c0,0.1,0.1,0.1,0.2,0.2
		c0.1,0.1,0.2,0.1,0.3,0.2l0.8,0.3c0.2,0.1,0.4,0.2,0.5,0.3c0.1,0.1,0.2,0.3,0.3,0.4c0.1,0.2,0.1,0.3,0.2,0.5c0,0.2,0,0.4,0,0.7
		c0,0.3,0,0.6-0.1,0.8c-0.1,0.3-0.2,0.5-0.3,0.7s-0.3,0.3-0.5,0.4c-0.2,0.1-0.5,0.2-0.8,0.2c-0.2,0-0.5,0-0.7-0.1
		c-0.2-0.1-0.4-0.2-0.5-0.4c-0.2-0.2-0.3-0.3-0.4-0.5s-0.1-0.4-0.1-0.7V565h1v0.3c0,0.2,0.1,0.4,0.2,0.5c0.1,0.1,0.3,0.2,0.6,0.2
		c0.2,0,0.3,0,0.4-0.1s0.2-0.1,0.2-0.2s0.1-0.2,0.1-0.3c0-0.1,0-0.3,0-0.4c0-0.2,0-0.3,0-0.5c0-0.1,0-0.2-0.1-0.3
		c0-0.1-0.1-0.1-0.2-0.2c-0.1,0-0.2-0.1-0.3-0.1l-0.7-0.3c-0.4-0.2-0.7-0.4-0.9-0.7c-0.2-0.3-0.2-0.7-0.2-1.1c0-0.3,0-0.5,0.1-0.8
		s0.2-0.4,0.3-0.6c0.1-0.2,0.3-0.3,0.5-0.4c0.2-0.1,0.5-0.2,0.8-0.2c0.3,0,0.5,0,0.7,0.1c0.2,0.1,0.4,0.2,0.5,0.4
		c0.1,0.2,0.3,0.3,0.3,0.5c0.1,0.2,0.1,0.4,0.1,0.6V561.9z"/>
	<path class="st2" d="M345.2,559.9h1v2.5h0c0.1-0.2,0.2-0.3,0.4-0.4s0.3-0.2,0.6-0.2c0.1,0,0.3,0,0.4,0.1c0.1,0,0.2,0.1,0.3,0.2
		c0.1,0.1,0.2,0.2,0.2,0.4c0.1,0.2,0.1,0.3,0.1,0.6v3.9h-1v-3.5c0-0.2,0-0.3-0.1-0.4c-0.1-0.1-0.2-0.2-0.4-0.2
		c-0.2,0-0.3,0.1-0.4,0.2s-0.1,0.3-0.1,0.5v3.4h-1V559.9z"/>
	<path class="st2" d="M351.1,566.5L351.1,566.5c-0.2,0.2-0.3,0.3-0.4,0.4c-0.1,0.1-0.3,0.1-0.6,0.1c-0.1,0-0.2,0-0.4-0.1
		c-0.1,0-0.2-0.1-0.4-0.2c-0.1-0.1-0.2-0.2-0.3-0.4c-0.1-0.2-0.1-0.4-0.1-0.7c0-0.3,0-0.5,0.1-0.8c0-0.2,0.1-0.4,0.3-0.5
		c0.1-0.1,0.3-0.2,0.5-0.3c0.2-0.1,0.5-0.1,0.8-0.1c0.1,0,0.1,0,0.2,0c0.1,0,0.2,0,0.3,0v-0.5c0-0.2,0-0.3-0.1-0.4
		c-0.1-0.1-0.2-0.2-0.4-0.2c-0.1,0-0.3,0-0.4,0.1c-0.1,0.1-0.2,0.2-0.2,0.4h-1c0-0.5,0.2-0.8,0.5-1.1c0.1-0.1,0.3-0.2,0.5-0.3
		c0.2-0.1,0.4-0.1,0.6-0.1c0.2,0,0.4,0,0.6,0.1c0.2,0.1,0.3,0.2,0.5,0.3c0.1,0.1,0.2,0.3,0.3,0.5c0.1,0.2,0.1,0.4,0.1,0.7v3.5h-1
		V566.5z M351.1,564.8c-0.1,0-0.2,0-0.3,0c-0.2,0-0.4,0.1-0.6,0.2c-0.2,0.1-0.2,0.3-0.2,0.6c0,0.2,0,0.4,0.1,0.5
		c0.1,0.1,0.2,0.2,0.4,0.2c0.2,0,0.3-0.1,0.4-0.2s0.1-0.3,0.1-0.5V564.8z"/>
</g>
<g class="st0">
	<path class="st2" d="M352.8,559.9h1v4.3h0l1.2-2.2h1l-1.2,2.1l1.5,3h-1.1l-0.9-2.2l-0.5,0.8v1.4h-1V559.9z"/>
</g>
<g class="st0">
	<path class="st2" d="M357.5,564.9v0.7c0,0.2,0,0.3,0.1,0.4c0.1,0.1,0.2,0.1,0.4,0.1c0.2,0,0.3-0.1,0.4-0.2s0.1-0.2,0.1-0.3h1
		c0,0.2,0,0.4-0.1,0.6s-0.2,0.3-0.3,0.5c-0.1,0.1-0.3,0.2-0.5,0.3c-0.2,0.1-0.4,0.1-0.6,0.1c-0.3,0-0.6-0.1-0.8-0.2
		c-0.2-0.1-0.4-0.3-0.5-0.5c-0.1-0.1-0.1-0.3-0.1-0.5c0-0.2,0-0.4,0-0.6v-1.7c0-0.2,0-0.4,0-0.6c0-0.2,0.1-0.3,0.1-0.5
		c0.1-0.2,0.3-0.4,0.5-0.5c0.2-0.1,0.5-0.2,0.8-0.2c0.2,0,0.4,0,0.6,0.1c0.2,0.1,0.4,0.2,0.5,0.3s0.2,0.3,0.3,0.5s0.1,0.4,0.1,0.6
		v1.4H357.5z M357.5,564.1h1v-0.6c0-0.2,0-0.3-0.1-0.4s-0.2-0.1-0.4-0.1s-0.3,0-0.4,0.1c-0.1,0.1-0.1,0.2-0.1,0.4V564.1z"/>
	<path class="st2" d="M360.3,563.7h1v1h-1V563.7z M360.3,566h1v1h-1V566z"/>
	<path class="st2" d="M366,559.9h3v1h-2v2.1h1.8v1H367v2.1h2v1h-3V559.9z"/>
	<path class="st2" d="M370.8,559.9h0.9l1.6,7.1h-1l-0.3-1.5h-1.4l-0.3,1.5h-1L370.8,559.9z M371.2,561.9L371.2,561.9l-0.5,2.6h1
		L371.2,561.9z"/>
</g>
<g class="st0">
	<path class="st2" d="M373.7,559.9h1.6c1.2,0,1.8,0.7,1.8,2.1c0,0.4-0.1,0.8-0.2,1.1c-0.1,0.3-0.4,0.5-0.7,0.7l1.1,3.2h-1.1l-1-3
		h-0.6v3h-1V559.9z M374.8,563.1h0.6c0.2,0,0.3,0,0.4-0.1c0.1-0.1,0.2-0.1,0.2-0.2c0.1-0.1,0.1-0.2,0.1-0.3s0-0.3,0-0.5
		c0-0.2,0-0.3,0-0.5c0-0.1-0.1-0.3-0.1-0.3s-0.2-0.2-0.3-0.2s-0.3-0.1-0.5-0.1h-0.5V563.1z"/>
</g>
<g class="st0">
	<path class="st2" d="M378.5,560.8h-1.2v-1h3.4v1h-1.2v6.2h-1V560.8z"/>
	<path class="st2" d="M381.1,559.9h1v3h1.3v-3h1v7.1h-1v-3.2h-1.3v3.2h-1V559.9z"/>
</g>
<g>
	<defs>
		<rect id="SVGID_1_" x="53.8" y="54.4" width="487.5" height="730.5"/>
	</defs>
	<clipPath id="SVGID_00000022526334948998872370000002708889022681284514_">
		<use xlink:href="#SVGID_1_"  style="overflow:visible;"/>
	</clipPath>
	<g style="clip-path:url(#SVGID_00000022526334948998872370000002708889022681284514_);">
		<line class="st4" x1="210.1" y1="568" x2="384.9" y2="568"/>
		<line class="st5" x1="138.8" y1="771.8" x2="456.2" y2="771.8"/>
	</g>
</g>
<g>
	<defs>
		<rect id="SVGID_00000179643307174738971610000018237401571076135064_" x="257.3" y="160.5" width="80.4" height="67.9"/>
	</defs>
	<clipPath id="SVGID_00000014603517795677670860000013560802711843131280_">
		<use xlink:href="#SVGID_00000179643307174738971610000018237401571076135064_"  style="overflow:visible;"/>
	</clipPath>
	<g style="clip-path:url(#SVGID_00000014603517795677670860000013560802711843131280_);">
		<g>
			<defs>
				<rect id="SVGID_00000079469760016694085530000001049158374862658214_" x="258.3" y="161.5" width="78.4" height="65.9"/>
			</defs>
			<clipPath id="SVGID_00000168812669547138747780000007019286257299292859_">
				<use xlink:href="#SVGID_00000079469760016694085530000001049158374862658214_"  style="overflow:visible;"/>
			</clipPath>
			<g style="clip-path:url(#SVGID_00000168812669547138747780000007019286257299292859_);">
				<g>
					<path class="st8" d="M288.2,187.9c-0.9-0.3-1.6-0.9-2.3-1.4c-3.5-2.2-11.7-7.6-12.4-8c-0.1-0.1-0.2-0.1-0.3-0.4
						c0.8,0.3,1.5,0.8,2.3,1.1c1.1,0.5,2.1,1.1,3.1,1.7l9.9,5.1l0.1,0.1v0.3c-0.2,0.3-0.4,0.7-0.2,1.1
						C288.5,187.8,288.4,187.9,288.2,187.9L288.2,187.9L288.2,187.9z"/>
					<path class="st8" d="M297.4,218.1v1.8c-0.2-0.3-0.1-0.7-0.1-1.1c-0.1-0.2,0-0.4-0.1-0.6v-1.4c-0.1-0.3,0-0.6-0.1-0.9v-1.6
						c-0.1-0.2,0-0.4-0.1-0.6V212c-0.1-0.2,0-0.4-0.1-0.6V210c-0.1-0.3,0-0.6-0.1-0.9v-1.6c-0.1-0.2,0-0.4-0.1-0.6v-1.6
						c-0.1-0.2,0-0.4-0.1-0.6v-1.6c-0.1-0.2,0-0.4-0.1-0.6v-0.8c0.2-0.1,0.3,0,0.4,0.1c0.4,0.4,0.7,0.4,1-0.1
						c0.1-0.1,0.2-0.3,0.4-0.2v1.1c-0.1,0.2,0,0.4-0.1,0.6v2.1c-0.1,0.2,0,0.5-0.1,0.7v2.2c-0.1,0.2,0,0.5-0.1,0.7v2.3
						c-0.1,0.4,0,0.8-0.1,1.1v1.8c-0.1,0.3,0,0.6-0.1,0.9v1.9C297.4,217.3,297.5,217.6,297.4,218.1L297.4,218.1L297.4,218.1z"/>
					<path class="st9" d="M295,195.2c0-0.5-0.1-1.1-0.1-1.6c0-0.4-0.3-0.6-0.5-0.8c-0.8-0.6-1.7-1.1-2.5-1.7c-0.8-0.5-1.4-1.2-1.8-2
						c0.2-0.3,0.4,0,0.6,0l0.2,0.2c0,0.7,0.7,0.9,1.2,1.3c0.2,0.1,0.4,0.3,0.6,0.5c0.3,0.3,0.6,0.5,0.9,0.7c0.2,0.2,0.5,0.4,0.7,0.5
						c0.9,0.7,1.4,2.2,1,3.3C295,195.8,295.2,195.3,295,195.2L295,195.2L295,195.2z"/>
					<path class="st10" d="M288.2,187.9c-0.4-0.8-0.2-1.2,0.5-1.7c0.5,0.2,1,0.4,1.5,0.7c0,0.2-0.1,0.3-0.2,0.3
						c-0.5,0-0.8,0.4-0.7,0.9c0,0.2,0.2,0.3,0,0.5C288.9,188.3,288.5,188.1,288.2,187.9L288.2,187.9z"/>
					<path class="st11" d="M290.6,189.4c-0.2,0-0.3-0.3-0.5-0.2l-0.2-0.2c-0.3-0.3-0.7-0.6-0.6-1.2c0.2-0.8,0.5-0.9,1.5-0.7
						c0.1,0,0.3,0.1,0.5,0.1c0.3,0.2,0.7,0,0.8,0.4c0,0.3-0.4,0.2-0.5,0.3c-0.5,0.2-0.8,0.5-0.7,1
						C290.8,189.2,290.8,189.4,290.6,189.4L290.6,189.4z"/>
					<path class="st12" d="M291.8,187.8c-0.1-0.3-0.5-0.3-0.6-0.5c1.2-0.1,2.3,0.4,3.4,0.9c0.8,0.3,1.5,0.9,2.4,1.1
						c0.4,0,0.8-0.2,1.1-0.4c0.1-0.1,0.3-0.1,0.4,0c0.1,0.3-0.1,0.3-0.3,0.4c-0.4,0.2-0.9,0.4-1.4,0.4c-0.4,0-0.7-0.3-1.1-0.4
						c-0.5-0.2-0.9-0.5-1.4-0.6c-0.3,0-0.5-0.1-0.7-0.3C293.1,188,292.5,187.6,291.8,187.8C291.9,187.8,291.8,187.8,291.8,187.8
						L291.8,187.8z"/>
					<path class="st10" d="M298.1,201.6l-0.3,0.6c-0.1,0.3-0.3,0.4-0.5,0.4s-0.4-0.1-0.5-0.3s-0.3-0.4-0.4-0.6
						c0-0.1-0.1-0.2-0.1-0.4c0.2-0.2,0.4-0.2,0.6-0.2c0.5,0.3,0.9-0.1,1.3-0.2C298.1,201.2,298.1,201.4,298.1,201.6z"/>
					<path class="st13" d="M290.7,187.1c-1.2,0-1.5,0.6-0.9,1.8c-0.3,0-0.4-0.3-0.6-0.4c-0.1-0.3-0.3-0.6-0.2-1
						c0.1-0.7,0.2-0.9,0.9-0.7h0.3C290.4,187,290.6,187.1,290.7,187.1L290.7,187.1z"/>
					<path class="st14" d="M295,195.2c0.1,0.1,0.2,0.2,0.2,0.4c0.3,0.2,0.3,0.7,0.4,1v0.3c0,0.7,0.1,1.4,0.6,2
						c0,0.3,0.2,0.6-0.2,0.8c-0.4-0.3-0.6-0.7-0.7-1.2C295.2,197.6,295.1,196.4,295,195.2z"/>
					<path class="st15" d="M298.1,201.1c-0.3,0.5-0.7,0.8-1.3,0.6c-0.2-0.2-0.5-0.3-0.6-0.6c0-0.1,0-0.2,0.1-0.4
						c-0.1-0.2,0-0.4,0-0.6c0.1-0.2,0.3-0.1,0.4,0c0.4,0.6,0.7,0.6,1.2,0.1c0.1-0.1,0.2-0.1,0.3,0c0.1,0.2,0.1,0.5,0,0.7
						C298.1,200.9,298.1,201,298.1,201.1z"/>
					<path class="st16" d="M296.5,200.2l-0.2-0.2c-0.1,0-0.1-0.1-0.1-0.1v-0.1c0-0.3,0.1-0.6-0.1-0.9c0-0.1-0.1-0.1,0-0.2
						s0.2-0.1,0.3-0.1c0.2,0.5,0.7,0.9,0.5,1.6C296.7,200.4,296.6,200.4,296.5,200.2L296.5,200.2z"/>
					<path class="st17" d="M296.2,201.1c0.2,0.1,0.5,0.4,0.6,0.6c-0.2,0-0.4-0.2-0.6-0.2V201.1L296.2,201.1z"/>
					<path class="st18" d="M297,215.9c0.1,0.3,0.1,0.6,0.1,0.9C297,216.4,297,216.1,297,215.9z"/>
					<path class="st19" d="M296.6,209.1c0.1,0.3,0.1,0.6,0.1,0.9C296.6,209.7,296.6,209.4,296.6,209.1z"/>
					<path class="st17" d="M296.2,199.9l0.1,0.1v0.6C296.1,200.5,296.2,200.2,296.2,199.9L296.2,199.9z"/>
					<path class="st19" d="M296.4,204.8c0.1,0.2,0.1,0.4,0.1,0.6C296.4,205.2,296.4,205,296.4,204.8z"/>
					<path class="st20" d="M296.3,202.6c0.1,0.2,0.1,0.4,0.1,0.6C296.3,203,296.3,202.8,296.3,202.6z"/>
					<path class="st21" d="M296.8,211.4c0.1,0.2,0.1,0.4,0.1,0.6C296.7,211.9,296.8,211.7,296.8,211.4z"/>
					<path class="st21" d="M296.9,213.6c0.1,0.2,0.1,0.4,0.1,0.6C296.9,214.1,296.9,213.9,296.9,213.6z"/>
					<path class="st22" d="M297.1,218.1c0.1,0.2,0.1,0.4,0.1,0.6C297.1,218.6,297.1,218.4,297.1,218.1z"/>
					<path class="st21" d="M296.5,206.9c0.1,0.2,0.1,0.4,0.1,0.6C296.5,207.4,296.5,207.2,296.5,206.9z"/>
					<path class="st8" d="M304.2,186.6c1.9-0.9,11.7-5.8,14.6-7.3c0.5-0.2,0.8-0.6,1.5-0.7c-0.4,0.5-0.8,0.7-1.2,0.9
						c-3.5,2.3-7.1,4.4-10.7,6.8c-1,0.7-2.1,1.3-3.1,2c-0.5-0.4,0.2-0.5,0.2-0.8c0.1-0.1-0.1-0.1,0-0.1v0.1l-0.2,0.2
						c-0.4-0.2-0.8-0.3-1-0.7C304.2,186.8,304.1,186.7,304.2,186.6L304.2,186.6z"/>
					<path class="st23" d="M303.7,189.4c-0.3,0.7-0.7,1.2-1.2,1.6c-0.8,0.6-1.6,1.2-2.5,1.7c-0.4,0.3-0.6,0.6-0.6,1.1
						s-0.1,1-0.1,1.6c-0.1,0.1,0,0.3-0.1,0.4c0,0.2-0.1,0.3-0.3,0.3c-0.1-0.1-0.1-0.2-0.1-0.3c0-0.8,0.2-1.6,0.2-2.4
						c0-0.4,0.3-0.8,0.6-1c0.3-0.3,0.7-0.4,0.9-0.7c0.1-0.1,0.2-0.1,0.3-0.2c0.3-0.1,0.6-0.4,0.8-0.7c0.4-0.4,1.1-0.7,1.4-1.3
						C303.1,189.5,303.3,189.2,303.7,189.4L303.7,189.4z"/>
					<path class="st11" d="M303.7,189.4c-0.2,0.1-0.5,0.1-0.6,0.4c0,0.1-0.1,0.1-0.1,0.1c-0.2-0.1-0.2-0.2-0.1-0.4
						c0.3-0.7,0-1.2-0.7-1.3c-0.2,0-0.3-0.1-0.3-0.3c0-0.1,0-0.1,0.1-0.2c0.2-0.2,0.6-0.1,0.9-0.3c0.3,0,0.4-0.1,0.6-0.3
						c0.5,0.2,1.1,0.2,1.2,0.9c0.1,0.6-0.4,0.7-0.6,1C303.8,189.2,303.7,189.3,303.7,189.4L303.7,189.4L303.7,189.4z"/>
					<path class="st24" d="M303.9,189.1c0.1-0.1,0.2-0.2,0.2-0.3c0.2-0.4,0.3-0.7-0.1-1c-0.3-0.2-0.5-0.4-0.7-0.6l0.6-0.3
						c0.1,0.1,0.2,0,0.2,0c0.4,0.1,0.8,0.2,1,0.6c0,0.3-0.1,0.6,0,0.9C304.7,188.6,304.4,188.9,303.9,189.1L303.9,189.1z"/>
					<path class="st11" d="M296.5,200.2l0.1-0.1c0.5-0.5,1.2-0.8,1.4-1.6c0-0.1,0.2-0.1,0.4,0c0.1,0.1,0,0.3,0,0.5v0.2l-0.3,0.6v0.4
						c-0.2,0.2-0.2,0.6-0.5,0.7C296.9,201.2,296.6,200.9,296.5,200.2L296.5,200.2z"/>
					<path class="st14" d="M298.2,199.1V199c0.2-0.7,0.3-1.3,0.3-2v-0.7c0-0.2,0.1-0.3,0.3-0.3c0.2-0.1,0.2-0.4,0.4-0.6
						c0,1-0.1,2-0.3,3c-0.1,0.4-0.3,0.9-0.6,1.2C298.1,199.5,298.2,199.3,298.2,199.1L298.2,199.1z"/>
					<path class="st23" d="M302.7,187.4c-0.2,0.3-0.5,0.3-0.7,0.4c-0.7,0.4-1.5,0.4-2.1,0.9c-0.1,0-0.1,0.1-0.2,0.1
						c-0.2,0.1-0.4,0.1-0.6,0.2h-0.2c-0.1,0-0.2-0.1-0.3-0.2h-0.4C299.5,188.1,301,187.4,302.7,187.4L302.7,187.4L302.7,187.4z"/>
					<path class="st25" d="M305.1,188.4c-0.2-0.2-0.4-0.3-0.4-0.6s0.1-0.4,0.4-0.3c0.1-0.2,0.1-0.5,0-0.7c0.6,0.4,0.6,0.8,0.1,1.6
						C305.2,188.2,305.2,188.4,305.1,188.4z"/>
					<path class="st26" d="M297.6,212.4c0-0.4-0.1-0.8,0.1-1.1C297.7,211.6,297.8,212,297.6,212.4z"/>
					<path class="st27" d="M297.4,218.1c0-0.3-0.1-0.7,0.1-1C297.5,217.4,297.5,217.7,297.4,218.1z"/>
					<path class="st28" d="M297.5,215.1c0-0.3-0.1-0.6,0.1-0.9C297.6,214.6,297.6,214.9,297.5,215.1z"/>
					<path class="st29" d="M297.8,209.1c0-0.2,0-0.5,0.1-0.7C297.9,208.6,297.9,208.8,297.8,209.1z"/>
					<path class="st30" d="M298.1,200.9v-0.7C298.3,200.4,298.3,200.7,298.1,200.9z"/>
					<path class="st8" d="M304.2,186.8c-0.1,0.1,0,0.2-0.2,0.2v-0.2H304.2z"/>
					<path class="st29" d="M297.9,206.1c0-0.2,0-0.5,0.1-0.7C298,205.6,298,205.8,297.9,206.1z"/>
					<path class="st31" d="M298,203.4c0-0.2,0-0.4,0.1-0.6C298.1,202.9,298.1,203.1,298,203.4z"/>
					<path class="st32" d="M298.2,199.1v0.5l-0.1,0.1C298.1,199.6,298.1,199.4,298.2,199.1z"/>
					<path class="st33" d="M291.8,187.8h0.1c0.2,0,0.4,0,0.5,0.2c0,0.1,0,0.2-0.1,0.3c-0.5,0.3-1.1,0.6-0.9,1.4
						c0,0.2,0.1,0.3-0.1,0.5h-0.2c-0.2-0.1-0.4-0.3-0.5-0.5l-0.1-0.1c0-0.1,0-0.3-0.1-0.3c-0.3-0.3-0.6-0.7,0.1-0.9
						c0-1,0.6-0.4,1-0.4C291.6,187.8,291.7,187.8,291.8,187.8L291.8,187.8z"/>
					<path class="st34" d="M295.5,196.6c-0.1-0.3-0.3-0.6-0.2-1c0-0.7-0.1-1.3-0.1-2c0-0.4-0.2-0.7-0.6-0.9
						c-0.4-0.3-0.8-0.5-1.1-0.9v-0.1c0.1-0.1,0.2-0.1,0.3-0.1c0.3,0.2,0.6,0.4,1,0.6c0.6,0.4,0.9,0.9,0.9,1.6c0,0.4,0,0.8,0.1,1.1
						v1.2C295.7,196.5,295.7,196.6,295.5,196.6L295.5,196.6z"/>
					<path class="st35" d="M291.2,189.9h0.1c0.2-0.2,0.4,0.1,0.6,0.1h0.2c0.1,0.1,0.2,0.3,0.3,0.4c0.2,0.2,0.4,0.4,0.5,0.7
						c0,0.1,0,0.1-0.1,0.1h-0.2c-0.2-0.1-0.4-0.2-0.6-0.4C291.7,190.7,291.1,190.5,291.2,189.9L291.2,189.9z"/>
					<path class="st36" d="M291.2,189.9c0.1,0.4,0.5,0.6,0.7,1c-0.6-0.3-1-0.7-1.2-1.4C290.9,189.7,291.1,189.8,291.2,189.9z"/>
					<path class="st37" d="M292.6,191.4h0.1c0.5,0,0.8,0.1,0.8,0.6C293.1,191.8,292.8,191.6,292.6,191.4z"/>
					<path class="st38" d="M293.9,188.2c0.1,0.2,0.3,0.2,0.5,0.2c0.2,0.2,0.6,0,0.5,0.4c-0.2,0.2-0.4,0.1-0.6,0
						c-0.3-0.1-0.6-0.2-0.9-0.2h-0.2c-0.2-0.1-0.5-0.3-0.7-0.5c-0.1-0.3,0.1-0.4,0.3-0.3C293.2,187.9,293.6,188,293.9,188.2
						L293.9,188.2z"/>
					<path class="st39" d="M293.9,188.2c-0.4,0-0.8-0.4-1.2-0.1c-0.2,0.2-0.3,0.1-0.4-0.1c-0.1-0.1-0.2-0.2-0.4-0.3
						C292.7,187.5,293.3,187.8,293.9,188.2L293.9,188.2z"/>
					<path class="st34" d="M298.5,188.9h0.4c0,0.1,0.1,0.1,0,0.2c-0.5,0.4-1,0.7-1.6,0.8c-0.2,0-0.5,0.1-0.6-0.2
						c0-0.1,0-0.1,0.1-0.2C297.4,189.5,298,189.3,298.5,188.9L298.5,188.9z"/>
					<path class="st40" d="M294.9,188.9c-0.2-0.1-0.3-0.2-0.5-0.4c0.5,0.1,0.9,0.3,1.4,0.6v0.1c-0.1,0.1-0.2,0.1-0.3,0.1
						C295.2,189.2,295,189.2,294.9,188.9C294.9,189,294.9,188.9,294.9,188.9L294.9,188.9L294.9,188.9z"/>
					<path class="st34" d="M296.7,189.4v0.1c-0.4,0.4-0.6,0-0.9-0.1c-0.1-0.1-0.2-0.2-0.1-0.3C296.1,189.1,296.4,189.3,296.7,189.4z
						"/>
					<path class="st41" d="M295.5,196.6v-0.4c0.3-0.1,0.3,0.1,0.4,0.2s0.1,0.2,0.2,0.3v0.2c0,0.3,0,0.7,0.1,1c0,0.1,0.1,0.2,0,0.4
						c-0.1,0.1-0.1,0.1-0.2,0.1c-0.4-0.4-0.4-0.9-0.5-1.5V196.6z"/>
					<path class="st42" d="M295.5,196.9c0.2,0.4,0.3,0.9,0.5,1.3c0.2,0.1,0.2,0.3,0,0.5v0.1C295.6,198.4,295.4,197.7,295.5,196.9
						L295.5,196.9z"/>
					<path class="st33" d="M298.2,198.6c0,0.1-0.1,0.1-0.1,0.2c-0.1,0.9-0.5,1.5-1.5,1.4c-0.2-0.4-0.3-0.9-0.4-1.3
						c0-0.1,0-0.2,0.1-0.2c0.2-0.1,0.3,0,0.4,0.1c0.1,0,0.1,0.1,0.2,0c0.3-0.1,0.7-0.1,0.9-0.5c0.1-0.2,0.3-0.2,0.5,0v0.3H298.2z"/>
					<path class="st43" d="M296.4,198.6l-0.1,0.1h-0.2v-0.5l0.1-0.1c0.1-0.1,0.3-0.1,0.4,0.1C296.6,198.4,296.5,198.6,296.4,198.6
						L296.4,198.6z"/>
					<path class="st44" d="M299.7,192.6c-0.8,0.7-0.6,1.6-0.7,2.5c0,0.3,0,0.6-0.1,0.8c-0.2,0-0.3-0.1-0.3-0.2
						c0.2-0.8,0-1.5,0.2-2.3C298.9,192.9,299.1,192.4,299.7,192.6C299.8,192.6,299.8,192.6,299.7,192.6z"/>
					<path class="st45" d="M302.9,189.9h0.1c-0.3,0.6-0.8,1-1.4,1.4l-0.1-0.1c0.1-0.5,0.7-0.7,0.8-1.1c0.1-0.1,0.2-0.3,0.4-0.2
						C302.8,189.7,302.9,189.7,302.9,189.9L302.9,189.9z"/>
					<path class="st46" d="M300.6,191.9c-0.2,0.3-0.5,0.5-0.9,0.6c-0.1-0.4,0.3-0.5,0.5-0.7h0.2
						C300.5,191.8,300.6,191.8,300.6,191.9L300.6,191.9z"/>
					<path class="st47" d="M301.7,191.1c-0.2,0.3-0.5,0.5-0.9,0.6c-0.1-0.1-0.1-0.2-0.1-0.3C301,191.3,301.2,190.8,301.7,191.1
						L301.7,191.1z"/>
					<path class="st48" d="M298.7,195.6c0,0.1,0.1,0.2,0.1,0.2v0.2c0,0.1-0.1,0.2-0.1,0.4c-0.1,0.1-0.1,0.1-0.2,0
						c-0.2-0.2-0.1-0.5-0.1-0.7c0-0.1,0-0.1,0.1-0.2C298.6,195.4,298.7,195.4,298.7,195.6z"/>
					<path class="st49" d="M300.9,191.6v0.2c-0.1,0.1-0.1,0.1-0.2,0.1h-0.3c-0.1-0.2,0-0.3,0.2-0.5c0.1-0.1,0.2-0.1,0.3,0
						C300.8,191.4,300.8,191.5,300.9,191.6z"/>
					<path class="st33" d="M302.9,189.9h-0.3c-0.2-0.7-0.7-1.1-1.1-1.6v-0.1c0.1-0.2,0.3-0.2,0.5-0.2c0.1,0,0.2,0.1,0.3,0
						c0.4-0.1,0.9,0,0.9,0.3c0.1,0.4,0.6,0.9-0.1,1.3C303,189.6,303,189.7,302.9,189.9L302.9,189.9z"/>
					<path class="st42" d="M301.9,187.9c-0.1,0.1-0.3,0.2-0.4,0.2c0,0.2,0,0.3-0.2,0.3c-0.5,0.1-1,0-1.4,0.2c-0.1,0.1-0.3,0-0.4-0.1
						c0.7-0.5,1.5-0.7,2.4-0.7V187.9z"/>
					<path class="st42" d="M298.2,198.6v-0.1c0.1-0.4,0-0.8,0.2-1.1c0.1-0.2,0.1-0.3,0.3-0.2c0.2,0.7-0.1,1.3-0.5,1.9V198.6
						L298.2,198.6z"/>
					<path class="st50" d="M298.7,197.1c-0.2,0.4-0.2,0.9-0.5,1.3v-0.2c-0.2-0.3-0.3-0.6-0.2-1c0-0.1,0.1-0.1,0.1-0.2
						c0.2-0.2,0.1-0.7,0.6-0.6h0.1C298.7,196.6,298.7,196.8,298.7,197.1z"/>
					<path class="st51" d="M299.6,188.4c0.6,0,1.1-0.4,1.7-0.3c0,0.3-0.2,0.3-0.4,0.4c-0.2,0.1-0.5,0.2-0.8,0.3
						c-0.3,0-0.5,0.2-0.8,0.2h-0.4c-0.1,0-0.1-0.1-0.1-0.2v-0.1c0.2-0.1,0.4-0.2,0.6-0.2C299.5,188.5,299.5,188.5,299.6,188.4
						L299.6,188.4L299.6,188.4z"/>
					<path class="st52" d="M299.5,188.6c-0.2,0.2-0.4,0.2-0.6,0.2C299,188.7,299.2,188.5,299.5,188.6z"/>
					<path class="st53" d="M291.8,190.1c-0.2,0.1-0.3-0.2-0.5-0.2c-0.1-0.5-0.4-0.9,0-1.4c0.2-0.2,0.4-0.5,0.8-0.4
						c0.2-0.1,0.4,0,0.5,0.2c0,0.2-0.1,0.4-0.3,0.5c-0.5,0.2-0.4,0.5-0.3,0.8C292.2,190,292.1,190.1,291.8,190.1L291.8,190.1z"/>
					<path class="st54" d="M292.6,188.4c-0.1-0.1-0.2-0.2-0.4-0.2l0.1-0.1c0.1,0,0.2,0.1,0.4,0.1c0.2,0.2,0.5,0.2,0.6,0.4
						C293,188.9,292.8,188.9,292.6,188.4L292.6,188.4z"/>
					<path class="st55" d="M295.5,195.1V195c0.1-1.4-0.5-2.5-1.8-3.2v-0.2c0.9,0,2,1,2,1.9c0,0.3,0.1,0.6,0.1,0.9v0.4
						c0,0.1,0,0.2-0.1,0.3S295.5,195.2,295.5,195.1L295.5,195.1z"/>
					<path class="st56" d="M295.5,195.1h0.1c0.2,0.1,0.2,0.2,0.2,0.4s0.1,0.4,0.1,0.6s0,0.4-0.2,0.4c-0.1-0.1-0.1-0.2-0.2-0.4V195.1
						z"/>
					<path class="st57" d="M293.7,191.8v0.1h-0.2c-0.2-0.3-0.5-0.4-0.8-0.6v-0.1c0.2-0.3,0.4,0,0.6,0.1l0.3,0.3
						C293.7,191.6,293.7,191.7,293.7,191.8z"/>
					<path class="st58" d="M292.6,188.4c0.2,0.1,0.5,0.2,0.8,0.1h0.1c0.4,0.1,0.8,0.2,1.1,0.4c0.2,0.1,0.6,0.1,0.5,0.5
						c-0.3,0.2-0.6,0.2-0.9,0s-0.6-0.4-0.9-0.1s-0.5,0.7-0.3,1.1c0.1,0.2,0.2,0.4-0.1,0.6c-0.2,0-0.3-0.2-0.5-0.3
						c0-0.2-0.2-0.3-0.5-0.5h-0.1v-0.5c-0.2-0.4,0.3-0.6,0.4-1C292.3,188.7,292.4,188.5,292.6,188.4z"/>
					<path class="st59" d="M292.4,190.6c0.1,0.1,0.2,0.3,0.4,0.3c0.1-0.1,0.2-0.1,0.3-0.1c0.2,0.1,0.3,0.2,0.3,0.4
						c0,0.1-0.1,0.1-0.1,0.2c-0.2-0.1-0.4-0.2-0.6-0.2c-0.2-0.2-0.3-0.4-0.5-0.6C292.3,190.4,292.4,190.4,292.4,190.6L292.4,190.6z"
						/>
					<path class="st60" d="M292.4,190.6h-0.2c-0.1-0.1-0.3-0.2-0.3-0.3C292.2,190.2,292.4,190.4,292.4,190.6z"/>
					<path class="st61" d="M294.4,188.9c-0.3-0.2-0.7-0.2-1-0.5c0.5,0,1,0.3,1.5,0.3c0.1,0.1,0.2,0.1,0.1,0.3
						C294.8,189.2,294.6,189.1,294.4,188.9z"/>
					<path class="st62" d="M298.9,188.9h0.1c0.1,0.1,0.1,0.2,0,0.3s-0.3,0.2-0.5,0.3c-0.4,0.1-0.7,0.3-1.1,0.4c-0.1,0-0.2,0-0.3-0.1
						c0-0.1,0-0.2,0.1-0.3C297.8,189.5,298.3,189.1,298.9,188.9L298.9,188.9z"/>
					<path class="st63" d="M297.3,189.6v0.2c0,0.2-0.2,0.2-0.4,0.3h-0.2c-0.1,0-0.2,0-0.3-0.1s-0.3-0.2-0.5-0.3
						c-0.1,0-0.1-0.1-0.1-0.1v-0.3h0.1l0.9,0.3C296.9,189.6,297.1,189.6,297.3,189.6L297.3,189.6z"/>
					<path class="st64" d="M295,189.1c0-0.1-0.1-0.2-0.1-0.2c0.2,0.1,0.3,0.2,0.5,0.2v0.1c-0.1,0.1-0.1,0.1-0.2,0.1
						C295.1,189.2,295,189.2,295,189.1L295,189.1z"/>
					<path class="st63" d="M295.8,189.1c0,0.1,0.1,0.2,0.1,0.2c-0.3,0.2-0.5,0.1-0.5-0.2C295.5,189,295.6,189,295.8,189.1z"/>
					<path class="st65" d="M298.3,197.1v0.1c-0.1,0.3,0,0.7-0.4,0.9c-0.5,0.2-1,0.4-1.5,0c-0.1-0.1-0.1-0.2-0.1-0.2
						c0-0.3-0.2-0.5-0.2-0.8v-0.1c-0.1-0.1-0.1-0.3-0.1-0.4s0.1-0.1,0.2-0.1c0.2,0,0.3,0.2,0.4,0.3c0,0.1,0.1,0.1,0.2,0.2l0.1,0.1
						c0.5,0.3,0.7-0.1,1-0.3c0.2-0.1,0.3-0.5,0.6-0.1C298.4,196.8,298.4,196.8,298.3,197.1L298.3,197.1z"/>
					<path class="st66" d="M297.7,197.9c0.3-0.2,0.3-0.5,0.5-0.7v1.1c-0.4,0.3-0.6,0.8-1.2,0.9c-0.1,0-0.2-0.1-0.4-0.1l-0.2-0.2
						c-0.1-0.2-0.1-0.4-0.3-0.5c0-0.1-0.1-0.2-0.1-0.2c0.1-0.1,0.1-0.2,0.2-0.2l0.1,0.1C296.7,198.4,297.3,198.4,297.7,197.9
						L297.7,197.9z"/>
					<path class="st67" d="M296.3,197.8c-0.1,0.1-0.1,0.2-0.2,0.2c0.1-0.3-0.3-0.6,0-1C296.1,197.2,296.2,197.4,296.3,197.8z"/>
					<path class="st68" d="M296,196.6v0.4c-0.1-0.1-0.1-0.2-0.2-0.2v-0.5c0-0.1,0.1-0.1,0.2-0.1C296.1,196.2,296,196.3,296,196.6
						L296,196.6z"/>
					<path class="st43" d="M296.6,198.9c0.1,0,0.3,0,0.4,0.1C296.8,199.2,296.7,199.1,296.6,198.9z"/>
					<path class="st69" d="M298.7,195.6h-0.1c-0.2,0.1-0.3-0.1-0.3-0.2v-0.3c0-0.1,0.1-0.2,0.1-0.3c0.1-0.4,0.1-0.8,0.1-1.2v-0.2
						c0.1-0.2,0.1-0.4,0.2-0.7c0.2-0.3,0.5-0.5,0.7-0.7c0.2-0.1,0.4-0.2,0.6-0.2c0.1,0,0.1,0.1,0.1,0.1c-0.2,0.2-0.4,0.4-0.5,0.6
						c-0.5,0.2-0.6,0.6-0.7,1C298.8,194.2,298.9,194.9,298.7,195.6L298.7,195.6z"/>
					<path class="st70" d="M300.1,188.8c0.4-0.2,0.8-0.3,1.2-0.5c0.1,0,0.1-0.1,0.2-0.1c0.5,0.2,0.8,0.6,1.1,1
						c0.1,0.2,0.1,0.5,0.1,0.8l-0.2,0.2c-0.3,0.2-0.5,0.6-0.9,0.6c-0.1-0.1-0.1-0.1-0.1-0.2c0.1-0.3,0.3-0.5,0.3-0.8
						c0-0.4-0.1-0.6-0.6-0.6c-0.4-0.2-0.8,0.1-1.1-0.2C300,188.8,300,188.8,300.1,188.8z"/>
					<path class="st71" d="M301.7,190.6c0.3-0.1,0.5-0.4,0.9-0.5c-0.1,0.5-0.6,0.7-0.9,1.1c-0.3,0.1-0.5,0.2-0.8,0.4
						c-0.1-0.4,0.2-0.6,0.4-0.8C301.3,190.6,301.5,190.4,301.7,190.6z"/>
					<path class="st72" d="M300.2,191.9h-0.1c-0.1-0.1-0.1-0.2,0-0.4c0.1-0.1,0.2-0.3,0.4-0.2c0.1,0.1,0.2,0.1,0.1,0.2
						s-0.2,0.2-0.2,0.3C300.3,191.9,300.3,191.9,300.2,191.9L300.2,191.9z"/>
					<path class="st73" d="M298.3,197.1v-0.5l-0.1-0.1c0-0.1,0.1-0.2,0.1-0.3c0.1-0.1,0-0.5,0.4-0.4v0.7
						C298.5,196.6,298.5,196.8,298.3,197.1z"/>
					<path class="st74" d="M298.6,195.6c-0.1,0.2-0.1,0.3-0.2,0.5c-0.3-0.1-0.2-0.4-0.2-0.6c0-0.1,0-0.2,0.1-0.3h0.2
						c0,0.1,0.1,0.2,0.1,0.3V195.6z"/>
					<path class="st75" d="M300.6,191.6l-0.1-0.1c0,0-0.1-0.1-0.1-0.2s0.2-0.2,0.2-0.2c0.2,0,0.4-0.4,0.7-0.2c0,0.3-0.3,0.5-0.5,0.7
						H300.6z"/>
					<path class="st76" d="M300.1,188.8C300.1,188.8,300.1,188.9,300.1,188.8c-0.1,0.5-0.4,0.4-0.6,0.4c-0.1,0-0.1-0.1-0.1-0.2
						C299.6,188.8,299.8,188.8,300.1,188.8L300.1,188.8z"/>
					<path class="st77" d="M299.3,188.9h0.1c0.1,0.2-0.1,0.3-0.2,0.4H299c-0.1,0-0.2-0.1-0.2-0.2s0.1-0.2,0.1-0.2H299.3L299.3,188.9
						z"/>
					<path class="st60" d="M292.2,188.8c0.4,0.5-0.3,0.6-0.4,1C291.6,189.2,291.8,188.9,292.2,188.8z"/>
					<path class="st78" d="M293.7,191.8c0-0.1-0.1-0.1-0.1-0.2s0.1-0.1,0.2-0.2h0.4c0.1,0,0.2,0.1,0.2,0.1c0.3,0.3,0.6,0.5,0.9,0.7
						c0.4,0.3,0.7,0.7,0.6,1.3c-0.1,0.3,0.2,0.7-0.2,1c0-0.1-0.1-0.1-0.1-0.2C295.7,193.1,294.7,192.4,293.7,191.8L293.7,191.8
						L293.7,191.8z"/>
					<path class="st79" d="M295.6,194.6v-1.1c0.1,0,0.1-0.1,0.2,0s0.1,0.2,0.1,0.3v1.1c0,0.1,0,0.1-0.1,0.2c-0.1,0.1-0.1,0-0.2,0
						V194.6z"/>
					<path class="st80" d="M295.6,194.9h0.2c0.1,0.2,0.1,0.5,0,0.7c-0.1,0.1-0.1,0-0.2,0V194.9z"/>
					<path class="st81" d="M295.7,195.6h0.1c0.2,0.1,0.2,0.2,0.2,0.4c0,0.1-0.1,0.1-0.1,0.1h-0.1
						C295.7,195.9,295.7,195.8,295.7,195.6z"/>
					<path class="st82" d="M293.8,191.6h-0.2c-0.1-0.1-0.2-0.2-0.3-0.2v-0.1C293.7,191,293.8,191.2,293.8,191.6z"/>
					<path class="st83" d="M293,190.9c-0.1,0-0.2,0-0.2-0.1s0-0.2-0.1-0.3c-0.5-0.6-0.1-1.1,0.2-1.5s0.8-0.1,1.2,0
						c0,0.1,0,0.3-0.1,0.3c-0.7,0.3-0.7,0.9-0.8,1.4C293.1,190.9,293.1,190.9,293,190.9L293,190.9z"/>
					<path class="st84" d="M293,190.8c-0.1-0.9,0.3-1.4,1.1-1.7c0.2,0.2,0.5,0.2,0.7,0.2h0.1c0.1,0.1,0.2,0.2,0.2,0.3
						c0,0,0,0.1-0.1,0.1c-0.9-0.2-1.2,0.5-1.6,1c0,0.1-0.1,0.1-0.1,0.1C293.3,191,293.1,190.9,293,190.8L293,190.8z"/>
					<path class="st85" d="M295,189.1h0.1c0.1,0.1,0.2,0.1,0.2,0.3c0,0-0.1,0.1-0.2,0.1s-0.2-0.1-0.2-0.1c-0.2-0.1-0.3-0.2-0.5-0.4
						C294.6,189.1,294.8,189.1,295,189.1L295,189.1z"/>
					<path class="st86" d="M293,190.8c0.1,0,0.1-0.1,0.2-0.1c0.1,0.1,0.2,0,0.4,0.1c0.1,0.3,0.6,0.4,0.3,0.8h-0.2
						c-0.1-0.2-0.3-0.3-0.5-0.4c-0.1-0.1-0.3-0.1-0.3-0.3C293,190.9,293,190.8,293,190.8z"/>
					<path class="st87" d="M297.5,189.9c0.3-0.1,0.6-0.2,1-0.4c0.1-0.1,0.1-0.1,0.2,0c0,0.5-0.3,0.6-0.7,0.7
						c-0.2,0.1-0.4,0.1-0.6,0.1s-0.4,0.1-0.6-0.1V190C297,189.9,297.3,190,297.5,189.9z"/>
					<path class="st80" d="M297.5,189.9c-0.2,0.1-0.5,0.1-0.8,0.1c0.2,0,0.3-0.1,0.5-0.1H297.5z"/>
					<path class="st88" d="M298.6,189.4h-0.1c0.1-0.1,0.2-0.2,0.4-0.2h0.3C299.1,189.6,298.9,189.6,298.6,189.4L298.6,189.4z"/>
					<path class="st89" d="M295.1,189.4h0.1c0.3-0.1,0.4,0.1,0.6,0.3h0.1c0.1,0,0.2,0.1,0.3,0.3c0,0.1,0,0.1-0.1,0.2
						c-0.4,0.1-0.6-0.2-0.9-0.3C295.2,189.7,295.1,189.6,295.1,189.4z"/>
					<path class="st90" d="M296.1,189.9v-0.2c0.1,0,0.2-0.1,0.3,0.1c0.1,0,0.2,0.1,0.3,0.1v0.1c0,0.1,0,0.2-0.1,0.3
						C296.3,190.4,296.1,190.4,296.1,189.9L296.1,189.9z"/>
					<path class="st91" d="M295.9,189.6l-0.6-0.3c0-0.1-0.1-0.1-0.1-0.2h0.2c0.2,0.1,0.3,0.2,0.5,0.2V189.6z"/>
					<path class="st92" d="M296.5,189.9c-0.1,0-0.2,0-0.3-0.1c0-0.1-0.1-0.1-0.2-0.2C296.2,189.7,296.4,189.7,296.5,189.9z"/>
					<path class="st93" d="M298.2,196.4v0.1c-0.6,0.9-0.9,1-1.7,0.7c0-0.1-0.1-0.1-0.1-0.1v-0.2c0.4-0.2,0.9,0.1,1.2-0.4
						c0.2-0.1,0.2-0.4,0.5-0.5C298.2,196.1,298.2,196.3,298.2,196.4z"/>
					<path class="st94" d="M297.7,196.6c0,0.3-0.3,0.4-0.6,0.4s-0.5-0.1-0.8-0.1c-0.1-0.1-0.2-0.2-0.2-0.4c-0.2-0.2-0.1-0.4-0.1-0.6
						c0-0.1,0.1-0.1,0.1-0.1c0.5,0,0.2,0.7,0.7,0.7C297.1,196.5,297.5,196.3,297.7,196.6L297.7,196.6L297.7,196.6z"/>
					<path class="st95" d="M297.7,197.9c0.1,0.5-0.3,0.5-0.5,0.5c-0.4,0.1-0.8,0-0.9-0.5C296.8,198.2,297.3,198,297.7,197.9z"/>
					<path class="st96" d="M296.1,195.9v0.6H296c-0.1-0.1-0.1-0.2-0.1-0.4V196c-0.1-0.3,0-0.7-0.1-1.1v-0.1c0.1-0.1,0.2-0.1,0.3,0
						C296.2,195.1,296.4,195.4,296.1,195.9L296.1,195.9z"/>
					<path class="st94" d="M296.4,197.1c0.1,0,0.2,0,0.3,0.1c-0.1,0-0.1,0-0.2,0.1C296.5,197.2,296.4,197.2,296.4,197.1L296.4,197.1
						z"/>
					<path class="st97" d="M298.6,194.9c0,0.1-0.1,0.2-0.1,0.3c-0.2-0.1-0.2-0.3-0.3-0.4v-0.3c0-0.2,0.1-0.5,0.1-0.8v-0.3
						c0.1-0.2,0.1-0.4,0.4-0.3c0.1,0.1,0.1,0.3,0,0.4v0.1C298.6,193.9,298.8,194.4,298.6,194.9L298.6,194.9z"/>
					<path class="st97" d="M299.6,192.1l-0.6,0.6c-0.1,0.1-0.1,0.1-0.2,0c-0.1-0.1-0.1-0.3-0.1-0.4c0.1-0.2,0.4-0.4,0.6-0.5h0.2
						C299.6,192,299.6,192.1,299.6,192.1L299.6,192.1z"/>
					<path class="st98" d="M298.6,194.9c0-0.4-0.1-0.9,0.1-1.3C298.7,193.9,298.8,194.4,298.6,194.9z"/>
					<path class="st99" d="M299.6,192.1l-0.1-0.1c0.1-0.4,0.3-0.6,0.7-0.4c0,0.1-0.1,0.2-0.1,0.2C299.9,191.9,299.8,192,299.6,192.1
						z"/>
					<path class="st98" d="M298.8,192.8h0.1c-0.1,0.2-0.2,0.4-0.2,0.6V193C298.6,192.9,298.6,192.8,298.8,192.8L298.8,192.8z"/>
					<path class="st100" d="M298.4,194.6c0,0.2,0.1,0.3,0.1,0.5v0.2h-0.1C298.1,195.1,298.1,194.9,298.4,194.6z"/>
					<path class="st58" d="M299.2,189.1c0.1-0.1,0.2-0.1,0.3-0.2c0.2,0,0.4,0,0.6-0.2c0.4,0.1,0.8-0.3,1.1,0
						c0.6,0.2,0.8,0.8,0.5,1.5v0.2c-0.1,0.1-0.2,0.2-0.4,0.3c-0.2,0.1-0.3,0.3-0.6,0.4c-0.3-0.2-0.1-0.4,0-0.5
						c0.5-0.5,0.1-0.8-0.1-1.2c-0.1-0.2-0.3-0.2-0.5-0.1c-0.2,0.2-0.5,0.1-0.7,0.1c-0.1,0-0.1,0-0.2-0.1
						C299.1,189.2,299.2,189.3,299.2,189.1L299.2,189.1z"/>
					<path class="st101" d="M301.7,190.4c0.1-0.6-0.2-1-0.5-1.5c0.2-0.2,0.5-0.2,0.6,0c0.1,0.3,0.3,0.6,0.4,0.9
						C302.2,189.9,301.9,190.1,301.7,190.4z"/>
					<path class="st102" d="M300.2,191.6c-0.2,0.1-0.5,0.3-0.7,0.4h-0.1c-0.1-0.1-0.1-0.2,0-0.4c0.4-0.2,0.5-0.6,1-0.5
						c0.1,0,0.1,0.1,0.1,0.2v0.1C300.4,191.4,300.3,191.6,300.2,191.6z"/>
					<path class="st103" d="M298.2,196.4c-0.1-0.1-0.1-0.2-0.2-0.3c-0.1-0.1-0.1-0.1-0.1-0.2c0.1-0.1,0.1-0.5,0.4-0.4v0.6
						C298.4,196.3,298.4,196.4,298.2,196.4L298.2,196.4z"/>
					<path class="st104" d="M298.3,195.6c-0.1,0.2-0.1,0.3-0.2,0.5c-0.1-0.1-0.2-0.2-0.2-0.3c0.1-0.4,0.1-0.9,0.2-1.3
						c0-0.1,0.1-0.1,0.2-0.1c0,0,0.1,0,0.1,0.1v1C298.4,195.3,298.4,195.4,298.3,195.6z"/>
					<path class="st105" d="M300.5,191.4h-0.2c-0.1-0.1-0.1-0.1-0.1-0.2c0.4-0.6,0.2-1.2-0.6-1.5c-0.1,0-0.1-0.1-0.1-0.2
						c1-0.4,1.4-0.3,1.7,0.4c0.1,0.3,0.1,0.6-0.1,0.9c-0.1,0.2-0.2,0.3-0.3,0.5C300.7,191.2,300.6,191.2,300.5,191.4L300.5,191.4z"
						/>
					<path class="st106" d="M299.2,189.1c0,0.1,0.1,0.1,0.1,0.1c0.1,0.2,0,0.3-0.2,0.4c-0.4,0.2-0.8,0.3-1.2,0.3
						c-0.1,0-0.1-0.1-0.1-0.2c0.3-0.2,0.5-0.3,0.8-0.4c0.2,0,0.4-0.1,0.5-0.2C299.1,189.3,299.2,189.3,299.2,189.1L299.2,189.1z"/>
					<path class="st107" d="M295,192.4c-0.3-0.2-0.6-0.4-0.8-0.6c0-0.1,0.1-0.3,0.2-0.3c0.5,0.2,1,0.3,0.9,0.9L295,192.4L295,192.4z
						"/>
					<path class="st108" d="M295,192.4h0.5l0.4,0.4c0.1,0.2,0.2,0.4-0.1,0.6h-0.1C295.6,193.1,295.3,192.8,295,192.4L295,192.4z"/>
					<path class="st109" d="M293.9,191.6c-0.1-0.3-0.4-0.4-0.5-0.7c0.4-0.3,0.6,0,0.8,0.3C294.2,191.4,294.2,191.6,293.9,191.6
						L293.9,191.6L293.9,191.6z"/>
					<path class="st110" d="M294,191.6v-0.3l0.1-0.1c0.3,0,0.5,0.1,0.3,0.4c-0.1,0-0.1,0.1-0.2,0.1S294.1,191.6,294,191.6L294,191.6
						z"/>
					<path class="st111" d="M295.7,193.4c0.1-0.2,0-0.4-0.1-0.6c0-0.1,0.1-0.2,0.2-0.2s0.1,0,0.2,0.1c0.1,0.2,0.1,0.3,0.2,0.5v0.2
						c0,0.2,0,0.4-0.1,0.6c0,0.1-0.1,0.1-0.2,0.1c-0.2-0.1-0.1-0.2-0.2-0.3C295.8,193.7,295.8,193.6,295.7,193.4L295.7,193.4
						L295.7,193.4z"/>
					<path class="st112" d="M295.9,193.9h0.1c0.2,0.1,0.2,0.2,0.2,0.4s0,0.4-0.2,0.5h-0.2v-0.1C295.9,194.4,295.7,194.1,295.9,193.9
						L295.9,193.9z"/>
					<path class="st113" d="M295.9,193.9c0,0.2,0,0.5-0.1,0.7v-1C295.8,193.8,295.9,193.8,295.9,193.9z"/>
					<path class="st114" d="M295.8,194.9c0.2,0.3,0.1,0.7,0.1,1.1c0-0.1-0.1-0.2-0.1-0.4V194.9L295.8,194.9z"/>
					<path class="st110" d="M294,191.2c-0.2-0.1-0.4-0.2-0.6-0.4c0-0.1-0.1-0.2-0.1-0.2c0-0.1,0.1-0.1,0.1-0.2
						c0.3-0.7,0.8-1.2,1.6-0.9c0.1-0.1,0.2-0.1,0.3,0c0.2,0.2,0.5,0.3,0.8,0.4c0.1,0.2,0.3,0.2,0.5,0.2c0.3,0,0.5-0.1,0.8-0.1
						c0.1,0,0.2-0.1,0.4,0c0.1,0.2,0,0.3-0.1,0.4c-0.1,0-0.1,0.1-0.2,0h-0.8c-0.5-0.1-1-0.2-1.6-0.1c-0.1,0-0.3-0.1-0.5,0
						C294.3,190.6,294.3,191,294,191.2L294,191.2L294,191.2z"/>
					<path class="st115" d="M295.4,189.6h-0.3c0-0.1-0.1-0.2-0.1-0.2h0.2C295.2,189.5,295.3,189.6,295.4,189.6L295.4,189.6z"/>
					<path class="st116" d="M297.4,190.1c-0.2,0-0.5,0.3-0.7,0c0-0.1,0.1-0.1,0.1-0.1h0.6c0,0,0,0.1,0.1,0.1H297.4z"/>
					<path class="st117" d="M297.4,190.1c0.2-0.2,0.3-0.2,0.5-0.3v0.1c0,0.1,0,0.2-0.1,0.2H297.4z"/>
					<path class="st118" d="M298.1,195.6v0.4l-0.1,0.1c-0.1,0.2-0.2,0.3-0.3,0.5c-0.2,0-0.3,0.1-0.5,0.1c-0.7,0.1-0.9-0.1-1-0.8
						c0.1-0.1,0.2-0.1,0.3,0c0.4,0.2,0.8,0.2,1.2-0.1C297.9,195.6,298,195.5,298.1,195.6z"/>
					<path class="st119" d="M298.1,195.6c-0.7,0.8-1.1,0.9-1.9,0.2h-0.1c0-0.3-0.1-0.7-0.2-1.1v-0.5c0.4,0,0.5,0.2,0.5,0.6
						c0,0.3,0,0.6,0.5,0.6c0.2-0.1,0.5-0.1,0.6-0.4c0.1-0.1,0.1-0.2,0.1-0.4v-0.2c0.1-0.1,0.2-0.4,0.4-0.2
						C298.3,194.8,298.2,195.3,298.1,195.6L298.1,195.6z"/>
					<path class="st120" d="M298.8,192.8c0,0.1-0.1,0.2-0.1,0.3c-0.1,0.1-0.1,0.2-0.2,0.4c-0.3-0.1-0.2-0.4-0.2-0.6
						c0.1-0.2,0.2-0.5,0.5-0.4C298.9,192.4,298.8,192.6,298.8,192.8L298.8,192.8z"/>
					<path class="st121" d="M298.5,192.8v0.8c-0.1,0.1-0.1,0.1-0.2,0c-0.1-0.2-0.1-0.4-0.1-0.6C298.2,192.8,298.3,192.6,298.5,192.8
						L298.5,192.8z"/>
					<path class="st104" d="M298.4,193.6h0.1c0,0.2,0.1,0.5-0.1,0.7v-0.1C298.1,194,298.1,193.8,298.4,193.6L298.4,193.6z"/>
					<path class="st122" d="M298.5,192.8c0,0.1-0.1,0.2-0.1,0.2c0,0.1-0.1,0.1-0.2,0.1s-0.2-0.1-0.2-0.3c0.1-0.4,0.3-0.6,0.6-0.9
						s0.4-0.6,0.2-1c-0.2-0.2-0.2-0.5-0.2-0.8c0.5-0.5,0.9-0.1,1.2,0.2s0.6,0.6,0.2,1c-0.1,0.1-0.3,0.3-0.4,0.5
						c0,0.1-0.1,0.2-0.1,0.2c-0.2,0.1-0.3,0.2-0.5,0.4C298.7,192.4,298.6,192.5,298.5,192.8L298.5,192.8z"/>
					<path class="st123" d="M299.1,189.6c0.1-0.1,0.2-0.1,0.3-0.2h0.1c0.6,0,1,0.2,1.2,0.8c0.1,0.4,0,0.7-0.3,0.9
						c-0.4-0.4-0.6-1-1.2-1.2C299.1,189.9,299.1,189.7,299.1,189.6z"/>
					<path class="st110" d="M299.1,189.6c0.8,0.2,1.1,0.5,1.3,1.5v0.2c-0.3,0.2-0.6,0.3-0.8,0.5c0-0.1,0.1-0.3,0.1-0.4
						c0.3-0.7-0.1-1.2-0.9-1.2c-0.4,0.5-0.9,0.6-1.2,0.2l0.2-0.2c0-0.1,0.1-0.1,0.1-0.2C298.3,189.9,298.7,189.8,299.1,189.6
						L299.1,189.6z"/>
					<path class="st124" d="M298.2,192.9h0.1v1.3h-0.1c-0.1,0.1-0.2,0.2-0.2,0.4c-0.1,0.1-0.2,0-0.3-0.1
						C297.6,194.2,297.9,193.1,298.2,192.9L298.2,192.9z"/>
					<path class="st125" d="M294,191.2c-0.1-0.5,0.3-1.2,0.7-1.2c0.1,0.2,0,0.4,0.2,0.6c0,0.6,0.2,1.1,0.6,1.5
						c0.1,0.1,0.1,0.2,0,0.3s-0.2,0.1-0.2,0l-0.1-0.1c-0.2-0.4-0.5-0.6-0.9-0.8L294,191.2L294,191.2z"/>
					<path class="st126" d="M295.4,192.6l0.1-0.1c0.2-0.2,0.3-0.1,0.5,0.1c0,0.1,0,0.2-0.1,0.3c-0.1,0-0.1,0.1-0.2,0.1
						C295.6,192.8,295.5,192.7,295.4,192.6L295.4,192.6z"/>
					<path class="st127" d="M295.9,192.8v-0.3c0.5-0.3,0.5,0.2,0.6,0.4c0.2,0.4,0.4,0.6,0.7,0.2c0.1-0.1,0.1-0.1,0.2-0.1
						c0.2-0.2,0.2-0.6,0.6-0.4c0.1,0.1,0.1,0.2,0.1,0.2c0,0.1,0.1,0.1,0.1,0.2c-0.1,0.6-0.3,1.1-0.2,1.7v0.1c0,0.1-0.1,0.3-0.2,0.3
						c-0.2,0.2-0.6-0.2-0.8,0.1c-0.3,0.3-0.4,0.2-0.6-0.1c-0.2-0.6-0.2-1.2-0.4-1.8v-0.1C295.9,193,296,192.8,295.9,192.8
						L295.9,192.8z"/>
					<path class="st128" d="M296,193.4c0.2,0.4,0.2,0.8,0.3,1.3c0.1,0.2,0.1,0.6,0.5,0.4c0.2,0.1,0.3,0.2,0.4,0.4
						c0,0.1-0.1,0.2-0.1,0.2c-0.5,0.2-0.7,0-0.9-0.5c-0.1-0.3-0.2-0.6-0.2-0.9L296,193.4L296,193.4z"/>
					<path class="st129" d="M295.9,192.8c0.1,0.1,0.2,0.3,0.1,0.5C296,193.1,295.9,192.9,295.9,192.8z"/>
					<path class="st127" d="M298.1,192.8c0-0.1-0.1-0.1-0.1-0.1l-0.1-0.1c0-0.2,0.1-0.4,0-0.6s-0.2-0.4-0.4-0.6
						c-0.1-0.1-0.2-0.2-0.4-0.1c-0.9,0-1,0.7-1.3,1.2c-0.1,0-0.2-0.1-0.4-0.1c-0.2-0.4-0.6-0.6-0.8-1c-0.2-0.3-0.2-0.5,0.1-0.7
						c0.1-0.1,0.1-0.2,0.2-0.3c0-0.3,0.3-0.3,0.5-0.2c0.4,0.1,0.7,0.2,1.1,0.3c0.3,0.1,0.6,0.1,0.9,0c0.4-0.1,0.8-0.2,1.2-0.2
						c0.1,0.2,0.2,0.4,0.3,0.5c0.5,0.4,0.3,0.8-0.1,1.1C298.7,192.1,298.4,192.3,298.1,192.8L298.1,192.8z"/>
					<path class="st130" d="M295,190.4c0,0.1-0.1,0.3-0.2,0.3v-0.6C294.9,190.1,294.9,190.2,295,190.4z"/>
					<path class="st131" d="M297.5,190.4c-0.3,0.2-0.6,0.2-0.9,0H297.5z"/>
					<path class="st132" d="M297.1,195.6v-0.2c0-0.5,0.2-0.6,0.6-0.3c0.1,0,0.1,0.1,0.2,0.1C297.8,195.6,297.4,195.6,297.1,195.6
						L297.1,195.6z"/>
					<path class="st124" d="M297.9,195.1c-0.2,0-0.2-0.1-0.1-0.1c0.1-0.1,0.2-0.2,0.3-0.2C298,194.9,298,195,297.9,195.1
						L297.9,195.1z"/>
					<path class="st133" d="M295.9,192.4c-0.3-0.6-0.1-1.4,0.4-1.6c0.3-0.1,0.5,0.3,0.8,0.1c0.1,0.1,0.3,0.1,0.3,0.3
						c0,0.5,0.6,0.5,0.7,0.9c0,0.2-0.1,0.3-0.1,0.4v0.1l-0.3,0.6c-0.1,0.2-0.2,0.2-0.4,0.1l-0.3,0.3c-0.3,0.3-0.5,0.3-0.7-0.1
						C296.3,193.2,296.3,192.8,295.9,192.4z"/>
					<path class="st134" d="M297.7,195.1v0.1c-0.3-0.1-0.5,0-0.6,0.2c-0.1-0.1-0.2-0.2-0.2-0.4C297.2,195,297.5,194.6,297.7,195.1
						L297.7,195.1z"/>
					<path class="st135" d="M297.4,193.4c0.1,0,0.2-0.1,0.4-0.1c0.2,0.2,0,0.4-0.2,0.4C297.3,193.6,297.4,193.4,297.4,193.4
						L297.4,193.4z"/>
					<path class="st135" d="M298,192.1c-0.1-0.1-0.2-0.1-0.3-0.1c-0.5-0.1-0.6-0.3-0.4-0.7c0.1-0.1,0.2-0.2,0.4-0.1
						c0.4,0.2,0.7,0.3,0.8,0.8C298.2,191.9,298.2,192.2,298,192.1z"/>
					<path class="st127" d="M297.6,191.1c-0.1,0.1-0.2,0.2-0.4,0.1c0-0.1-0.1-0.2-0.1-0.4C297.4,190.9,297.5,191,297.6,191.1
						L297.6,191.1z"/>
					<path class="st127" d="M298,192.1c0.1-0.1,0.2-0.3,0.4-0.2c0,0.3-0.2,0.4-0.4,0.6V192.1L298,192.1z"/>
				</g>
			</g>
		</g>
	</g>
</g>
<g class="st0">
	<path class="st136" d="M143.7,768.5c0,0.3-0.1,0.6-0.2,0.8s-0.3,0.5-0.4,0.7c-0.2,0.2-0.4,0.4-0.7,0.5c-0.3,0.1-0.5,0.2-0.8,0.2
		c-0.3,0-0.5,0-0.8-0.1c-0.3-0.1-0.5-0.2-0.7-0.4s-0.4-0.4-0.5-0.7c-0.1-0.3-0.2-0.6-0.2-1.1v-5.1c0-0.3,0.1-0.6,0.2-0.8
		s0.3-0.5,0.4-0.7c0.2-0.2,0.4-0.3,0.7-0.4c0.3-0.1,0.6-0.2,0.9-0.2c0.3,0,0.6,0.1,0.8,0.2c0.3,0.1,0.5,0.3,0.7,0.5
		c0.2,0.2,0.3,0.4,0.4,0.7c0.1,0.3,0.2,0.6,0.2,0.9v0.5h-1.3v-0.4c0-0.3-0.1-0.5-0.2-0.7c-0.1-0.2-0.3-0.3-0.6-0.3
		c-0.3,0-0.5,0.1-0.7,0.3c-0.1,0.2-0.2,0.5-0.2,0.8v4.7c0,0.3,0.1,0.5,0.2,0.7c0.1,0.2,0.3,0.3,0.6,0.3c0.1,0,0.2,0,0.3,0
		c0.1,0,0.2-0.1,0.3-0.1c0.1-0.1,0.1-0.2,0.2-0.3c0.1-0.1,0.1-0.3,0.1-0.5v-0.5h1.3V768.5z"/>
	<path class="st136" d="M144.7,764h1.3v0.7c0.3-0.2,0.5-0.4,0.8-0.6c0.3-0.1,0.6-0.2,1-0.2v1.4c-0.1-0.1-0.3-0.1-0.4-0.1
		c-0.1,0-0.3,0-0.4,0.1s-0.3,0.1-0.4,0.2c-0.1,0.1-0.2,0.3-0.3,0.4c-0.1,0.2-0.1,0.4-0.1,0.7v3.9h-1.3V764z"/>
	<path class="st136" d="M149.5,767.8v0.9c0,0.2,0.1,0.4,0.2,0.5c0.1,0.1,0.3,0.2,0.5,0.2c0.3,0,0.4-0.1,0.5-0.2
		c0.1-0.1,0.1-0.3,0.1-0.4h1.3c0,0.3,0,0.5-0.1,0.8c-0.1,0.2-0.2,0.5-0.4,0.6c-0.2,0.2-0.4,0.3-0.6,0.4c-0.2,0.1-0.5,0.2-0.8,0.2
		c-0.4,0-0.8-0.1-1.1-0.3c-0.3-0.2-0.5-0.4-0.7-0.7c-0.1-0.2-0.2-0.4-0.2-0.6s-0.1-0.5-0.1-0.7v-2.2c0-0.3,0-0.5,0.1-0.7
		s0.1-0.4,0.2-0.6c0.2-0.3,0.4-0.5,0.7-0.7c0.3-0.2,0.6-0.3,1.1-0.3c0.3,0,0.6,0.1,0.8,0.2c0.2,0.1,0.5,0.2,0.6,0.4s0.3,0.4,0.4,0.7
		c0.1,0.3,0.1,0.5,0.1,0.8v1.8H149.5z M149.5,766.7h1.3V766c0-0.3-0.1-0.4-0.2-0.6c-0.1-0.1-0.3-0.2-0.5-0.2c-0.2,0-0.4,0.1-0.5,0.2
		c-0.1,0.1-0.2,0.3-0.2,0.6V766.7z"/>
	<path class="st136" d="M155.6,769.9L155.6,769.9c-0.2,0.2-0.4,0.4-0.6,0.6s-0.4,0.2-0.7,0.2c-0.2,0-0.3,0-0.5-0.1
		c-0.2,0-0.3-0.1-0.5-0.3c-0.1-0.1-0.3-0.3-0.4-0.5c-0.1-0.2-0.1-0.5-0.1-0.9c0-0.4,0-0.7,0.1-1c0.1-0.3,0.2-0.5,0.3-0.7
		c0.2-0.2,0.4-0.3,0.6-0.4c0.3-0.1,0.6-0.1,1-0.1c0.1,0,0.2,0,0.3,0c0.1,0,0.2,0,0.4,0V766c0-0.2,0-0.4-0.1-0.6
		c-0.1-0.1-0.3-0.2-0.5-0.2c-0.2,0-0.3,0.1-0.5,0.2s-0.2,0.3-0.3,0.5h-1.3c0-0.6,0.2-1.1,0.6-1.4c0.2-0.2,0.4-0.3,0.6-0.4
		c0.2-0.1,0.5-0.1,0.8-0.1c0.3,0,0.5,0,0.8,0.1s0.5,0.2,0.6,0.4c0.2,0.2,0.3,0.4,0.4,0.7s0.2,0.6,0.2,0.9v4.6h-1.3V769.9z
		 M155.6,767.7c-0.1,0-0.3,0-0.4,0c-0.3,0-0.5,0.1-0.7,0.2c-0.2,0.1-0.3,0.4-0.3,0.7c0,0.3,0.1,0.5,0.2,0.6c0.1,0.2,0.3,0.2,0.5,0.2
		c0.2,0,0.4-0.1,0.5-0.2c0.1-0.1,0.2-0.4,0.2-0.6V767.7z"/>
	<path class="st136" d="M157.9,762h1.3v2h0.8v1h-0.8v3.7c0,0.2,0,0.3,0,0.4c0,0.1,0.1,0.2,0.1,0.2s0.1,0.1,0.3,0.1s0.2,0,0.4,0v1.2
		h-0.5c-0.3,0-0.6,0-0.8-0.1c-0.2-0.1-0.4-0.2-0.5-0.4c-0.1-0.1-0.2-0.3-0.3-0.5c-0.1-0.2-0.1-0.4-0.1-0.5v-4h-0.7v-1h0.7V762z"/>
	<path class="st136" d="M160.6,761.3h1.3v1.3h-1.3V761.3z M160.6,764h1.3v6.6h-1.3V764z"/>
	<path class="st136" d="M163,764h1.3v0.6h0c0.1-0.2,0.3-0.4,0.5-0.5c0.2-0.1,0.4-0.2,0.7-0.2c0.2,0,0.3,0,0.5,0.1
		c0.2,0.1,0.3,0.2,0.4,0.3s0.2,0.3,0.3,0.5c0.1,0.2,0.1,0.5,0.1,0.7v5.1h-1.3V766c0-0.2-0.1-0.4-0.2-0.6c-0.1-0.1-0.3-0.2-0.5-0.2
		c-0.3,0-0.4,0.1-0.5,0.2c-0.1,0.2-0.1,0.4-0.1,0.7v4.4H163V764z"/>
	<path class="st136" d="M169.4,771.3c0,0.2,0.1,0.3,0.2,0.4s0.3,0.2,0.5,0.2c0.2,0,0.4-0.1,0.5-0.2c0.1-0.1,0.1-0.3,0.1-0.5V770h0
		c-0.1,0.2-0.3,0.4-0.5,0.5s-0.4,0.2-0.7,0.2c-0.5,0-0.9-0.2-1.2-0.6c-0.1-0.1-0.1-0.3-0.2-0.5c0-0.2-0.1-0.5-0.1-0.9v-2.5
		c0-0.5,0-0.8,0-1.1c0-0.2,0.1-0.4,0.2-0.5c0.1-0.2,0.3-0.3,0.4-0.4s0.4-0.2,0.7-0.2c0.2,0,0.3,0,0.4,0.1c0.1,0,0.2,0.1,0.3,0.1
		c0.1,0.1,0.2,0.1,0.3,0.2c0.1,0.1,0.2,0.2,0.2,0.3V764h1.3v7.4c0,0.2,0,0.5-0.1,0.7s-0.2,0.4-0.4,0.6s-0.4,0.3-0.6,0.5
		s-0.6,0.2-0.9,0.2c-0.2,0-0.4,0-0.6-0.1s-0.4-0.2-0.6-0.3s-0.3-0.4-0.5-0.6s-0.2-0.6-0.3-0.9H169.4z M169.4,768.5
		c0,0.2,0,0.4,0.1,0.5c0.1,0.2,0.3,0.2,0.5,0.2c0.2,0,0.3-0.1,0.5-0.2c0.1-0.1,0.2-0.3,0.2-0.5V766c0-0.2-0.1-0.4-0.2-0.6
		c-0.1-0.2-0.3-0.2-0.5-0.2c-0.2,0-0.4,0.1-0.5,0.2c-0.1,0.2-0.2,0.4-0.2,0.6V768.5z"/>
	<path class="st136" d="M175.5,763.5c0-0.4,0.1-0.7,0.2-1c0.1-0.3,0.3-0.5,0.5-0.7s0.5-0.3,0.7-0.4c0.3-0.1,0.5-0.1,0.8-0.1
		s0.5,0,0.8,0.1c0.3,0.1,0.5,0.2,0.7,0.4c0.2,0.2,0.4,0.4,0.5,0.7c0.1,0.3,0.2,0.6,0.2,1v4.9c0,0.4-0.1,0.7-0.2,1s-0.3,0.5-0.5,0.7
		c-0.2,0.2-0.5,0.3-0.7,0.4c-0.3,0.1-0.5,0.1-0.8,0.1s-0.5,0-0.8-0.1c-0.3-0.1-0.5-0.2-0.7-0.4s-0.4-0.4-0.5-0.7
		c-0.1-0.3-0.2-0.6-0.2-1V763.5z M176.8,768.4c0,0.3,0.1,0.6,0.3,0.7c0.2,0.2,0.4,0.2,0.6,0.2s0.5-0.1,0.6-0.2s0.3-0.4,0.3-0.7v-4.9
		c0-0.3-0.1-0.6-0.3-0.7s-0.4-0.2-0.6-0.2s-0.5,0.1-0.6,0.2c-0.2,0.2-0.3,0.4-0.3,0.7V768.4z"/>
	<path class="st136" d="M181,764h1.3v0.6h0c0.1-0.2,0.3-0.4,0.5-0.5c0.2-0.1,0.4-0.2,0.7-0.2c0.2,0,0.3,0,0.5,0.1
		c0.2,0.1,0.3,0.2,0.4,0.3s0.2,0.3,0.3,0.5c0.1,0.2,0.1,0.5,0.1,0.7v5.1h-1.3V766c0-0.2-0.1-0.4-0.2-0.6c-0.1-0.1-0.3-0.2-0.5-0.2
		c-0.3,0-0.4,0.1-0.5,0.2c-0.1,0.2-0.1,0.4-0.1,0.7v4.4H181V764z"/>
	<path class="st136" d="M187.3,767.8v0.9c0,0.2,0.1,0.4,0.2,0.5c0.1,0.1,0.3,0.2,0.5,0.2c0.3,0,0.4-0.1,0.5-0.2
		c0.1-0.1,0.1-0.3,0.1-0.4h1.3c0,0.3,0,0.5-0.1,0.8c-0.1,0.2-0.2,0.5-0.4,0.6c-0.2,0.2-0.4,0.3-0.6,0.4c-0.2,0.1-0.5,0.2-0.8,0.2
		c-0.4,0-0.8-0.1-1.1-0.3c-0.3-0.2-0.5-0.4-0.7-0.7c-0.1-0.2-0.2-0.4-0.2-0.6s-0.1-0.5-0.1-0.7v-2.2c0-0.3,0-0.5,0.1-0.7
		s0.1-0.4,0.2-0.6c0.2-0.3,0.4-0.5,0.7-0.7c0.3-0.2,0.6-0.3,1.1-0.3c0.3,0,0.6,0.1,0.8,0.2c0.2,0.1,0.5,0.2,0.6,0.4s0.3,0.4,0.4,0.7
		c0.1,0.3,0.1,0.5,0.1,0.8v1.8H187.3z M187.3,766.7h1.3V766c0-0.3-0.1-0.4-0.2-0.6c-0.1-0.1-0.3-0.2-0.5-0.2c-0.2,0-0.4,0.1-0.5,0.2
		c-0.1,0.1-0.2,0.3-0.2,0.6V766.7z"/>
	<path class="st136" d="M193.4,761.3h1.3v4h1.6v-4h1.3v9.3h-1.3v-4.1h-1.6v4.1h-1.3V761.3z"/>
	<path class="st136" d="M198.9,761.3h1.3v1.3h-1.3V761.3z M198.9,764h1.3v6.6h-1.3V764z"/>
	<path class="st136" d="M203.7,765.8c0-0.2-0.1-0.4-0.2-0.5s-0.3-0.2-0.5-0.2c-0.2,0-0.4,0.1-0.5,0.2c-0.1,0.1-0.2,0.3-0.2,0.5
		c0,0.1,0,0.2,0.1,0.4s0.2,0.2,0.5,0.3l0.8,0.3c0.5,0.2,0.8,0.5,1,0.8c0.2,0.3,0.3,0.7,0.3,1.1c0,0.3-0.1,0.5-0.1,0.8
		s-0.2,0.4-0.4,0.6c-0.2,0.2-0.4,0.3-0.6,0.4c-0.2,0.1-0.5,0.2-0.8,0.2c-0.3,0-0.5,0-0.7-0.1c-0.2-0.1-0.4-0.2-0.6-0.4
		c-0.2-0.2-0.3-0.4-0.4-0.6c-0.1-0.2-0.2-0.5-0.2-0.9h1.2c0,0.2,0.1,0.4,0.2,0.5c0.1,0.2,0.3,0.2,0.5,0.2c0.2,0,0.4-0.1,0.5-0.2
		c0.2-0.1,0.2-0.3,0.2-0.5c0-0.2,0-0.3-0.1-0.5c-0.1-0.1-0.3-0.2-0.5-0.3l-0.6-0.2c-0.4-0.2-0.7-0.4-1-0.7s-0.4-0.7-0.4-1.1
		c0-0.3,0.1-0.5,0.2-0.8s0.2-0.4,0.4-0.6c0.2-0.2,0.4-0.3,0.6-0.4c0.2-0.1,0.5-0.1,0.8-0.1c0.3,0,0.5,0,0.7,0.1
		c0.2,0.1,0.4,0.2,0.6,0.4s0.3,0.4,0.4,0.6c0.1,0.2,0.1,0.5,0.1,0.8H203.7z"/>
	<path class="st136" d="M205.9,762h1.3v2h0.8v1h-0.8v3.7c0,0.2,0,0.3,0,0.4c0,0.1,0.1,0.2,0.1,0.2s0.1,0.1,0.3,0.1s0.2,0,0.4,0v1.2
		h-0.5c-0.3,0-0.6,0-0.8-0.1c-0.2-0.1-0.4-0.2-0.5-0.4c-0.1-0.1-0.2-0.3-0.3-0.5c-0.1-0.2-0.1-0.4-0.1-0.5v-4h-0.7v-1h0.7V762z"/>
	<path class="st136" d="M208.4,766.2c0-0.3,0-0.5,0.1-0.7s0.1-0.4,0.2-0.6c0.2-0.3,0.4-0.5,0.7-0.7c0.3-0.2,0.6-0.3,1.1-0.3
		c0.4,0,0.8,0.1,1.1,0.3c0.3,0.2,0.5,0.4,0.7,0.7c0.1,0.2,0.2,0.4,0.2,0.6s0.1,0.5,0.1,0.7v2.2c0,0.3,0,0.5-0.1,0.7
		s-0.1,0.4-0.2,0.6c-0.2,0.3-0.4,0.5-0.7,0.7c-0.3,0.2-0.6,0.3-1.1,0.3c-0.4,0-0.8-0.1-1.1-0.3c-0.3-0.2-0.5-0.4-0.7-0.7
		c-0.1-0.2-0.2-0.4-0.2-0.6s-0.1-0.5-0.1-0.7V766.2z M209.7,768.5c0,0.3,0.1,0.4,0.2,0.6c0.1,0.1,0.3,0.2,0.5,0.2
		c0.2,0,0.4-0.1,0.5-0.2c0.1-0.1,0.2-0.3,0.2-0.6V766c0-0.3-0.1-0.4-0.2-0.6c-0.1-0.1-0.3-0.2-0.5-0.2c-0.2,0-0.4,0.1-0.5,0.2
		c-0.1,0.1-0.2,0.3-0.2,0.6V768.5z"/>
	<path class="st136" d="M213.3,764h1.3v0.7c0.3-0.2,0.5-0.4,0.8-0.6c0.3-0.1,0.6-0.2,1-0.2v1.4c-0.1-0.1-0.3-0.1-0.4-0.1
		c-0.1,0-0.3,0-0.4,0.1s-0.3,0.1-0.4,0.2c-0.1,0.1-0.2,0.3-0.3,0.4c-0.1,0.2-0.1,0.4-0.1,0.7v3.9h-1.3V764z"/>
	<path class="st136" d="M216.9,761.3h1.3v1.3h-1.3V761.3z M216.9,764h1.3v6.6h-1.3V764z"/>
	<path class="st136" d="M220.8,768.7c0,0.2,0.1,0.4,0.2,0.5s0.3,0.2,0.5,0.2c0.3,0,0.4-0.1,0.5-0.2c0.1-0.1,0.1-0.3,0.1-0.4h1.3
		c0,0.3,0,0.5-0.1,0.8s-0.2,0.5-0.4,0.6c-0.2,0.2-0.4,0.3-0.6,0.4c-0.2,0.1-0.5,0.2-0.8,0.2c-0.4,0-0.8-0.1-1.1-0.3
		c-0.3-0.2-0.5-0.4-0.7-0.7c-0.1-0.2-0.2-0.4-0.2-0.6s-0.1-0.5-0.1-0.7v-2.2c0-0.3,0-0.5,0.1-0.7s0.1-0.4,0.2-0.6
		c0.2-0.3,0.4-0.5,0.7-0.7c0.3-0.2,0.6-0.3,1.1-0.3c0.3,0,0.6,0.1,0.8,0.2c0.2,0.1,0.5,0.2,0.6,0.4s0.3,0.4,0.4,0.7s0.1,0.5,0.1,0.8
		h-1.3c0-0.3-0.1-0.5-0.2-0.6c-0.1-0.1-0.3-0.2-0.5-0.2c-0.2,0-0.4,0.1-0.5,0.2s-0.2,0.3-0.2,0.6V768.7z"/>
	<path class="st136" d="M226.7,761.3h1.3l1.7,4.9h0l1.7-4.9h1.3v9.3h-1.3v-5.6h0l-1.3,4h-0.7l-1.3-4h0v5.6h-1.3V761.3z"/>
	<path class="st136" d="M233.7,766.2c0-0.3,0-0.5,0.1-0.7s0.1-0.4,0.2-0.6c0.2-0.3,0.4-0.5,0.7-0.7c0.3-0.2,0.6-0.3,1.1-0.3
		c0.4,0,0.8,0.1,1.1,0.3c0.3,0.2,0.5,0.4,0.7,0.7c0.1,0.2,0.2,0.4,0.2,0.6s0.1,0.5,0.1,0.7v2.2c0,0.3,0,0.5-0.1,0.7
		s-0.1,0.4-0.2,0.6c-0.2,0.3-0.4,0.5-0.7,0.7c-0.3,0.2-0.6,0.3-1.1,0.3c-0.4,0-0.8-0.1-1.1-0.3c-0.3-0.2-0.5-0.4-0.7-0.7
		c-0.1-0.2-0.2-0.4-0.2-0.6s-0.1-0.5-0.1-0.7V766.2z M235,768.5c0,0.3,0.1,0.4,0.2,0.6c0.1,0.1,0.3,0.2,0.5,0.2
		c0.2,0,0.4-0.1,0.5-0.2c0.1-0.1,0.2-0.3,0.2-0.6V766c0-0.3-0.1-0.4-0.2-0.6c-0.1-0.1-0.3-0.2-0.5-0.2c-0.2,0-0.4,0.1-0.5,0.2
		c-0.1,0.1-0.2,0.3-0.2,0.6V768.5z"/>
	<path class="st136" d="M238.6,764h1.3v0.6h0c0.1-0.2,0.3-0.4,0.5-0.5c0.2-0.1,0.4-0.2,0.7-0.2c0.3,0,0.5,0.1,0.7,0.2
		c0.2,0.1,0.3,0.3,0.5,0.5c0.2-0.2,0.3-0.3,0.5-0.5c0.2-0.1,0.5-0.2,0.8-0.2c0.2,0,0.3,0,0.5,0.1c0.2,0.1,0.3,0.2,0.5,0.3
		c0.1,0.1,0.3,0.3,0.3,0.5c0.1,0.2,0.1,0.5,0.1,0.7v5.1h-1.3V766c0-0.2-0.1-0.4-0.2-0.6c-0.1-0.1-0.3-0.2-0.5-0.2
		c-0.3,0-0.4,0.1-0.5,0.2c-0.1,0.2-0.1,0.4-0.1,0.7v4.4h-1.3V766c0-0.2-0.1-0.4-0.2-0.6c-0.1-0.1-0.3-0.2-0.5-0.2
		c-0.3,0-0.4,0.1-0.5,0.2c-0.1,0.2-0.1,0.4-0.1,0.7v4.4h-1.3V764z"/>
	<path class="st136" d="M247.5,767.8v0.9c0,0.2,0.1,0.4,0.2,0.5c0.1,0.1,0.3,0.2,0.5,0.2c0.3,0,0.4-0.1,0.5-0.2
		c0.1-0.1,0.1-0.3,0.1-0.4h1.3c0,0.3,0,0.5-0.1,0.8c-0.1,0.2-0.2,0.5-0.4,0.6c-0.2,0.2-0.4,0.3-0.6,0.4c-0.2,0.1-0.5,0.2-0.8,0.2
		c-0.4,0-0.8-0.1-1.1-0.3c-0.3-0.2-0.5-0.4-0.7-0.7c-0.1-0.2-0.2-0.4-0.2-0.6s-0.1-0.5-0.1-0.7v-2.2c0-0.3,0-0.5,0.1-0.7
		s0.1-0.4,0.2-0.6c0.2-0.3,0.4-0.5,0.7-0.7c0.3-0.2,0.6-0.3,1.1-0.3c0.3,0,0.6,0.1,0.8,0.2c0.2,0.1,0.5,0.2,0.6,0.4s0.3,0.4,0.4,0.7
		c0.1,0.3,0.1,0.5,0.1,0.8v1.8H247.5z M247.5,766.7h1.3V766c0-0.3-0.1-0.4-0.2-0.6c-0.1-0.1-0.3-0.2-0.5-0.2c-0.2,0-0.4,0.1-0.5,0.2
		c-0.1,0.1-0.2,0.3-0.2,0.6V766.7z"/>
	<path class="st136" d="M251.1,764h1.3v0.6h0c0.1-0.2,0.3-0.4,0.5-0.5c0.2-0.1,0.4-0.2,0.7-0.2c0.2,0,0.3,0,0.5,0.1
		c0.2,0.1,0.3,0.2,0.4,0.3s0.2,0.3,0.3,0.5c0.1,0.2,0.1,0.5,0.1,0.7v5.1h-1.3V766c0-0.2-0.1-0.4-0.2-0.6c-0.1-0.1-0.3-0.2-0.5-0.2
		c-0.3,0-0.4,0.1-0.5,0.2c-0.1,0.2-0.1,0.4-0.1,0.7v4.4h-1.3V764z"/>
	<path class="st136" d="M256.2,762h1.3v2h0.8v1h-0.8v3.7c0,0.2,0,0.3,0,0.4c0,0.1,0.1,0.2,0.1,0.2s0.1,0.1,0.3,0.1s0.2,0,0.4,0v1.2
		h-0.5c-0.3,0-0.6,0-0.8-0.1c-0.2-0.1-0.4-0.2-0.5-0.4c-0.1-0.1-0.2-0.3-0.3-0.5c-0.1-0.2-0.1-0.4-0.1-0.5v-4h-0.7v-1h0.7V762z"/>
	<path class="st136" d="M262.2,762.5h-1.5v-1.2h4.4v1.2h-1.5v8h-1.3V762.5z"/>
	<path class="st136" d="M265.6,761.3h1.3v3.3h0c0.1-0.2,0.3-0.4,0.5-0.5c0.2-0.1,0.4-0.2,0.7-0.2c0.2,0,0.3,0,0.5,0.1
		c0.2,0.1,0.3,0.2,0.4,0.3s0.2,0.3,0.3,0.5c0.1,0.2,0.1,0.5,0.1,0.7v5.1h-1.3V766c0-0.2-0.1-0.4-0.2-0.6c-0.1-0.1-0.3-0.2-0.5-0.2
		c-0.3,0-0.4,0.1-0.5,0.2c-0.1,0.2-0.1,0.4-0.1,0.7v4.4h-1.3V761.3z"/>
	<path class="st136" d="M273.1,769.9L273.1,769.9c-0.2,0.2-0.4,0.4-0.6,0.6s-0.4,0.2-0.7,0.2c-0.2,0-0.3,0-0.5-0.1
		c-0.2,0-0.3-0.1-0.5-0.3c-0.1-0.1-0.3-0.3-0.4-0.5c-0.1-0.2-0.1-0.5-0.1-0.9c0-0.4,0-0.7,0.1-1c0.1-0.3,0.2-0.5,0.3-0.7
		c0.2-0.2,0.4-0.3,0.6-0.4c0.3-0.1,0.6-0.1,1-0.1c0.1,0,0.2,0,0.3,0c0.1,0,0.2,0,0.4,0V766c0-0.2,0-0.4-0.1-0.6
		c-0.1-0.1-0.3-0.2-0.5-0.2c-0.2,0-0.3,0.1-0.5,0.2s-0.2,0.3-0.3,0.5h-1.3c0-0.6,0.2-1.1,0.6-1.4c0.2-0.2,0.4-0.3,0.6-0.4
		c0.2-0.1,0.5-0.1,0.8-0.1c0.3,0,0.5,0,0.8,0.1s0.5,0.2,0.6,0.4c0.2,0.2,0.3,0.4,0.4,0.7s0.2,0.6,0.2,0.9v4.6h-1.3V769.9z
		 M273.1,767.7c-0.1,0-0.3,0-0.4,0c-0.3,0-0.5,0.1-0.7,0.2c-0.2,0.1-0.3,0.4-0.3,0.7c0,0.3,0.1,0.5,0.2,0.6c0.1,0.2,0.3,0.2,0.5,0.2
		c0.2,0,0.4-0.1,0.5-0.2c0.1-0.1,0.2-0.4,0.2-0.6V767.7z"/>
	<path class="st136" d="M275.4,762h1.3v2h0.8v1h-0.8v3.7c0,0.2,0,0.3,0,0.4c0,0.1,0.1,0.2,0.1,0.2s0.1,0.1,0.3,0.1s0.2,0,0.4,0v1.2
		H277c-0.3,0-0.6,0-0.8-0.1c-0.2-0.1-0.4-0.2-0.5-0.4c-0.1-0.1-0.2-0.3-0.3-0.5c-0.1-0.2-0.1-0.4-0.1-0.5v-4h-0.7v-1h0.7V762z"/>
	<path class="st136" d="M284.8,768.5c0,0.3-0.1,0.6-0.2,0.8s-0.3,0.5-0.4,0.7c-0.2,0.2-0.4,0.4-0.7,0.5c-0.3,0.1-0.5,0.2-0.8,0.2
		c-0.3,0-0.5,0-0.8-0.1c-0.3-0.1-0.5-0.2-0.7-0.4s-0.4-0.4-0.5-0.7c-0.1-0.3-0.2-0.6-0.2-1.1v-5.1c0-0.3,0.1-0.6,0.2-0.8
		s0.3-0.5,0.4-0.7c0.2-0.2,0.4-0.3,0.7-0.4c0.3-0.1,0.6-0.2,0.9-0.2c0.3,0,0.6,0.1,0.8,0.2c0.3,0.1,0.5,0.3,0.7,0.5
		c0.2,0.2,0.3,0.4,0.4,0.7c0.1,0.3,0.2,0.6,0.2,0.9v0.5h-1.3v-0.4c0-0.3-0.1-0.5-0.2-0.7c-0.1-0.2-0.3-0.3-0.6-0.3
		c-0.3,0-0.5,0.1-0.7,0.3c-0.1,0.2-0.2,0.5-0.2,0.8v4.7c0,0.3,0.1,0.5,0.2,0.7c0.1,0.2,0.3,0.3,0.6,0.3c0.1,0,0.2,0,0.3,0
		c0.1,0,0.2-0.1,0.3-0.1c0.1-0.1,0.1-0.2,0.2-0.3c0.1-0.1,0.1-0.3,0.1-0.5v-0.5h1.3V768.5z"/>
	<path class="st136" d="M285.8,761.3h1.3v3.3h0c0.1-0.2,0.3-0.4,0.5-0.5c0.2-0.1,0.4-0.2,0.7-0.2c0.2,0,0.3,0,0.5,0.1
		c0.2,0.1,0.3,0.2,0.4,0.3s0.2,0.3,0.3,0.5c0.1,0.2,0.1,0.5,0.1,0.7v5.1h-1.3V766c0-0.2-0.1-0.4-0.2-0.6c-0.1-0.1-0.3-0.2-0.5-0.2
		c-0.3,0-0.4,0.1-0.5,0.2c-0.1,0.2-0.1,0.4-0.1,0.7v4.4h-1.3V761.3z"/>
	<path class="st136" d="M293.4,769.9L293.4,769.9c-0.2,0.2-0.4,0.4-0.6,0.6s-0.4,0.2-0.7,0.2c-0.2,0-0.3,0-0.5-0.1
		c-0.2,0-0.3-0.1-0.5-0.3c-0.1-0.1-0.3-0.3-0.4-0.5c-0.1-0.2-0.1-0.5-0.1-0.9c0-0.4,0-0.7,0.1-1c0.1-0.3,0.2-0.5,0.3-0.7
		c0.2-0.2,0.4-0.3,0.6-0.4c0.3-0.1,0.6-0.1,1-0.1c0.1,0,0.2,0,0.3,0c0.1,0,0.2,0,0.4,0V766c0-0.2,0-0.4-0.1-0.6
		c-0.1-0.1-0.3-0.2-0.5-0.2c-0.2,0-0.3,0.1-0.5,0.2s-0.2,0.3-0.3,0.5h-1.3c0-0.6,0.2-1.1,0.6-1.4c0.2-0.2,0.4-0.3,0.6-0.4
		c0.2-0.1,0.5-0.1,0.8-0.1c0.3,0,0.5,0,0.8,0.1s0.5,0.2,0.6,0.4c0.2,0.2,0.3,0.4,0.4,0.7s0.2,0.6,0.2,0.9v4.6h-1.3V769.9z
		 M293.4,767.7c-0.1,0-0.3,0-0.4,0c-0.3,0-0.5,0.1-0.7,0.2c-0.2,0.1-0.3,0.4-0.3,0.7c0,0.3,0.1,0.5,0.2,0.6c0.1,0.2,0.3,0.2,0.5,0.2
		c0.2,0,0.4-0.1,0.5-0.2c0.1-0.1,0.2-0.4,0.2-0.6V767.7z"/>
	<path class="st136" d="M295.7,764h1.3v0.6h0c0.1-0.2,0.3-0.4,0.5-0.5c0.2-0.1,0.4-0.2,0.7-0.2c0.2,0,0.3,0,0.5,0.1
		c0.2,0.1,0.3,0.2,0.4,0.3s0.2,0.3,0.3,0.5c0.1,0.2,0.1,0.5,0.1,0.7v5.1h-1.3V766c0-0.2-0.1-0.4-0.2-0.6c-0.1-0.1-0.3-0.2-0.5-0.2
		c-0.3,0-0.4,0.1-0.5,0.2c-0.1,0.2-0.1,0.4-0.1,0.7v4.4h-1.3V764z"/>
	<path class="st136" d="M302,771.3c0,0.2,0.1,0.3,0.2,0.4s0.3,0.2,0.5,0.2c0.2,0,0.4-0.1,0.5-0.2c0.1-0.1,0.1-0.3,0.1-0.5V770h0
		c-0.1,0.2-0.3,0.4-0.5,0.5c-0.2,0.1-0.4,0.2-0.7,0.2c-0.5,0-0.9-0.2-1.2-0.6c-0.1-0.1-0.1-0.3-0.2-0.5s-0.1-0.5-0.1-0.9v-2.5
		c0-0.5,0-0.8,0-1.1c0-0.2,0.1-0.4,0.2-0.5c0.1-0.2,0.3-0.3,0.4-0.4s0.4-0.2,0.7-0.2c0.2,0,0.3,0,0.4,0.1c0.1,0,0.2,0.1,0.3,0.1
		s0.2,0.1,0.3,0.2c0.1,0.1,0.2,0.2,0.2,0.3V764h1.3v7.4c0,0.2,0,0.5-0.1,0.7c-0.1,0.2-0.2,0.4-0.4,0.6c-0.2,0.2-0.4,0.3-0.6,0.5
		c-0.3,0.1-0.6,0.2-0.9,0.2c-0.2,0-0.4,0-0.6-0.1s-0.4-0.2-0.6-0.3s-0.3-0.4-0.5-0.6c-0.1-0.3-0.2-0.6-0.3-0.9H302z M302,768.5
		c0,0.2,0,0.4,0.1,0.5c0.1,0.2,0.3,0.2,0.5,0.2c0.2,0,0.3-0.1,0.5-0.2c0.1-0.1,0.2-0.3,0.2-0.5V766c0-0.2-0.1-0.4-0.2-0.6
		c-0.1-0.2-0.3-0.2-0.5-0.2c-0.2,0-0.4,0.1-0.5,0.2c-0.1,0.2-0.2,0.4-0.2,0.6V768.5z"/>
	<path class="st136" d="M307,767.8v0.9c0,0.2,0.1,0.4,0.2,0.5c0.1,0.1,0.3,0.2,0.5,0.2c0.3,0,0.4-0.1,0.5-0.2s0.1-0.3,0.1-0.4h1.3
		c0,0.3,0,0.5-0.1,0.8s-0.2,0.5-0.4,0.6c-0.2,0.2-0.4,0.3-0.6,0.4c-0.2,0.1-0.5,0.2-0.8,0.2c-0.4,0-0.8-0.1-1.1-0.3
		c-0.3-0.2-0.5-0.4-0.7-0.7c-0.1-0.2-0.2-0.4-0.2-0.6c0-0.2-0.1-0.5-0.1-0.7v-2.2c0-0.3,0-0.5,0.1-0.7c0-0.2,0.1-0.4,0.2-0.6
		c0.2-0.3,0.4-0.5,0.7-0.7c0.3-0.2,0.6-0.3,1.1-0.3c0.3,0,0.6,0.1,0.8,0.2c0.2,0.1,0.5,0.2,0.6,0.4s0.3,0.4,0.4,0.7s0.1,0.5,0.1,0.8
		v1.8H307z M307,766.7h1.3V766c0-0.3-0.1-0.4-0.2-0.6c-0.1-0.1-0.3-0.2-0.5-0.2c-0.2,0-0.4,0.1-0.5,0.2c-0.1,0.1-0.2,0.3-0.2,0.6
		V766.7z"/>
	<path class="st136" d="M313,765.8c0-0.2-0.1-0.4-0.2-0.5c-0.1-0.1-0.3-0.2-0.5-0.2c-0.2,0-0.4,0.1-0.5,0.2
		c-0.1,0.1-0.2,0.3-0.2,0.5c0,0.1,0,0.2,0.1,0.4s0.2,0.2,0.5,0.3l0.8,0.3c0.5,0.2,0.8,0.5,1,0.8c0.2,0.3,0.3,0.7,0.3,1.1
		c0,0.3-0.1,0.5-0.2,0.8s-0.2,0.4-0.4,0.6c-0.2,0.2-0.4,0.3-0.6,0.4c-0.2,0.1-0.5,0.2-0.8,0.2c-0.3,0-0.5,0-0.7-0.1
		c-0.2-0.1-0.4-0.2-0.6-0.4c-0.2-0.2-0.3-0.4-0.4-0.6s-0.2-0.5-0.2-0.9h1.2c0,0.2,0.1,0.4,0.2,0.5c0.1,0.2,0.3,0.2,0.5,0.2
		c0.2,0,0.4-0.1,0.5-0.2c0.2-0.1,0.2-0.3,0.2-0.5c0-0.2,0-0.3-0.1-0.5c-0.1-0.1-0.3-0.2-0.5-0.3l-0.6-0.2c-0.4-0.2-0.7-0.4-1-0.7
		s-0.4-0.7-0.4-1.1c0-0.3,0.1-0.5,0.2-0.8c0.1-0.2,0.2-0.4,0.4-0.6c0.2-0.2,0.4-0.3,0.6-0.4c0.2-0.1,0.5-0.1,0.8-0.1s0.5,0,0.7,0.1
		c0.2,0.1,0.4,0.2,0.6,0.4c0.2,0.2,0.3,0.4,0.4,0.6c0.1,0.2,0.1,0.5,0.1,0.8H313z"/>
	<path class="st136" d="M317.7,761.3h4v1.2H319v2.7h2.3v1.2H319v2.7h2.6v1.3h-4V761.3z"/>
</g>
<g class="st0">
	<path class="st136" d="M324.7,770.5h-1.2l-1.7-6.6h1.4l0.9,4.2h0l0.9-4.2h1.4L324.7,770.5z"/>
</g>
<g class="st0">
	<path class="st136" d="M328.1,767.8v0.9c0,0.2,0.1,0.4,0.2,0.5s0.3,0.2,0.5,0.2c0.3,0,0.4-0.1,0.5-0.2c0.1-0.1,0.1-0.3,0.2-0.4h1.3
		c0,0.3,0,0.5-0.1,0.8c-0.1,0.2-0.2,0.5-0.4,0.6c-0.2,0.2-0.4,0.3-0.6,0.4c-0.2,0.1-0.5,0.2-0.8,0.2c-0.4,0-0.8-0.1-1.1-0.3
		c-0.3-0.2-0.5-0.4-0.7-0.7c-0.1-0.2-0.2-0.4-0.2-0.6c0-0.2-0.1-0.5-0.1-0.7v-2.2c0-0.3,0-0.5,0.1-0.7c0-0.2,0.1-0.4,0.2-0.6
		c0.2-0.3,0.4-0.5,0.7-0.7c0.3-0.2,0.6-0.3,1.1-0.3c0.3,0,0.6,0.1,0.8,0.2c0.2,0.1,0.5,0.2,0.6,0.4s0.3,0.4,0.4,0.7
		c0.1,0.3,0.1,0.5,0.1,0.8v1.8H328.1z M328.1,766.7h1.3V766c0-0.3-0.1-0.4-0.2-0.6s-0.3-0.2-0.5-0.2s-0.4,0.1-0.5,0.2
		s-0.2,0.3-0.2,0.6V766.7z"/>
</g>
<g class="st0">
	<path class="st136" d="M331.7,764h1.3v0.7c0.3-0.2,0.5-0.4,0.8-0.6c0.3-0.1,0.6-0.2,1-0.2v1.4c-0.1-0.1-0.3-0.1-0.4-0.1
		s-0.3,0-0.4,0.1s-0.3,0.1-0.4,0.2c-0.1,0.1-0.2,0.3-0.3,0.4c-0.1,0.2-0.1,0.4-0.1,0.7v3.9h-1.3V764z"/>
</g>
<g class="st0">
	<path class="st136" d="M336.4,764l0.9,4.1h0l0.9-4.1h1.4l-1.9,7.7c-0.1,0.3-0.2,0.5-0.3,0.7c-0.1,0.2-0.3,0.4-0.4,0.5
		s-0.3,0.2-0.5,0.2c-0.2,0-0.4,0.1-0.6,0.1h-0.4V772h0.3c0.1,0,0.2,0,0.3-0.1c0.1,0,0.2-0.1,0.3-0.2c0.1-0.1,0.1-0.3,0.2-0.5
		s0.1-0.5,0.2-0.9L335,764H336.4z"/>
	<path class="st136" d="M340.1,762h1.3v2h0.8v1h-0.8v3.7c0,0.2,0,0.3,0,0.4c0,0.1,0.1,0.2,0.1,0.2c0.1,0,0.1,0.1,0.3,0.1
		s0.2,0,0.4,0v1.2h-0.5c-0.3,0-0.6,0-0.8-0.1c-0.2-0.1-0.4-0.2-0.5-0.4s-0.2-0.3-0.3-0.5c-0.1-0.2-0.1-0.4-0.1-0.5v-4h-0.7v-1h0.7
		V762z"/>
	<path class="st136" d="M342.8,761.3h1.3v3.3h0c0.1-0.2,0.3-0.4,0.5-0.5c0.2-0.1,0.4-0.2,0.7-0.2c0.2,0,0.3,0,0.5,0.1
		c0.2,0.1,0.3,0.2,0.4,0.3c0.1,0.1,0.2,0.3,0.3,0.5c0.1,0.2,0.1,0.5,0.1,0.7v5.1h-1.3V766c0-0.2-0.1-0.4-0.2-0.6
		c-0.1-0.1-0.3-0.2-0.5-0.2c-0.3,0-0.4,0.1-0.5,0.2c-0.1,0.2-0.1,0.4-0.1,0.7v4.4h-1.3V761.3z"/>
	<path class="st136" d="M347.8,761.3h1.3v1.3h-1.3V761.3z M347.8,764h1.3v6.6h-1.3V764z"/>
	<path class="st136" d="M350.2,764h1.3v0.6h0c0.1-0.2,0.3-0.4,0.5-0.5c0.2-0.1,0.4-0.2,0.7-0.2c0.2,0,0.3,0,0.5,0.1
		c0.2,0.1,0.3,0.2,0.4,0.3c0.1,0.1,0.2,0.3,0.3,0.5c0.1,0.2,0.1,0.5,0.1,0.7v5.1h-1.3V766c0-0.2-0.1-0.4-0.2-0.6
		c-0.1-0.1-0.3-0.2-0.5-0.2c-0.3,0-0.4,0.1-0.5,0.2c-0.1,0.2-0.1,0.4-0.1,0.7v4.4h-1.3V764z"/>
	<path class="st136" d="M356.6,771.3c0,0.2,0.1,0.3,0.2,0.4s0.3,0.2,0.5,0.2c0.2,0,0.4-0.1,0.5-0.2c0.1-0.1,0.1-0.3,0.1-0.5V770h0
		c-0.1,0.2-0.3,0.4-0.5,0.5s-0.4,0.2-0.7,0.2c-0.5,0-0.9-0.2-1.2-0.6c-0.1-0.1-0.1-0.3-0.2-0.5c0-0.2-0.1-0.5-0.1-0.9v-2.5
		c0-0.5,0-0.8,0-1.1c0-0.2,0.1-0.4,0.2-0.5c0.1-0.2,0.3-0.3,0.4-0.4s0.4-0.2,0.7-0.2c0.2,0,0.3,0,0.4,0.1c0.1,0,0.2,0.1,0.3,0.1
		s0.2,0.1,0.3,0.2c0.1,0.1,0.2,0.2,0.2,0.3V764h1.3v7.4c0,0.2,0,0.5-0.1,0.7c-0.1,0.2-0.2,0.4-0.4,0.6c-0.2,0.2-0.4,0.3-0.6,0.5
		c-0.3,0.1-0.5,0.2-0.9,0.2c-0.2,0-0.4,0-0.6-0.1s-0.4-0.2-0.6-0.3s-0.3-0.4-0.5-0.6c-0.1-0.3-0.2-0.6-0.3-0.9H356.6z M356.6,768.5
		c0,0.2,0,0.4,0.1,0.5c0.1,0.2,0.3,0.2,0.5,0.2c0.2,0,0.3-0.1,0.5-0.2c0.1-0.1,0.2-0.3,0.2-0.5V766c0-0.2-0.1-0.4-0.2-0.6
		s-0.3-0.2-0.5-0.2c-0.2,0-0.4,0.1-0.5,0.2c-0.1,0.2-0.2,0.4-0.2,0.6V768.5z"/>
	<path class="st136" d="M362.8,763.5c0-0.4,0.1-0.7,0.2-1c0.1-0.3,0.3-0.5,0.5-0.7c0.2-0.2,0.5-0.3,0.7-0.4c0.3-0.1,0.5-0.1,0.8-0.1
		c0.3,0,0.5,0,0.8,0.1c0.3,0.1,0.5,0.2,0.7,0.4s0.4,0.4,0.5,0.7c0.1,0.3,0.2,0.6,0.2,1v4.9c0,0.4-0.1,0.7-0.2,1s-0.3,0.5-0.5,0.7
		s-0.5,0.3-0.7,0.4c-0.3,0.1-0.5,0.1-0.8,0.1c-0.3,0-0.5,0-0.8-0.1c-0.3-0.1-0.5-0.2-0.7-0.4c-0.2-0.2-0.4-0.4-0.5-0.7
		s-0.2-0.6-0.2-1V763.5z M364.1,768.4c0,0.3,0.1,0.6,0.3,0.7s0.4,0.2,0.6,0.2c0.2,0,0.5-0.1,0.6-0.2s0.3-0.4,0.3-0.7v-4.9
		c0-0.3-0.1-0.6-0.3-0.7s-0.4-0.2-0.6-0.2c-0.2,0-0.5,0.1-0.6,0.2s-0.3,0.4-0.3,0.7V768.4z"/>
	<path class="st136" d="M368.3,764h1.3v0.6h0c0.1-0.2,0.3-0.4,0.5-0.5c0.2-0.1,0.4-0.2,0.7-0.2c0.2,0,0.3,0,0.5,0.1
		c0.2,0.1,0.3,0.2,0.4,0.3c0.1,0.1,0.2,0.3,0.3,0.5c0.1,0.2,0.1,0.5,0.1,0.7v5.1H371V766c0-0.2-0.1-0.4-0.2-0.6s-0.3-0.2-0.5-0.2
		c-0.3,0-0.4,0.1-0.5,0.2c-0.1,0.2-0.1,0.4-0.1,0.7v4.4h-1.3V764z"/>
	<path class="st136" d="M375.9,761.3h4v1.2h-2.6v2.7h2.3v1.2h-2.3v2.7h2.6v1.3h-4V761.3z"/>
	<path class="st136" d="M383.1,769.9L383.1,769.9c-0.2,0.2-0.4,0.4-0.6,0.6s-0.4,0.2-0.7,0.2c-0.2,0-0.3,0-0.5-0.1
		c-0.2,0-0.3-0.1-0.5-0.3c-0.1-0.1-0.3-0.3-0.4-0.5c-0.1-0.2-0.1-0.5-0.1-0.9c0-0.4,0-0.7,0.1-1c0.1-0.3,0.2-0.5,0.3-0.7
		c0.2-0.2,0.4-0.3,0.6-0.4c0.3-0.1,0.6-0.1,1-0.1c0.1,0,0.2,0,0.3,0c0.1,0,0.2,0,0.4,0V766c0-0.2,0-0.4-0.1-0.6s-0.3-0.2-0.5-0.2
		c-0.2,0-0.3,0.1-0.5,0.2c-0.1,0.1-0.2,0.3-0.3,0.5h-1.3c0-0.6,0.2-1.1,0.6-1.4c0.2-0.2,0.4-0.3,0.6-0.4c0.2-0.1,0.5-0.1,0.8-0.1
		c0.3,0,0.5,0,0.8,0.1s0.5,0.2,0.6,0.4c0.2,0.2,0.3,0.4,0.4,0.7c0.1,0.3,0.2,0.6,0.2,0.9v4.6h-1.3V769.9z M383.1,767.7
		c-0.1,0-0.3,0-0.4,0c-0.3,0-0.5,0.1-0.7,0.2c-0.2,0.1-0.3,0.4-0.3,0.7c0,0.3,0.1,0.5,0.2,0.6c0.1,0.2,0.3,0.2,0.5,0.2
		c0.2,0,0.4-0.1,0.5-0.2c0.1-0.1,0.2-0.4,0.2-0.6V767.7z"/>
	<path class="st136" d="M385.4,764h1.3v0.7c0.3-0.2,0.5-0.4,0.8-0.6s0.6-0.2,1-0.2v1.4c-0.1-0.1-0.3-0.1-0.4-0.1
		c-0.1,0-0.3,0-0.4,0.1s-0.3,0.1-0.4,0.2c-0.1,0.1-0.2,0.3-0.3,0.4c-0.1,0.2-0.1,0.4-0.1,0.7v3.9h-1.3V764z"/>
	<path class="st136" d="M389,762h1.3v2h0.8v1h-0.8v3.7c0,0.2,0,0.3,0,0.4c0,0.1,0.1,0.2,0.1,0.2c0.1,0,0.2,0.1,0.3,0.1s0.2,0,0.4,0
		v1.2h-0.5c-0.3,0-0.6,0-0.8-0.1c-0.2-0.1-0.4-0.2-0.5-0.4c-0.1-0.1-0.2-0.3-0.3-0.5c-0.1-0.2-0.1-0.4-0.1-0.5v-4h-0.7v-1h0.7V762z"
		/>
	<path class="st136" d="M391.7,761.3h1.3v3.3h0c0.1-0.2,0.3-0.4,0.5-0.5c0.2-0.1,0.4-0.2,0.7-0.2c0.2,0,0.3,0,0.5,0.1
		c0.2,0.1,0.3,0.2,0.4,0.3s0.2,0.3,0.3,0.5c0.1,0.2,0.1,0.5,0.1,0.7v5.1h-1.3V766c0-0.2-0.1-0.4-0.2-0.6c-0.1-0.1-0.3-0.2-0.5-0.2
		c-0.3,0-0.4,0.1-0.5,0.2c-0.1,0.2-0.1,0.4-0.1,0.7v4.4h-1.3V761.3z"/>
</g>
<g class="st0">
	<path class="st136" d="M399.2,761.3h4v1.2h-2.6v2.8h2.3v1.2h-2.3v4h-1.3V761.3z"/>
</g>
<g class="st0">
	<path class="st136" d="M403.6,766.2c0-0.3,0-0.5,0.1-0.7c0-0.2,0.1-0.4,0.2-0.6c0.2-0.3,0.4-0.5,0.7-0.7c0.3-0.2,0.6-0.3,1.1-0.3
		s0.8,0.1,1.1,0.3c0.3,0.2,0.5,0.4,0.7,0.7c0.1,0.2,0.2,0.4,0.2,0.6c0,0.2,0.1,0.5,0.1,0.7v2.2c0,0.3,0,0.5-0.1,0.7
		c0,0.2-0.1,0.4-0.2,0.6c-0.2,0.3-0.4,0.5-0.7,0.7c-0.3,0.2-0.6,0.3-1.1,0.3s-0.8-0.1-1.1-0.3c-0.3-0.2-0.5-0.4-0.7-0.7
		c-0.1-0.2-0.2-0.4-0.2-0.6c0-0.2-0.1-0.5-0.1-0.7V766.2z M404.9,768.5c0,0.3,0.1,0.4,0.2,0.6s0.3,0.2,0.5,0.2s0.4-0.1,0.5-0.2
		s0.2-0.3,0.2-0.6V766c0-0.3-0.1-0.4-0.2-0.6s-0.3-0.2-0.5-0.2s-0.4,0.1-0.5,0.2s-0.2,0.3-0.2,0.6V768.5z"/>
	<path class="st136" d="M408.5,764h1.3v0.7c0.3-0.2,0.5-0.4,0.8-0.6c0.3-0.1,0.6-0.2,1-0.2v1.4c-0.1-0.1-0.3-0.1-0.4-0.1
		s-0.3,0-0.4,0.1s-0.3,0.1-0.4,0.2c-0.1,0.1-0.2,0.3-0.3,0.4c-0.1,0.2-0.1,0.4-0.1,0.7v3.9h-1.3V764z"/>
	<path class="st136" d="M415.5,762.5H414v-1.2h4.4v1.2h-1.5v8h-1.3V762.5z"/>
	<path class="st136" d="M418.9,761.3h1.3v3.3h0c0.1-0.2,0.3-0.4,0.5-0.5c0.2-0.1,0.4-0.2,0.7-0.2c0.2,0,0.3,0,0.5,0.1
		c0.2,0.1,0.3,0.2,0.4,0.3s0.2,0.3,0.3,0.5c0.1,0.2,0.1,0.5,0.1,0.7v5.1h-1.3V766c0-0.2-0.1-0.4-0.2-0.6s-0.3-0.2-0.5-0.2
		c-0.3,0-0.4,0.1-0.5,0.2c-0.1,0.2-0.1,0.4-0.1,0.7v4.4h-1.3V761.3z"/>
	<path class="st136" d="M425.1,767.8v0.9c0,0.2,0.1,0.4,0.2,0.5c0.1,0.1,0.3,0.2,0.5,0.2c0.3,0,0.4-0.1,0.5-0.2s0.1-0.3,0.1-0.4h1.3
		c0,0.3,0,0.5-0.1,0.8s-0.2,0.5-0.4,0.6c-0.2,0.2-0.4,0.3-0.6,0.4c-0.2,0.1-0.5,0.2-0.8,0.2c-0.4,0-0.8-0.1-1.1-0.3
		c-0.3-0.2-0.5-0.4-0.7-0.7c-0.1-0.2-0.2-0.4-0.2-0.6c0-0.2-0.1-0.5-0.1-0.7v-2.2c0-0.3,0-0.5,0.1-0.7c0-0.2,0.1-0.4,0.2-0.6
		c0.2-0.3,0.4-0.5,0.7-0.7c0.3-0.2,0.6-0.3,1.1-0.3c0.3,0,0.6,0.1,0.8,0.2c0.2,0.1,0.5,0.2,0.6,0.4s0.3,0.4,0.4,0.7s0.1,0.5,0.1,0.8
		v1.8H425.1z M425.1,766.7h1.3V766c0-0.3-0.1-0.4-0.2-0.6c-0.1-0.1-0.3-0.2-0.5-0.2c-0.2,0-0.4,0.1-0.5,0.2
		c-0.1,0.1-0.2,0.3-0.2,0.6V766.7z"/>
	<path class="st136" d="M431.2,761.3h1.9c0.4,0,0.8,0.1,1.1,0.2c0.3,0.1,0.5,0.3,0.7,0.5s0.3,0.5,0.4,0.7c0.1,0.3,0.1,0.6,0.1,0.9
		v0.3c0,0.3,0,0.5-0.1,0.6c0,0.2-0.1,0.3-0.2,0.5c-0.1,0.1-0.2,0.2-0.3,0.3c-0.1,0.1-0.2,0.2-0.4,0.3c0.3,0.1,0.5,0.4,0.7,0.7
		c0.1,0.3,0.2,0.7,0.2,1.2v0.5c0,0.8-0.2,1.4-0.6,1.9c-0.4,0.4-1,0.7-1.9,0.7h-1.8V761.3z M432.6,765.1h0.6c0.4,0,0.7-0.1,0.9-0.3
		c0.2-0.2,0.2-0.5,0.2-1c0-0.4-0.1-0.7-0.3-0.9s-0.5-0.3-0.9-0.3h-0.5V765.1z M432.6,769.2h0.6c0.3,0,0.5,0,0.6-0.1
		c0.2-0.1,0.3-0.2,0.3-0.3s0.1-0.3,0.1-0.5c0-0.2,0-0.4,0-0.6c0-0.2,0-0.4,0-0.6c0-0.2-0.1-0.3-0.2-0.4c-0.1-0.1-0.2-0.2-0.3-0.3
		s-0.3-0.1-0.6-0.1h-0.6V769.2z"/>
	<path class="st136" d="M437.9,767.8v0.9c0,0.2,0.1,0.4,0.2,0.5s0.3,0.2,0.5,0.2c0.3,0,0.4-0.1,0.5-0.2c0.1-0.1,0.1-0.3,0.2-0.4h1.3
		c0,0.3,0,0.5-0.1,0.8c-0.1,0.2-0.2,0.5-0.4,0.6c-0.2,0.2-0.4,0.3-0.6,0.4c-0.2,0.1-0.5,0.2-0.8,0.2c-0.4,0-0.8-0.1-1.1-0.3
		c-0.3-0.2-0.5-0.4-0.7-0.7c-0.1-0.2-0.2-0.4-0.2-0.6c0-0.2-0.1-0.5-0.1-0.7v-2.2c0-0.3,0-0.5,0.1-0.7c0-0.2,0.1-0.4,0.2-0.6
		c0.2-0.3,0.4-0.5,0.7-0.7c0.3-0.2,0.6-0.3,1.1-0.3c0.3,0,0.6,0.1,0.8,0.2c0.2,0.1,0.5,0.2,0.6,0.4s0.3,0.4,0.4,0.7
		c0.1,0.3,0.1,0.5,0.1,0.8v1.8H437.9z M437.9,766.7h1.3V766c0-0.3-0.1-0.4-0.2-0.6s-0.3-0.2-0.5-0.2s-0.4,0.1-0.5,0.2
		s-0.2,0.3-0.2,0.6V766.7z"/>
	<path class="st136" d="M441.5,762h1.3v2h0.8v1h-0.8v3.7c0,0.2,0,0.3,0,0.4c0,0.1,0.1,0.2,0.1,0.2c0.1,0,0.1,0.1,0.3,0.1
		c0.1,0,0.2,0,0.4,0v1.2h-0.5c-0.3,0-0.6,0-0.8-0.1c-0.2-0.1-0.4-0.2-0.5-0.4c-0.1-0.1-0.2-0.3-0.3-0.5c-0.1-0.2-0.1-0.4-0.1-0.5v-4
		h-0.7v-1h0.7V762z"/>
	<path class="st136" d="M444.2,762h1.3v2h0.8v1h-0.8v3.7c0,0.2,0,0.3,0,0.4c0,0.1,0.1,0.2,0.1,0.2c0.1,0,0.1,0.1,0.3,0.1
		c0.1,0,0.2,0,0.4,0v1.2h-0.5c-0.3,0-0.6,0-0.8-0.1c-0.2-0.1-0.4-0.2-0.5-0.4s-0.2-0.3-0.3-0.5c-0.1-0.2-0.1-0.4-0.1-0.5v-4h-0.7v-1
		h0.7V762z"/>
	<path class="st136" d="M448,767.8v0.9c0,0.2,0.1,0.4,0.2,0.5c0.1,0.1,0.3,0.2,0.5,0.2c0.3,0,0.4-0.1,0.5-0.2s0.1-0.3,0.1-0.4h1.3
		c0,0.3,0,0.5-0.1,0.8s-0.2,0.5-0.4,0.6c-0.2,0.2-0.4,0.3-0.6,0.4c-0.2,0.1-0.5,0.2-0.8,0.2c-0.4,0-0.8-0.1-1.1-0.3
		c-0.3-0.2-0.5-0.4-0.7-0.7c-0.1-0.2-0.2-0.4-0.2-0.6c0-0.2-0.1-0.5-0.1-0.7v-2.2c0-0.3,0-0.5,0.1-0.7c0-0.2,0.1-0.4,0.2-0.6
		c0.2-0.3,0.4-0.5,0.7-0.7c0.3-0.2,0.6-0.3,1.1-0.3c0.3,0,0.6,0.1,0.8,0.2c0.2,0.1,0.5,0.2,0.6,0.4s0.3,0.4,0.4,0.7s0.1,0.5,0.1,0.8
		v1.8H448z M448,766.7h1.3V766c0-0.3-0.1-0.4-0.2-0.6c-0.1-0.1-0.3-0.2-0.5-0.2c-0.2,0-0.4,0.1-0.5,0.2c-0.1,0.1-0.2,0.3-0.2,0.6
		V766.7z"/>
</g>
<g class="st0">
	<path class="st136" d="M451.6,764h1.3v0.7c0.3-0.2,0.5-0.4,0.8-0.6c0.3-0.1,0.6-0.2,1-0.2v1.4c-0.1-0.1-0.3-0.1-0.4-0.1
		s-0.3,0-0.4,0.1s-0.3,0.1-0.4,0.2c-0.1,0.1-0.2,0.3-0.3,0.4c-0.1,0.2-0.1,0.4-0.1,0.7v3.9h-1.3V764z"/>
</g>
<g class="st0">
	<path class="st136" d="M454.3,769.2h1.3v1.3h-1.3V769.2z"/>
</g>
</svg>
