<svg id="Layer_1" data-name="Layer 1" xmlns="http://www.w3.org/2000/svg" xmlns:xlink="http://www.w3.org/1999/xlink" viewBox="0 0 595.28 841.89"><defs><style>.cls-1,.cls-4,.cls-5{fill:none;}.cls-2{fill:#002bff;}.cls-3{clip-path:url(#clip-path);}.cls-4,.cls-5{stroke:#002bff;stroke-miterlimit:10;}.cls-4{stroke-width:0.55px;}.cls-5{stroke-width:0.8px;}</style><clipPath id="clip-path"><rect class="cls-1" x="43.5" y="54.14" width="508" height="734.75"/></clipPath></defs><path class="cls-2" d="M205.69,57.75h-1.3V56.69h3.72v1.06h-1.3v6.77h-1.12Z"/><path class="cls-2" d="M208.6,56.69h1.13V60h1.38V56.69h1.12v7.83h-1.12V61h-1.38v3.48H208.6Z"/><path class="cls-2" d="M213.29,56.69h3.34v1.06h-2.22V60h1.94V61.1h-1.94v2.3h2.22v1.12h-3.34Z"/><path class="cls-2" d="M219.4,56.69h3.35v1.06h-2.22v2.37h1.93v1.06h-1.93v3.34H219.4Z"/><path class="cls-2" d="M223.51,56.69h1.12v7.83h-1.12Z"/><path class="cls-2" d="M225.72,56.69h1.8c1.32,0,2,.77,2,2.3a3,3,0,0,1-.21,1.17,1.68,1.68,0,0,1-.75.79l1.21,3.57h-1.19l-1.05-3.34h-.67v3.34h-1.12Zm1.12,3.5h.64a1.21,1.21,0,0,0,.47-.08.64.64,0,0,0,.27-.24,1,1,0,0,0,.13-.38,4.05,4.05,0,0,0,0-.52,4.11,4.11,0,0,0,0-.53.91.91,0,0,0-.14-.38.62.62,0,0,0-.29-.24,1.4,1.4,0,0,0-.5-.07h-.58Z"/><path class="cls-2" d="M234,58.94h-1.13v-.25a1.19,1.19,0,0,0-.18-.66.66.66,0,0,0-.61-.28.86.86,0,0,0-.38.08.72.72,0,0,0-.23.23,1,1,0,0,0-.11.32,1.58,1.58,0,0,0,0,.38c0,.15,0,.28,0,.39a.71.71,0,0,0,.08.27.63.63,0,0,0,.19.21,1.91,1.91,0,0,0,.35.17l.86.34a2.1,2.1,0,0,1,.6.34,1.28,1.28,0,0,1,.36.45,2,2,0,0,1,.17.59,5.86,5.86,0,0,1,0,.77,4.4,4.4,0,0,1-.1.92,2,2,0,0,1-.33.72,1.51,1.51,0,0,1-.6.48,2.08,2.08,0,0,1-.91.18,1.91,1.91,0,0,1-.76-.15,1.68,1.68,0,0,1-.61-.39,2,2,0,0,1-.4-.58,1.84,1.84,0,0,1-.14-.74v-.42h1.12v.35a.94.94,0,0,0,.18.56.71.71,0,0,0,.61.25.88.88,0,0,0,.44-.09.56.56,0,0,0,.25-.23,1,1,0,0,0,.1-.37,3.54,3.54,0,0,0,0-.48,3.79,3.79,0,0,0,0-.51.75.75,0,0,0-.09-.32.61.61,0,0,0-.2-.19,2.66,2.66,0,0,0-.34-.17l-.8-.33a1.79,1.79,0,0,1-1-.78,2.67,2.67,0,0,1-.25-1.23,2.94,2.94,0,0,1,.12-.84,1.93,1.93,0,0,1,.36-.68,1.85,1.85,0,0,1,.6-.46,2,2,0,0,1,.85-.17,1.93,1.93,0,0,1,1.35.56,1.78,1.78,0,0,1,.38.57,1.61,1.61,0,0,1,.14.64Z"/><path class="cls-2" d="M235.61,57.75h-1.3V56.69H238v1.06h-1.3v6.77h-1.12Z"/><path class="cls-2" d="M240.5,58.54a2,2,0,0,1,.17-.84,1.77,1.77,0,0,1,.43-.6,2,2,0,0,1,1.28-.48,2,2,0,0,1,.68.12,2.09,2.09,0,0,1,.61.36,1.92,1.92,0,0,1,.43.6,2,2,0,0,1,.16.84v.39h-1.12v-.39a.75.75,0,0,0-.22-.6.85.85,0,0,0-1.07,0,.75.75,0,0,0-.23.6v4.13a.74.74,0,0,0,.23.6.82.82,0,0,0,1.07,0,.74.74,0,0,0,.22-.6V61.2h-.89v-1h2v2.46a1.81,1.81,0,0,1-.59,1.44,1.89,1.89,0,0,1-.61.36,2,2,0,0,1-1.35,0,1.79,1.79,0,0,1-.61-.36,1.83,1.83,0,0,1-.43-.59,2,2,0,0,1-.17-.85Z"/><path class="cls-2" d="M245.25,56.69h1.13V63.4h2.22v1.12h-3.35Z"/><path class="cls-2" d="M249.26,58.54a2,2,0,0,1,.16-.84,1.8,1.8,0,0,1,.44-.6,1.94,1.94,0,0,1,2.56,0,1.8,1.8,0,0,1,.44.6,2,2,0,0,1,.16.84v4.13a2,2,0,0,1-.16.85,1.85,1.85,0,0,1-1,.95,2,2,0,0,1-1.36,0,1.85,1.85,0,0,1-1-.95,2,2,0,0,1-.16-.85Zm1.12,4.13a.74.74,0,0,0,.23.6.78.78,0,0,0,.53.2.79.79,0,0,0,.53-.2.74.74,0,0,0,.23-.6V58.54a.75.75,0,0,0-.23-.6.78.78,0,0,0-.53-.19.77.77,0,0,0-.53.19.75.75,0,0,0-.23.6Z"/><path class="cls-2" d="M254,56.69h1.64a2.33,2.33,0,0,1,.92.16,1.78,1.78,0,0,1,.62.44,1.74,1.74,0,0,1,.35.64,2.59,2.59,0,0,1,.1.74V59a2.58,2.58,0,0,1-.05.53,1.13,1.13,0,0,1-.15.39,1,1,0,0,1-.24.29,2.16,2.16,0,0,1-.33.24,1.2,1.2,0,0,1,.58.55,2.16,2.16,0,0,1,.19,1v.44a2.27,2.27,0,0,1-.5,1.58,2.05,2.05,0,0,1-1.6.55H254Zm1.12,3.21h.51a.85.85,0,0,0,.75-.28,1.44,1.44,0,0,0,.19-.82,1.26,1.26,0,0,0-.21-.79.94.94,0,0,0-.78-.26h-.46Zm0,3.5h.49a1.14,1.14,0,0,0,.53-.1.69.69,0,0,0,.29-.27.94.94,0,0,0,.12-.42,4.44,4.44,0,0,0,0-.53,3.94,3.94,0,0,0,0-.52.87.87,0,0,0-.14-.37.66.66,0,0,0-.29-.22,1.32,1.32,0,0,0-.49-.08h-.5Z"/><path class="cls-2" d="M259.81,56.69h.93l1.75,7.83h-1.12L261,62.84h-1.53l-.33,1.68h-1.12Zm.47,2.25h0l-.55,2.84h1.12Z"/><path class="cls-2" d="M263,56.69h1.12V63.4h2.23v1.12H263Z"/><path class="cls-2" d="M269.16,56.69h1.68a2.47,2.47,0,0,1,.81.12,1.48,1.48,0,0,1,.64.43,1.83,1.83,0,0,1,.4.72,4.73,4.73,0,0,1,.11,1.12,5.52,5.52,0,0,1-.06.88,1.86,1.86,0,0,1-.26.69,1.62,1.62,0,0,1-.62.6,2.08,2.08,0,0,1-1,.21h-.57v3.06h-1.12Zm1.12,3.72h.54a1.28,1.28,0,0,0,.53-.1.7.7,0,0,0,.27-.27,1.17,1.17,0,0,0,.11-.41c0-.16,0-.34,0-.54s0-.36,0-.52a1.6,1.6,0,0,0-.1-.43.66.66,0,0,0-.26-.29,1,1,0,0,0-.51-.1h-.58Z"/><path class="cls-2" d="M277.26,62.76a1.71,1.71,0,0,1-.14.72,1.61,1.61,0,0,1-.39.57,1.87,1.87,0,0,1-1.28.54,1.63,1.63,0,0,1-.7-.15,1.56,1.56,0,0,1-.58-.39,1.61,1.61,0,0,1-.39-.57,1.72,1.72,0,0,1-.15-.72V56.69h1.13v6a.85.85,0,0,0,.19.62.7.7,0,0,0,.5.2.66.66,0,0,0,.49-.2.81.81,0,0,0,.2-.62v-6h1.12Z"/><path class="cls-2" d="M278.32,56.69H280a2.33,2.33,0,0,1,.92.16,1.78,1.78,0,0,1,.62.44,1.74,1.74,0,0,1,.35.64,2.59,2.59,0,0,1,.1.74V59a2.58,2.58,0,0,1-.05.53,1.23,1.23,0,0,1-.39.68,2.8,2.8,0,0,1-.33.24,1.2,1.2,0,0,1,.58.55,2.16,2.16,0,0,1,.19,1v.44a2.27,2.27,0,0,1-.5,1.58,2.05,2.05,0,0,1-1.6.55h-1.53Zm1.12,3.21H280a.85.85,0,0,0,.75-.28,1.44,1.44,0,0,0,.19-.82,1.26,1.26,0,0,0-.21-.79.94.94,0,0,0-.78-.26h-.46Zm0,3.5h.49a1.14,1.14,0,0,0,.53-.1.69.69,0,0,0,.29-.27.94.94,0,0,0,.12-.42,4.44,4.44,0,0,0,0-.53,3.94,3.94,0,0,0,0-.52.87.87,0,0,0-.14-.37.66.66,0,0,0-.29-.22,1.32,1.32,0,0,0-.49-.08h-.5Z"/><path class="cls-2" d="M283,56.69h1.12V63.4h2.22v1.12H283Z"/><path class="cls-2" d="M287.11,56.69h1.12v7.83h-1.12Z"/><path class="cls-2" d="M292.88,62.77a1.82,1.82,0,0,1-.13.7,1.9,1.9,0,0,1-.38.57,1.78,1.78,0,0,1-.57.4,1.66,1.66,0,0,1-.7.15,2.48,2.48,0,0,1-.65-.09,1.57,1.57,0,0,1-.59-.3,1.7,1.7,0,0,1-.44-.57,2.08,2.08,0,0,1-.17-.89V58.43a1.89,1.89,0,0,1,.14-.72,1.56,1.56,0,0,1,.37-.57,1.67,1.67,0,0,1,.58-.38,2,2,0,0,1,.74-.14,1.83,1.83,0,0,1,.71.14,1.65,1.65,0,0,1,.58.39,1.87,1.87,0,0,1,.38.59,2,2,0,0,1,.13.75v.44h-1.12v-.37a.87.87,0,0,0-.19-.57.59.59,0,0,0-.5-.24.57.57,0,0,0-.56.25,1.44,1.44,0,0,0-.13.66v4a1,1,0,0,0,.14.57.59.59,0,0,0,.54.24,1,1,0,0,0,.23,0,.58.58,0,0,0,.23-.13.76.76,0,0,0,.18-.24,1.07,1.07,0,0,0,.06-.39v-.38h1.12Z"/><path class="cls-2" d="M295.88,56.69H297v7.83h-1.12Z"/><path class="cls-2" d="M298,56.69h1.08l1.69,4.72h0V56.69H302v7.83H300.9l-1.71-4.71h0v4.71H298Z"/><path class="cls-2" d="M303.71,57.75h-1.3V56.69h3.72v1.06h-1.3v6.77h-1.12Z"/><path class="cls-2" d="M306.62,56.69H310v1.06h-2.23V60h1.94V61.1h-1.94v2.3H310v1.12h-3.35Z"/><path class="cls-2" d="M310.69,56.69h1.81c1.32,0,2,.77,2,2.3a3,3,0,0,1-.22,1.17,1.63,1.63,0,0,1-.75.79l1.21,3.57h-1.19l-1-3.34h-.68v3.34h-1.12Zm1.12,3.5h.64a1.17,1.17,0,0,0,.47-.08.64.64,0,0,0,.27-.24.86.86,0,0,0,.13-.38,4.05,4.05,0,0,0,0-.52,4.11,4.11,0,0,0,0-.53.91.91,0,0,0-.14-.38.57.57,0,0,0-.29-.24,1.34,1.34,0,0,0-.49-.07h-.59Z"/><path class="cls-2" d="M315.31,58.54a2,2,0,0,1,.17-.84,1.77,1.77,0,0,1,.43-.6,2,2,0,0,1,.61-.36,1.93,1.93,0,0,1,.67-.12,2,2,0,0,1,.68.12,2,2,0,0,1,.6.36,1.8,1.8,0,0,1,.44.6,2,2,0,0,1,.16.84v.39H318v-.39a.75.75,0,0,0-.22-.6.85.85,0,0,0-1.07,0,.75.75,0,0,0-.23.6v4.13a.74.74,0,0,0,.23.6.82.82,0,0,0,1.07,0,.74.74,0,0,0,.22-.6V61.2h-.89v-1h2v2.46a2,2,0,0,1-.16.85,1.85,1.85,0,0,1-1,.95,2,2,0,0,1-.68.12,1.93,1.93,0,0,1-.67-.12,1.79,1.79,0,0,1-.61-.36,1.83,1.83,0,0,1-.43-.59,2,2,0,0,1-.17-.85Z"/><path class="cls-2" d="M321.31,56.69h.93L324,64.52h-1.12l-.33-1.68H321l-.33,1.68h-1.12Zm.47,2.25h0l-.55,2.84h1.12Z"/><path class="cls-2" d="M324.54,56.69h1.12V63.4h2.22v1.12h-3.34Z"/><path class="cls-2" d="M329.85,56.69h.94l1.75,7.83h-1.12l-.33-1.68h-1.53l-.33,1.68h-1.12Zm.48,2.25h0l-.55,2.84h1.13Z"/><path class="cls-2" d="M336.65,62.77a1.65,1.65,0,0,1-.14.7,1.59,1.59,0,0,1-.38.57,1.85,1.85,0,0,1-.56.4,1.66,1.66,0,0,1-.7.15,2.48,2.48,0,0,1-.65-.09,1.57,1.57,0,0,1-.59-.3,1.7,1.7,0,0,1-.44-.57,2.08,2.08,0,0,1-.17-.89V58.43a2.09,2.09,0,0,1,.13-.72,1.73,1.73,0,0,1,.38-.57,1.67,1.67,0,0,1,.58-.38,2,2,0,0,1,.74-.14,1.87,1.87,0,0,1,.71.14,1.61,1.61,0,0,1,.57.39,1.58,1.58,0,0,1,.38.59,1.86,1.86,0,0,1,.14.75v.44h-1.12v-.37a.87.87,0,0,0-.19-.57.59.59,0,0,0-.5-.24.57.57,0,0,0-.56.25,1.43,1.43,0,0,0-.14.66v4a1,1,0,0,0,.15.57.59.59,0,0,0,.54.24,1,1,0,0,0,.23,0,.65.65,0,0,0,.23-.13.61.61,0,0,0,.17-.24.88.88,0,0,0,.07-.39v-.38h1.12Z"/><path class="cls-2" d="M338.3,57.75H337V56.69h3.72v1.06h-1.3v6.77H338.3Z"/><path class="cls-2" d="M341.25,56.69h1.12v7.83h-1.12Z"/><path class="cls-2" d="M347,62.77a1.82,1.82,0,0,1-.13.7,1.9,1.9,0,0,1-.38.57,1.78,1.78,0,0,1-.57.4,1.66,1.66,0,0,1-.7.15,2.48,2.48,0,0,1-.65-.09,1.65,1.65,0,0,1-.59-.3,1.56,1.56,0,0,1-.43-.57,1.93,1.93,0,0,1-.18-.89V58.43a1.89,1.89,0,0,1,.14-.72,1.56,1.56,0,0,1,.37-.57,1.67,1.67,0,0,1,.58-.38,2,2,0,0,1,.74-.14,1.89,1.89,0,0,1,.72.14,1.61,1.61,0,0,1,.57.39,1.87,1.87,0,0,1,.38.59,2,2,0,0,1,.13.75v.44H345.9v-.37a.92.92,0,0,0-.18-.57.63.63,0,0,0-.51-.24.58.58,0,0,0-.56.25,1.44,1.44,0,0,0-.13.66v4a1,1,0,0,0,.15.57.56.56,0,0,0,.53.24,1.2,1.2,0,0,0,.24,0,.76.76,0,0,0,.23-.13.74.74,0,0,0,.17-.24,1.07,1.07,0,0,0,.06-.39v-.38H347Z"/><path class="cls-2" d="M350,56.69h1.13V60h1.38V56.69h1.12v7.83h-1.12V61h-1.38v3.48H350Z"/><path class="cls-2" d="M355.91,56.69h.94l1.75,7.83h-1.13l-.33-1.68h-1.52l-.33,1.68h-1.13Zm.48,2.25h0l-.55,2.84h1.13Z"/><path class="cls-2" d="M359.1,56.69h1.08l1.69,4.72h0V56.69H363v7.83H362l-1.71-4.71h0v4.71H359.1Z"/><path class="cls-2" d="M364,56.69h1.66a1.92,1.92,0,0,1,1.46.53,2.09,2.09,0,0,1,.51,1.49v3.67a2.21,2.21,0,0,1-.53,1.62,2.11,2.11,0,0,1-1.54.52H364Zm1.12,6.78h.52a.83.83,0,0,0,.67-.24,1.17,1.17,0,0,0,.2-.74V58.71a1.15,1.15,0,0,0-.19-.71.78.78,0,0,0-.68-.25h-.52Z"/><path class="cls-2" d="M372.35,58.94h-1.13v-.25A1.19,1.19,0,0,0,371,58a.66.66,0,0,0-.61-.28.86.86,0,0,0-.38.08.72.72,0,0,0-.23.23,1,1,0,0,0-.11.32,1.58,1.58,0,0,0,0,.38c0,.15,0,.28,0,.39a.71.71,0,0,0,.08.27.76.76,0,0,0,.19.21,2.3,2.3,0,0,0,.35.17l.86.34a2.1,2.1,0,0,1,.6.34,1.28,1.28,0,0,1,.36.45,1.77,1.77,0,0,1,.17.59,5.86,5.86,0,0,1,.05.77,4.4,4.4,0,0,1-.1.92,2,2,0,0,1-.33.72,1.51,1.51,0,0,1-.6.48,2.08,2.08,0,0,1-.91.18,1.94,1.94,0,0,1-.76-.15,1.64,1.64,0,0,1-.6-.39,1.85,1.85,0,0,1-.41-.58,2,2,0,0,1-.14-.74v-.42h1.12v.35a.94.94,0,0,0,.18.56.71.71,0,0,0,.61.25,1,1,0,0,0,.45-.09.59.59,0,0,0,.24-.23,1,1,0,0,0,.1-.37,3.54,3.54,0,0,0,0-.48,3.79,3.79,0,0,0,0-.51.75.75,0,0,0-.09-.32.52.52,0,0,0-.2-.19l-.33-.17-.81-.33a1.79,1.79,0,0,1-1-.78,2.67,2.67,0,0,1-.25-1.23,2.94,2.94,0,0,1,.12-.84,1.93,1.93,0,0,1,.36-.68,1.85,1.85,0,0,1,.6-.46,2,2,0,0,1,.85-.17,1.93,1.93,0,0,1,1.35.56,1.63,1.63,0,0,1,.38.57,1.61,1.61,0,0,1,.14.64Z"/><path class="cls-2" d="M373.18,56.69h1.12V60h1.39V56.69h1.12v7.83h-1.12V61H374.3v3.48h-1.12Z"/><path class="cls-2" d="M379.11,56.69h.94l1.74,7.83h-1.12l-.33-1.68h-1.53l-.33,1.68h-1.12Zm.47,2.25h0L379,61.78h1.12Z"/><path class="cls-2" d="M382.35,56.69h1.12v3.58h0l1.64-3.58h1.12l-1.53,3.14,1.82,4.69h-1.19l-1.28-3.47-.6,1.13v2.34h-1.12Z"/><path class="cls-2" d="M387,56.69h3.35v1.06h-2.23V60h1.94V61.1h-1.94v2.3h2.23v1.12H387Z"/><path class="cls-2" d="M205.08,82.29h2a2.28,2.28,0,0,1,1.73.63,2.45,2.45,0,0,1,.6,1.76V89a2.58,2.58,0,0,1-.63,1.92,2.51,2.51,0,0,1-1.82.62h-1.84Zm1.32,8H207a1,1,0,0,0,.8-.28,1.4,1.4,0,0,0,.23-.88V84.68a1.38,1.38,0,0,0-.22-.84,1,1,0,0,0-.81-.3h-.61Z"/><path class="cls-2" d="M211.93,82.29H213l2.07,9.26h-1.33l-.39-2h-1.8l-.39,2h-1.33Zm.56,2.67h0l-.65,3.35h1.33Z"/><path class="cls-2" d="M216.28,87.63l-1.82-5.34h1.41L216.93,86h0L218,82.29h1.41l-1.82,5.34v3.92h-1.33Z"/><path class="cls-2" d="M224.38,85h-1.32v-.3a1.44,1.44,0,0,0-.22-.79.79.79,0,0,0-.72-.33.88.88,0,0,0-.45.1.7.7,0,0,0-.27.27,1.07,1.07,0,0,0-.14.38,3.13,3.13,0,0,0,0,.44c0,.19,0,.34,0,.47a.8.8,0,0,0,.1.32.75.75,0,0,0,.23.24A1.92,1.92,0,0,0,222,86l1,.4a3,3,0,0,1,.72.4,1.64,1.64,0,0,1,.42.53,2.48,2.48,0,0,1,.2.7,8.17,8.17,0,0,1,0,.91,4.58,4.58,0,0,1-.12,1.08,2.11,2.11,0,0,1-.38.86,1.83,1.83,0,0,1-.71.57,2.64,2.64,0,0,1-1.08.2,2.35,2.35,0,0,1-.89-.16,2.25,2.25,0,0,1-.72-.47,2,2,0,0,1-.47-.69,2.12,2.12,0,0,1-.18-.87v-.5h1.33v.42a1.13,1.13,0,0,0,.21.66.85.85,0,0,0,.72.29,1.11,1.11,0,0,0,.53-.1.69.69,0,0,0,.29-.27,1.28,1.28,0,0,0,.12-.44,4.91,4.91,0,0,0,0-.57,5,5,0,0,0,0-.6.9.9,0,0,0-.11-.37.69.69,0,0,0-.24-.24,3.6,3.6,0,0,0-.39-.19l-.95-.39a2.14,2.14,0,0,1-1.15-.93,3.15,3.15,0,0,1-.29-1.45,3.2,3.2,0,0,1,.14-1,2.4,2.4,0,0,1,.42-.81,2.16,2.16,0,0,1,.71-.54,2.41,2.41,0,0,1,1-.2,2.19,2.19,0,0,1,.9.18,2.43,2.43,0,0,1,.71.49,2.27,2.27,0,0,1,.45.66,2.07,2.07,0,0,1,.15.77Z"/><path class="cls-2" d="M247.13,82.29h1.33v4h1.63v-4h1.33v9.26h-1.33V87.43h-1.63v4.12h-1.33Z"/><path class="cls-2" d="M252.59,84.47a2.17,2.17,0,0,1,.2-1,2,2,0,0,1,.51-.71,2.05,2.05,0,0,1,.71-.42,2.26,2.26,0,0,1,.8-.15,2.22,2.22,0,0,1,.8.15,2.1,2.1,0,0,1,.72.42,2,2,0,0,1,.51.71,2.32,2.32,0,0,1,.2,1v4.89a2.38,2.38,0,0,1-.2,1,2.15,2.15,0,0,1-.51.7,2.27,2.27,0,0,1-.72.42,2.21,2.21,0,0,1-.8.14,2.25,2.25,0,0,1-.8-.14,2.22,2.22,0,0,1-.71-.42,2.15,2.15,0,0,1-.51-.7,2.23,2.23,0,0,1-.2-1Zm1.33,4.89a.87.87,0,0,0,.26.71,1,1,0,0,0,.63.23.92.92,0,0,0,.63-.23.88.88,0,0,0,.27-.71V84.47a.86.86,0,0,0-.27-.7.88.88,0,0,0-.63-.23.91.91,0,0,0-.63.23.85.85,0,0,0-.26.7Z"/><path class="cls-2" d="M262.5,89.47a2.14,2.14,0,0,1-.17.84,2.2,2.2,0,0,1-1.15,1.15,2.08,2.08,0,0,1-.83.16,2.12,2.12,0,0,1-.83-.16,2.18,2.18,0,0,1-.68-.47,2,2,0,0,1-.46-.68,2,2,0,0,1-.17-.84V82.29h1.32v7a1,1,0,0,0,.24.72.77.77,0,0,0,.58.24.81.81,0,0,0,.59-.24,1,1,0,0,0,.23-.72v-7h1.33Z"/><path class="cls-2" d="M263.74,82.29h2.14c1.56,0,2.34.91,2.34,2.72a3.4,3.4,0,0,1-.26,1.38,1.9,1.9,0,0,1-.89.93l1.43,4.23h-1.4l-1.24-4h-.79v4h-1.33Zm1.33,4.13h.75a1.42,1.42,0,0,0,.56-.09.73.73,0,0,0,.32-.28,1.32,1.32,0,0,0,.15-.45,3.79,3.79,0,0,0,0-.62,3.87,3.87,0,0,0,0-.62,1.2,1.2,0,0,0-.16-.45.7.7,0,0,0-.35-.28,1.53,1.53,0,0,0-.58-.09h-.69Z"/><path class="cls-2" d="M273.57,85h-1.32v-.3a1.44,1.44,0,0,0-.22-.79.79.79,0,0,0-.72-.33.88.88,0,0,0-.45.1.7.7,0,0,0-.27.27,1.07,1.07,0,0,0-.14.38,3.13,3.13,0,0,0,0,.44c0,.19,0,.34,0,.47a1,1,0,0,0,.1.32.75.75,0,0,0,.23.24,1.92,1.92,0,0,0,.41.21l1,.4a2.84,2.84,0,0,1,.72.4,1.64,1.64,0,0,1,.42.53,2.48,2.48,0,0,1,.2.7,8.17,8.17,0,0,1,.05.91,4.58,4.58,0,0,1-.12,1.08,2.11,2.11,0,0,1-.38.86,1.83,1.83,0,0,1-.71.57,2.64,2.64,0,0,1-1.08.2,2.35,2.35,0,0,1-.89-.16,2.25,2.25,0,0,1-.72-.47,2,2,0,0,1-.47-.69,2.12,2.12,0,0,1-.18-.87v-.5h1.33v.42a1.13,1.13,0,0,0,.21.66.86.86,0,0,0,.72.29,1.11,1.11,0,0,0,.53-.1.69.69,0,0,0,.29-.27,1.28,1.28,0,0,0,.12-.44,4.91,4.91,0,0,0,0-.57,5,5,0,0,0,0-.6.9.9,0,0,0-.11-.37.76.76,0,0,0-.23-.24,3.88,3.88,0,0,0-.4-.19l-1-.39a2.14,2.14,0,0,1-1.15-.93,3.15,3.15,0,0,1-.29-1.45,3.2,3.2,0,0,1,.14-1,2.59,2.59,0,0,1,.42-.81,2.16,2.16,0,0,1,.71-.54,2.41,2.41,0,0,1,1-.2,2.27,2.27,0,0,1,.91.18,2.51,2.51,0,0,1,.7.49,2.27,2.27,0,0,1,.45.66,2.07,2.07,0,0,1,.15.77Z"/><path class="cls-2" d="M296.32,82.29h1.27l1.71,4.9h0l1.69-4.9h1.29v9.26H301V85.92h0l-1.31,4H299l-1.3-4h0v5.63h-1.33Z"/><path class="cls-2" d="M303.59,82.29h1.32v9.26h-1.32Z"/><path class="cls-2" d="M306.15,82.29h1.27l2,5.58h0V82.29h1.33v9.26h-1.25l-2-5.57h0v5.57h-1.32Z"/><path class="cls-2" d="M316.26,89.47a2,2,0,0,1-.17.84,2,2,0,0,1-.46.68,2.18,2.18,0,0,1-.68.47,2.26,2.26,0,0,1-1.67,0,2.3,2.3,0,0,1-.68-.47,2.14,2.14,0,0,1-.63-1.52V82.29h1.33v7a1,1,0,0,0,.23.72.79.79,0,0,0,.59.24.77.77,0,0,0,.58-.24,1,1,0,0,0,.24-.72v-7h1.32Z"/><path class="cls-2" d="M318.38,83.54h-1.53V82.29h4.39v1.25h-1.53v8h-1.33Z"/><path class="cls-2" d="M321.83,82.29h3.95v1.25h-2.63v2.72h2.29V87.5h-2.29v2.72h2.63v1.33h-3.95Z"/><path class="cls-2" d="M330.93,85H329.6v-.3a1.36,1.36,0,0,0-.22-.79.79.79,0,0,0-.72-.33.88.88,0,0,0-.45.1.87.87,0,0,0-.27.27,1.07,1.07,0,0,0-.13.38,2.12,2.12,0,0,0,0,.44,3.25,3.25,0,0,0,0,.47.8.8,0,0,0,.09.32.87.87,0,0,0,.23.24,2.2,2.2,0,0,0,.41.21l1,.4a2.76,2.76,0,0,1,.71.4,1.64,1.64,0,0,1,.42.53,2.19,2.19,0,0,1,.2.7,6.22,6.22,0,0,1,.06.91,4.58,4.58,0,0,1-.12,1.08,2.27,2.27,0,0,1-.39.86,1.8,1.8,0,0,1-.7.57,2.7,2.7,0,0,1-1.08.2,2.44,2.44,0,0,1-.9-.16A2.1,2.1,0,0,1,327,91a2.14,2.14,0,0,1-.48-.69,2.11,2.11,0,0,1-.17-.87v-.5h1.32v.42a1.07,1.07,0,0,0,.22.66.84.84,0,0,0,.72.29,1.07,1.07,0,0,0,.52-.1.69.69,0,0,0,.29-.27,1,1,0,0,0,.12-.44,4.91,4.91,0,0,0,0-.57,5,5,0,0,0,0-.6.77.77,0,0,0-.11-.37.59.59,0,0,0-.23-.24,3.08,3.08,0,0,0-.4-.19l-.95-.39a2.18,2.18,0,0,1-1.15-.93,3.28,3.28,0,0,1-.29-1.45,3.53,3.53,0,0,1,.14-1A2.42,2.42,0,0,1,327,83a2.12,2.12,0,0,1,.7-.54,2.43,2.43,0,0,1,1-.2,2.23,2.23,0,0,1,.9.18,2.38,2.38,0,0,1,.7.49,1.94,1.94,0,0,1,.45.66,2.08,2.08,0,0,1,.16.77Z"/><path class="cls-2" d="M358,85h-1.32v-.3a1.36,1.36,0,0,0-.22-.79.79.79,0,0,0-.72-.33.88.88,0,0,0-.45.1.87.87,0,0,0-.27.27,1.31,1.31,0,0,0-.14.38,3.15,3.15,0,0,0,0,.44,3.25,3.25,0,0,0,0,.47.8.8,0,0,0,.09.32.75.75,0,0,0,.23.24,2.2,2.2,0,0,0,.41.21l1,.4a2.67,2.67,0,0,1,.72.4,1.64,1.64,0,0,1,.42.53,2.19,2.19,0,0,1,.2.7,6.31,6.31,0,0,1,0,.91,4.6,4.6,0,0,1-.11,1.08,2.27,2.27,0,0,1-.39.86,1.8,1.8,0,0,1-.7.57,2.7,2.7,0,0,1-1.08.2,2.44,2.44,0,0,1-.9-.16,2.25,2.25,0,0,1-.72-.47,2.28,2.28,0,0,1-.47-.69,2.11,2.11,0,0,1-.17-.87v-.5h1.32v.42A1.07,1.07,0,0,0,355,90a.84.84,0,0,0,.72.29,1.07,1.07,0,0,0,.52-.1.69.69,0,0,0,.29-.27,1.09,1.09,0,0,0,.12-.44,4.91,4.91,0,0,0,0-.57,5,5,0,0,0,0-.6.77.77,0,0,0-.11-.37.59.59,0,0,0-.23-.24,3.08,3.08,0,0,0-.4-.19l-.95-.39a2.18,2.18,0,0,1-1.15-.93,3.28,3.28,0,0,1-.29-1.45,3.53,3.53,0,0,1,.14-1A2.59,2.59,0,0,1,354,83a2.27,2.27,0,0,1,.71-.54,2.41,2.41,0,0,1,1-.2,2.24,2.24,0,0,1,.91.18,2.38,2.38,0,0,1,.7.49,1.94,1.94,0,0,1,.45.66,2.07,2.07,0,0,1,.15.77Z"/><path class="cls-2" d="M359,82.29h3.95v1.25h-2.62v2.72h2.29V87.5h-2.29v2.72h2.62v1.33H359Z"/><path class="cls-2" d="M368,89.48a2.07,2.07,0,0,1-.16.82,2.19,2.19,0,0,1-1.12,1.15,1.88,1.88,0,0,1-.82.17,3,3,0,0,1-.77-.1,1.87,1.87,0,0,1-.7-.36,1.84,1.84,0,0,1-.51-.67,2.28,2.28,0,0,1-.21-1v-5.1a2.32,2.32,0,0,1,.16-.84,2,2,0,0,1,.44-.68,2.12,2.12,0,0,1,.68-.45,2.5,2.5,0,0,1,.88-.16,2.34,2.34,0,0,1,.85.16,2,2,0,0,1,.67.46,2.11,2.11,0,0,1,.45.7,2.35,2.35,0,0,1,.16.89v.52h-1.32V84.5a1.09,1.09,0,0,0-.22-.68.72.72,0,0,0-.6-.28.68.68,0,0,0-.66.3,1.67,1.67,0,0,0-.16.78v4.73a1.23,1.23,0,0,0,.18.68.68.68,0,0,0,.63.27,1,1,0,0,0,.28,0,.72.72,0,0,0,.27-.15.75.75,0,0,0,.2-.28,1.22,1.22,0,0,0,.08-.46v-.45H368Z"/><path class="cls-2" d="M369,84.47a2.32,2.32,0,0,1,.2-1,2,2,0,0,1,.51-.71,2.1,2.1,0,0,1,.72-.42,2.22,2.22,0,0,1,.8-.15,2.26,2.26,0,0,1,.8.15,2.05,2.05,0,0,1,.71.42,2,2,0,0,1,.52.71,2.32,2.32,0,0,1,.19,1v4.89a2.38,2.38,0,0,1-.19,1,2.17,2.17,0,0,1-.52.7,2.22,2.22,0,0,1-.71.42,2.25,2.25,0,0,1-.8.14,2.21,2.21,0,0,1-.8-.14,2.27,2.27,0,0,1-.72-.42,2.15,2.15,0,0,1-.51-.7,2.38,2.38,0,0,1-.2-1Zm1.33,4.89a.88.88,0,0,0,.27.71,1,1,0,0,0,1.26,0,.87.87,0,0,0,.26-.71V84.47a.85.85,0,0,0-.26-.7,1,1,0,0,0-1.26,0,.86.86,0,0,0-.27.7Z"/><path class="cls-2" d="M374.54,82.29h1.27l2,5.58h0V82.29h1.33v9.26h-1.25l-2-5.57h0v5.57h-1.33Z"/><path class="cls-2" d="M380.36,82.29h2a2.28,2.28,0,0,1,1.73.63,2.5,2.5,0,0,1,.59,1.76V89a2.58,2.58,0,0,1-.63,1.92,2.48,2.48,0,0,1-1.81.62h-1.85Zm1.33,8h.61a1,1,0,0,0,.79-.28,1.34,1.34,0,0,0,.24-.88V84.68a1.45,1.45,0,0,0-.22-.84,1,1,0,0,0-.81-.3h-.61Z"/><path class="cls-2" d="M390.19,85h-1.32v-.3a1.44,1.44,0,0,0-.22-.79.79.79,0,0,0-.72-.33.88.88,0,0,0-.45.1.7.7,0,0,0-.27.27,1.07,1.07,0,0,0-.14.38,2.12,2.12,0,0,0,0,.44c0,.19,0,.34,0,.47a.8.8,0,0,0,.1.32.75.75,0,0,0,.23.24,1.92,1.92,0,0,0,.41.21l1,.4a3,3,0,0,1,.72.4,1.64,1.64,0,0,1,.42.53,2.48,2.48,0,0,1,.2.7,8.17,8.17,0,0,1,.05.91,4.58,4.58,0,0,1-.12,1.08,2.11,2.11,0,0,1-.38.86,1.83,1.83,0,0,1-.71.57,2.64,2.64,0,0,1-1.08.2,2.35,2.35,0,0,1-.89-.16,2.25,2.25,0,0,1-.72-.47,2,2,0,0,1-.47-.69,2.12,2.12,0,0,1-.18-.87v-.5H387v.42a1.13,1.13,0,0,0,.21.66.86.86,0,0,0,.72.29,1.11,1.11,0,0,0,.53-.1.69.69,0,0,0,.29-.27,1.28,1.28,0,0,0,.12-.44,4.91,4.91,0,0,0,0-.57,5,5,0,0,0,0-.6.9.9,0,0,0-.11-.37.76.76,0,0,0-.23-.24,3.88,3.88,0,0,0-.4-.19l-1-.39A2.14,2.14,0,0,1,386,86.2a3.15,3.15,0,0,1-.29-1.45,3.2,3.2,0,0,1,.14-1,2.23,2.23,0,0,1,.42-.81,2.16,2.16,0,0,1,.71-.54,2.41,2.41,0,0,1,1-.2,2.19,2.19,0,0,1,.9.18,2.43,2.43,0,0,1,.71.49,2.27,2.27,0,0,1,.45.66,2.07,2.07,0,0,1,.15.77Z"/><path class="cls-2" d="M203.92,106a8.41,8.41,0,0,1,.67-3.46A8.15,8.15,0,0,1,206.4,100,7.87,7.87,0,0,1,209,98.33a8.89,8.89,0,0,1,6.21,0,7.87,7.87,0,0,1,2.62,1.65,8,8,0,0,1,1.81,2.59,8.41,8.41,0,0,1,.67,3.46V128.6a8.41,8.41,0,0,1-.67,3.46,8.11,8.11,0,0,1-1.81,2.59,7.87,7.87,0,0,1-2.62,1.65,8.89,8.89,0,0,1-6.21,0,7.87,7.87,0,0,1-2.62-1.65,8.27,8.27,0,0,1-1.81-2.59,8.41,8.41,0,0,1-.67-3.46Zm5.51,22.57a2.73,2.73,0,0,0,.75,2,2.82,2.82,0,0,0,3.89,0,2.74,2.74,0,0,0,.76-2V106a2.74,2.74,0,0,0-.76-2,2.79,2.79,0,0,0-3.89,0,2.73,2.73,0,0,0-.75,2Z"/><path class="cls-2" d="M224,106a8.41,8.41,0,0,1,.67-3.46,8,8,0,0,1,1.81-2.59,7.87,7.87,0,0,1,2.62-1.65,8.89,8.89,0,0,1,6.21,0,7.87,7.87,0,0,1,2.62,1.65,8.15,8.15,0,0,1,1.81,2.59,8.41,8.41,0,0,1,.67,3.46V128.6a8.41,8.41,0,0,1-.67,3.46,8.27,8.27,0,0,1-1.81,2.59,7.87,7.87,0,0,1-2.62,1.65,8.89,8.89,0,0,1-6.21,0,7.87,7.87,0,0,1-2.62-1.65,8.11,8.11,0,0,1-1.81-2.59,8.41,8.41,0,0,1-.67-3.46Zm5.5,22.57a2.74,2.74,0,0,0,.76,2,2.82,2.82,0,0,0,3.89,0,2.73,2.73,0,0,0,.75-2V106a2.73,2.73,0,0,0-.75-2,2.79,2.79,0,0,0-3.89,0,2.74,2.74,0,0,0-.76,2Z"/><path class="cls-2" d="M244.53,118.77H250v5.51h-5.5Zm0,12.26H250v5.51h-5.5Z"/><path class="cls-2" d="M254.14,106a8.41,8.41,0,0,1,.67-3.46,8,8,0,0,1,1.81-2.59,7.87,7.87,0,0,1,2.62-1.65,8.89,8.89,0,0,1,6.21,0,7.87,7.87,0,0,1,2.62,1.65,8.15,8.15,0,0,1,1.81,2.59,8.41,8.41,0,0,1,.67,3.46V128.6a8.41,8.41,0,0,1-.67,3.46,8.27,8.27,0,0,1-1.81,2.59,7.87,7.87,0,0,1-2.62,1.65,8.89,8.89,0,0,1-6.21,0,7.87,7.87,0,0,1-2.62-1.65,8.11,8.11,0,0,1-1.81-2.59,8.41,8.41,0,0,1-.67-3.46Zm5.51,22.57a2.73,2.73,0,0,0,.75,2,2.82,2.82,0,0,0,3.89,0,2.73,2.73,0,0,0,.75-2V106a2.73,2.73,0,0,0-.75-2,2.79,2.79,0,0,0-3.89,0,2.73,2.73,0,0,0-.75,2Z"/><path class="cls-2" d="M274.22,106a8.41,8.41,0,0,1,.68-3.46,8,8,0,0,1,1.81-2.59,7.77,7.77,0,0,1,2.62-1.65,8.89,8.89,0,0,1,6.21,0,7.87,7.87,0,0,1,2.62,1.65,8.15,8.15,0,0,1,1.81,2.59,8.41,8.41,0,0,1,.67,3.46V128.6a8.41,8.41,0,0,1-.67,3.46,8.27,8.27,0,0,1-1.81,2.59,7.87,7.87,0,0,1-2.62,1.65,8.89,8.89,0,0,1-6.21,0,7.77,7.77,0,0,1-2.62-1.65,8.11,8.11,0,0,1-1.81-2.59,8.41,8.41,0,0,1-.68-3.46Zm5.51,22.57a2.7,2.7,0,0,0,.76,2,2.58,2.58,0,0,0,1.94.78,2.61,2.61,0,0,0,1.95-.78,2.73,2.73,0,0,0,.75-2V106a2.73,2.73,0,0,0-.75-2,2.62,2.62,0,0,0-1.95-.79,2.58,2.58,0,0,0-1.94.79,2.7,2.7,0,0,0-.76,2Z"/><path class="cls-2" d="M294.74,118.77h5.51v5.51h-5.51Zm0,12.26h5.51v5.51h-5.51Z"/><path class="cls-2" d="M304.36,106a8.41,8.41,0,0,1,.67-3.46,8,8,0,0,1,1.81-2.59,7.87,7.87,0,0,1,2.62-1.65,8.89,8.89,0,0,1,6.21,0,7.87,7.87,0,0,1,2.62,1.65,8.15,8.15,0,0,1,1.81,2.59,8.41,8.41,0,0,1,.67,3.46V128.6a8.41,8.41,0,0,1-.67,3.46,8.27,8.27,0,0,1-1.81,2.59,7.87,7.87,0,0,1-2.62,1.65,8.89,8.89,0,0,1-6.21,0,7.87,7.87,0,0,1-2.62-1.65,8.11,8.11,0,0,1-1.81-2.59,8.41,8.41,0,0,1-.67-3.46Zm5.5,22.57a2.74,2.74,0,0,0,.76,2,2.58,2.58,0,0,0,1.94.78,2.61,2.61,0,0,0,1.95-.78,2.73,2.73,0,0,0,.75-2V106a2.73,2.73,0,0,0-.75-2,2.62,2.62,0,0,0-1.95-.79,2.58,2.58,0,0,0-1.94.79,2.74,2.74,0,0,0-.76,2Z"/><path class="cls-2" d="M324.44,106a8.41,8.41,0,0,1,.68-3.46,8,8,0,0,1,1.81-2.59,7.77,7.77,0,0,1,2.62-1.65,8.89,8.89,0,0,1,6.21,0,7.87,7.87,0,0,1,2.62,1.65,8.13,8.13,0,0,1,1.8,2.59,8.41,8.41,0,0,1,.68,3.46V128.6a8.41,8.41,0,0,1-.68,3.46,8.24,8.24,0,0,1-1.8,2.59,7.87,7.87,0,0,1-2.62,1.65,8.89,8.89,0,0,1-6.21,0,7.77,7.77,0,0,1-2.62-1.65,8.11,8.11,0,0,1-1.81-2.59,8.41,8.41,0,0,1-.68-3.46ZM330,128.6a2.7,2.7,0,0,0,.76,2,2.58,2.58,0,0,0,1.94.78,2.61,2.61,0,0,0,2-.78,2.73,2.73,0,0,0,.75-2V106a2.73,2.73,0,0,0-.75-2,2.62,2.62,0,0,0-2-.79,2.58,2.58,0,0,0-1.94.79,2.7,2.7,0,0,0-.76,2Z"/><path class="cls-2" d="M345,118.77h5.51v5.51H345ZM345,131h5.51v5.51H345Z"/><path class="cls-2" d="M354.57,106a8.41,8.41,0,0,1,.68-3.46,8,8,0,0,1,1.81-2.59,7.77,7.77,0,0,1,2.62-1.65,8.89,8.89,0,0,1,6.21,0,7.87,7.87,0,0,1,2.62,1.65,8.31,8.31,0,0,1,1.81,2.59A8.58,8.58,0,0,1,371,106V128.6a8.58,8.58,0,0,1-.67,3.46,8.43,8.43,0,0,1-1.81,2.59,7.87,7.87,0,0,1-2.62,1.65,8.89,8.89,0,0,1-6.21,0,7.77,7.77,0,0,1-2.62-1.65,8.11,8.11,0,0,1-1.81-2.59,8.41,8.41,0,0,1-.68-3.46Zm5.51,22.57a2.7,2.7,0,0,0,.76,2,2.58,2.58,0,0,0,1.94.78,2.61,2.61,0,0,0,2-.78,2.73,2.73,0,0,0,.75-2V106a2.73,2.73,0,0,0-.75-2,2.62,2.62,0,0,0-2-.79,2.58,2.58,0,0,0-1.94.79,2.7,2.7,0,0,0-.76,2Z"/><path class="cls-2" d="M374.66,106a8.41,8.41,0,0,1,.68-3.46,8,8,0,0,1,1.81-2.59,7.67,7.67,0,0,1,2.62-1.65,8.73,8.73,0,0,1,3.1-.56,8.87,8.87,0,0,1,3.11.56,7.82,7.82,0,0,1,2.61,1.65,8,8,0,0,1,1.81,2.59,8.41,8.41,0,0,1,.68,3.46V128.6a8.41,8.41,0,0,1-.68,3.46,8.11,8.11,0,0,1-1.81,2.59A7.82,7.82,0,0,1,386,136.3a8.87,8.87,0,0,1-3.11.56,8.73,8.73,0,0,1-3.1-.56,7.67,7.67,0,0,1-2.62-1.65,8.11,8.11,0,0,1-1.81-2.59,8.41,8.41,0,0,1-.68-3.46Zm5.51,22.57a2.7,2.7,0,0,0,.76,2,2.8,2.8,0,0,0,3.88,0,2.7,2.7,0,0,0,.76-2V106a2.7,2.7,0,0,0-.76-2,2.78,2.78,0,0,0-3.88,0,2.7,2.7,0,0,0-.76,2Z"/><path class="cls-2" d="M282.39,392.54a2,2,0,0,1,.16-.84,1.8,1.8,0,0,1,.44-.6,2,2,0,0,1,.6-.35,1.82,1.82,0,0,1,1.35,0,1.94,1.94,0,0,1,.61.35,1.77,1.77,0,0,1,.43.6,2,2,0,0,1,.17.84v4.13a2,2,0,0,1-.17.85,1.83,1.83,0,0,1-.43.59,1.79,1.79,0,0,1-.61.36,2,2,0,0,1-1.35,0,1.85,1.85,0,0,1-1-1,2,2,0,0,1-.16-.85Zm1.12,4.13a.72.72,0,0,0,.22.6.82.82,0,0,0,1.07,0,.73.73,0,0,0,.23-.6v-4.13a.75.75,0,0,0-.23-.6.85.85,0,0,0-1.07,0,.75.75,0,0,0-.22.6Z"/><path class="cls-2" d="M287.14,390.69h1.68a2.47,2.47,0,0,1,.81.12,1.58,1.58,0,0,1,.64.43,1.71,1.71,0,0,1,.4.72,4.73,4.73,0,0,1,.11,1.12,5.52,5.52,0,0,1-.06.88,1.86,1.86,0,0,1-.26.69,1.56,1.56,0,0,1-.62.6,2.08,2.08,0,0,1-1,.21h-.57v3.06h-1.12Zm1.12,3.72h.54a1.11,1.11,0,0,0,.53-.1.7.7,0,0,0,.27-.27,1,1,0,0,0,.11-.41c0-.16,0-.34,0-.54s0-.36,0-.52a1.3,1.3,0,0,0-.1-.43.66.66,0,0,0-.26-.29,1,1,0,0,0-.51-.1h-.58Z"/><path class="cls-2" d="M292.35,391.75h-1.3v-1.06h3.72v1.06h-1.3v6.77h-1.12Z"/><path class="cls-2" d="M295.3,390.69h1.12v7.83H295.3Z"/><path class="cls-2" d="M297.51,390.69h1.08l1.44,4.15h0l1.43-4.15h1.09v7.83h-1.12v-4.76h0l-1.11,3.37h-.57l-1.1-3.37h0v4.76h-1.12Z"/><path class="cls-2" d="M303.66,390.69h1.12v7.83h-1.12Z"/><path class="cls-2" d="M305.51,397.53l2.11-5.78h-2v-1.06h3.22v.89l-2.16,5.89h2.16v1h-3.33Z"/><path class="cls-2" d="M309.53,390.69h3.35v1.06h-2.22v2.3h1.93v1.05h-1.93v2.3h2.22v1.12h-3.35Z"/><path class="cls-2" d="M281.85,774.54a2.5,2.5,0,0,1-.2,1,2.66,2.66,0,0,1-.55.84,2.63,2.63,0,0,1-.82.57,2.37,2.37,0,0,1-1,.22,3.43,3.43,0,0,1-.94-.13,2.24,2.24,0,0,1-.87-.44,2.52,2.52,0,0,1-.63-.82,3,3,0,0,1-.25-1.3v-6.27a3,3,0,0,1,.19-1,2.36,2.36,0,0,1,.55-.83,2.47,2.47,0,0,1,.84-.56,2.85,2.85,0,0,1,1.08-.2,2.75,2.75,0,0,1,1,.2,2.53,2.53,0,0,1,.83.56,2.58,2.58,0,0,1,.55.87,2.78,2.78,0,0,1,.2,1.09V769h-1.63v-.54a1.31,1.31,0,0,0-.27-.83.87.87,0,0,0-.74-.35.84.84,0,0,0-.81.37,2.06,2.06,0,0,0-.2.95v5.83a1.53,1.53,0,0,0,.22.83.86.86,0,0,0,.78.34,1.11,1.11,0,0,0,.34-.06,1.24,1.24,0,0,0,.34-.18,1,1,0,0,0,.24-.36,1.28,1.28,0,0,0,.1-.56v-.56h1.63Z"/><path class="cls-2" d="M283.08,768.38a2.92,2.92,0,0,1,.24-1.22,2.46,2.46,0,0,1,.64-.87,2.7,2.7,0,0,1,.88-.52,2.76,2.76,0,0,1,2,0,2.7,2.7,0,0,1,.88.52,2.46,2.46,0,0,1,.64.87,2.92,2.92,0,0,1,.24,1.22v6a2.93,2.93,0,0,1-.24,1.23,2.42,2.42,0,0,1-.64.86,2.53,2.53,0,0,1-.88.52,2.76,2.76,0,0,1-2,0,2.53,2.53,0,0,1-.88-.52,2.42,2.42,0,0,1-.64-.86,2.93,2.93,0,0,1-.24-1.23Zm1.64,6a1.13,1.13,0,0,0,.32.88,1.23,1.23,0,0,0,1.56,0,1.13,1.13,0,0,0,.32-.88v-6a1.09,1.09,0,0,0-.32-.87,1.23,1.23,0,0,0-1.56,0,1.09,1.09,0,0,0-.32.87Z"/><path class="cls-2" d="M289.93,765.69h1.57l2.46,6.86h0v-6.86h1.63v11.39h-1.54l-2.49-6.85h0v6.85h-1.63Z"/><path class="cls-2" d="M298.17,767.23h-1.89v-1.54h5.41v1.54H299.8v9.85h-1.63Z"/><path class="cls-2" d="M303.36,765.69h1.35l2.55,11.39h-1.63l-.48-2.45h-2.23l-.48,2.45h-1.63ZM304,769h0l-.8,4.13h1.63Z"/><path class="cls-2" d="M313.24,774.54a2.66,2.66,0,0,1-.75,1.85,2.63,2.63,0,0,1-.82.57,2.37,2.37,0,0,1-1,.22,3.43,3.43,0,0,1-.94-.13,2.24,2.24,0,0,1-.87-.44,2.52,2.52,0,0,1-.63-.82,3.1,3.1,0,0,1-.25-1.3v-6.27a2.75,2.75,0,0,1,.2-1,2.21,2.21,0,0,1,.54-.83,2.47,2.47,0,0,1,.84-.56,2.85,2.85,0,0,1,1.08-.2,2.75,2.75,0,0,1,1,.2,2.53,2.53,0,0,1,.83.56,2.44,2.44,0,0,1,.55.87,2.78,2.78,0,0,1,.2,1.09V769h-1.63v-.54a1.31,1.31,0,0,0-.27-.83.87.87,0,0,0-.74-.35.84.84,0,0,0-.81.37,2.06,2.06,0,0,0-.2.95v5.83a1.53,1.53,0,0,0,.22.83.87.87,0,0,0,.78.34,1.17,1.17,0,0,0,.68-.24,1,1,0,0,0,.24-.36,1.28,1.28,0,0,0,.1-.56v-.56h1.63Z"/><path class="cls-2" d="M315.64,767.23h-1.88v-1.54h5.4v1.54h-1.88v9.85h-1.64Z"/><g class="cls-3"><line class="cls-4" x1="204.42" y1="65.62" x2="390.58" y2="65.62"/><line class="cls-5" x1="275.9" y1="778.68" x2="319.1" y2="778.68"/></g></svg>